<?xml version="1.0" encoding="UTF-8"?>
<!DOCTYPE svg PUBLIC "-//W3C//DTD SVG 1.1//EN" "http://www.w3.org/Graphics/SVG/1.1/DTD/svg11.dtd">
<!-- Creator: CorelDRAW -->
<svg xmlns="http://www.w3.org/2000/svg" xml:space="preserve" width="1.68504in" height="1.98778in" version="1.1" style="shape-rendering:geometricPrecision; text-rendering:geometricPrecision; image-rendering:optimizeQuality; fill-rule:evenodd; clip-rule:evenodd"
viewBox="0 0 77.37 91.27"
 xmlns:xlink="http://www.w3.org/1999/xlink"
 xmlns:xodm="http://www.corel.com/coreldraw/odm/2003">
 <defs>
  <style type="text/css">
   <![CDATA[
    .fil0 {fill:white}
   ]]>
  </style>
 </defs>
 <g id="Layer_x0020_1">
  <metadata id="CorelCorpID_0Corel-Layer"/>
  <path class="fil0" d="M35.11 42.46c-0.38,-6.57 1.18,-21.85 4.84,-25.1 3.54,-3.15 5.67,4.29 6.38,7.24 0.98,4.08 1.55,8.9 1.7,13.33 0.24,7.12 -0.86,21.26 -4.9,25.12 -1.94,1.85 -3.72,-0.41 -4.44,-1.72 -0.79,-1.44 -1.51,-3.7 -1.89,-5.57 -0.95,-4.57 -1.4,-8.4 -1.68,-13.3zm2.93 -13.56l6.82 -0 0.01 -1.41 -6.82 0.01 -0.01 1.41zm0.01 21.22l6.82 0.01 0.01 -1.39 -6.84 0 0.02 1.38zm0.03 -4.05l6.73 -0.01 0.09 -1.39 -6.84 0 0.02 1.4zm-0.02 -5.72l6.8 0.02 0.01 -1.4 -6.83 0 0.02 1.38zm-0.01 -5.36l6.82 0 0 -1.4 -6.81 0 -0.01 1.4zm-0 19.7l6.82 -0.01 -0 -1.4 -6.79 0 -0.03 1.41zm18.54 24.92c0.98,-0.35 2.39,-0.05 3.04,-0.6 0.74,-0.64 0.68,-1.82 0.28,-2.62 -0.84,-1.72 -2.71,-2.66 -0.86,-4.75 3.47,-3.92 6.33,-1.78 5.29,-8.27 2.06,-2.83 5.22,-12.56 4.68,-17.13 2.98,-1.67 7.99,-9.06 8.37,-13.84 -2.07,0.92 -4.46,2.72 -7.43,2.2 -1.66,-0.29 -2.56,-2.85 -3.28,-4.05 -0.8,-1.35 -0.59,-1.15 -1.2,-1.42 -0.07,-0.77 -3.61,-5.69 -4.2,-6.41 -0.83,-1.02 -1.74,-1.95 -2.63,-2.77 -0.75,-0.68 -2.15,-1.81 -2.69,-2.41 -0.22,-0.83 -0.65,-1.37 -1.06,-2.01 -0.25,-0.38 -0.29,-0.47 -0.62,-0.8 -0.58,-0.59 -0.46,-0.11 -0.46,-0.86l0.89 -2.3 -0.82 -0.21 -0.99 1.97c-0.5,0.21 -2.21,-0.37 -2.9,-0.62 -2.95,-1.04 -0.84,-1.41 -5.84,-2.02 -3.39,-0.41 -3.88,-1.4 -5.46,-2.36 -2.44,-1.49 -7.91,-2.69 -8.01,-3.86 -0.02,-0.23 1.57,-2.44 0.11,-4.08 -0.87,-0.97 -6.76,0.12 -8.02,0.34 -3.3,0.6 -6.11,3.1 -8.61,2.04 -1.21,-0.51 -1.59,-0.78 -2.71,-0.01 -0.63,0.92 1.17,1.24 -1.98,3.62 -3.25,2.47 0.93,4.09 -3.97,7.19 -2.35,1.49 -4.12,3.25 -5.27,5.89 -0.85,1.95 0.82,2.63 1.49,3.71 1.99,3.19 -1.73,6.36 -1.72,8.82 0.16,0.55 3.4,3.02 4.56,4.38 1.82,2.13 2.14,2.68 4.96,4.1 2.43,1.23 2.7,0.15 4.76,-0.39 -1.61,7.44 0.96,18.18 5.03,24.41 3.62,5.54 8.3,9.7 14.49,11.81 0.57,0.2 2.34,0.59 2.78,0.84 0.78,7.75 3.9,7.9 3.91,10.6 0.02,4.26 2.6,3.6 4.96,3.27 3.35,-0.47 6.76,-1.36 7.87,-3.84 0.71,-1.6 1.15,-2.35 2.16,-3.59 0.38,-0.46 1.08,-1.2 1.25,-1.7 0.46,-1.37 -0.59,-0.75 -0.16,-2.28zm-30.87 -12.78c-0.39,0.45 -0.62,0.94 -0.59,1.6 1.18,0.31 0.93,-0.15 1.48,-1.16l6.61 -13.65c0.53,0.74 0.84,2.24 1.25,3.24 1.1,2.66 3.32,7.2 6.45,7.67 4.69,0.7 7.14,-6.25 8.64,-9.97 0.5,0.31 6.03,10.92 6.82,12.29l0.28 0.55 0.88 -0.38 -0.33 -0.59 -0.28 -0.5c-1.73,-3.68 -3.96,-7.38 -5.81,-10.92 -0.25,-0.48 -0.65,-1.09 -0.85,-1.59 -0.2,-0.5 1.22,-6.05 1.49,-8.04 0.43,-3.12 0.36,-6.44 0.06,-9.53 -0.02,-1.75 -0.7,-3.7 -0.88,-5.4 -0.24,-0.57 -1.01,-3.48 -0.97,-3.95 -0.18,-0.18 -0.11,-0.08 -0.27,-0.35l-0.57 -1.89c-0.47,-0.36 1.07,-3.05 1.5,-3.9 0.46,-0.93 1.31,-2.97 1.9,-3.81 2.17,0.45 8.38,7.8 9.1,9.53 0.1,0.49 1.21,2.37 1.57,3.1 0.6,1.23 0.95,2.12 1.43,3.46 2.77,7.78 2.54,17.13 -0.19,24.54 -5.78,15.64 -21.51,23.63 -35.42,14.56 -3.93,-2.56 -6.65,-6.01 -9.08,-10.25 -4.49,-7.83 -5.19,-18.92 -2.49,-27.79 0.38,-1.24 1,-2.49 1.29,-3.57 0.02,-1.19 3.78,-6.8 4.74,-7.99 1.27,-1.59 4.68,-5.23 6.75,-6.02 0.61,0.65 2.34,4.27 2.98,5.41 0.45,0.81 1.31,1.89 0.99,2.78 -3.18,9.12 -4.08,15.33 -2.05,25.11 0.23,1.09 0.83,2.32 0.42,3.22l-6.64 13.76c-0.02,0.05 -0.04,0.1 -0.06,0.14l-0.14 0.3zm20.91 -53.27l-0.33 0.08c2.28,0.44 3.54,1.49 5.27,2.08 -0.2,0.88 -2.76,6.16 -3.24,6.84 -0.4,-0.47 -0.83,-1.54 -1.22,-2.22 -2.32,-4.03 -5.86,-6.71 -9.64,-2.14 -1.41,1.7 -2.06,3.59 -2.55,4.11 -0.53,-0.48 -2.35,-4.11 -2.96,-5.26l-0.77 -1.34c-0.22,-0.27 -0.06,-0.09 -0.28,-0.27l-0.84 0.32c0.5,-0.66 0.94,-0.47 1.82,-0.89 3.76,-1.78 12.77,-2.75 14.74,-1.3zm-5.35 69.55l1.55 -0.53 0.51 0.6 1.12 -0.38 -2.96 -3.4 -1.1 0.37 -0.27 4.5 1.12 -0.38 0.03 -0.79zm0.1 -2.25l0.83 0.99 -0.89 0.3 0.06 -1.3zm5.16 1.36c1.46,-0.49 1.83,-1.69 1.45,-2.81 -0.38,-1.13 -1.41,-1.84 -2.86,-1.35 -1.46,0.49 -1.83,1.69 -1.45,2.81 0.38,1.13 1.41,1.84 2.86,1.35zm-0.3 -0.9c-0.74,0.25 -1.28,-0.19 -1.49,-0.82 -0.21,-0.62 -0.06,-1.3 0.68,-1.56 0.74,-0.25 1.28,0.19 1.49,0.82 0.21,0.62 0.06,1.3 -0.68,1.56zm2.87 -4.5l-1.38 0.47 1.34 3.95 1.04 -0.35 -0.77 -2.27 1.7 1.96 0.77 -0.26 0.15 -2.58 0.77 2.27 1.04 -0.35 -1.34 -3.95 -1.38 0.47 -0.16 2.73 -1.79 -2.07zm6.1 1.56l1.55 -0.53 0.51 0.6 1.12 -0.38 -2.96 -3.4 -1.1 0.37 -0.27 4.5 1.12 -0.38 0.03 -0.79zm0.1 -2.25l0.83 0.99 -0.89 0.3 0.06 -1.3z"/>
 </g>
</svg>
