<?xml version="1.0" encoding="UTF-8"?>
<!DOCTYPE svg PUBLIC "-//W3C//DTD SVG 1.1//EN" "http://www.w3.org/Graphics/SVG/1.1/DTD/svg11.dtd">
<!-- Creator: CorelDRAW -->
<svg xmlns="http://www.w3.org/2000/svg" xml:space="preserve" width="2.52111in" height="1.70615in" version="1.1" style="shape-rendering:geometricPrecision; text-rendering:geometricPrecision; image-rendering:optimizeQuality; fill-rule:evenodd; clip-rule:evenodd"
viewBox="0 0 138.9 94"
 xmlns:xlink="http://www.w3.org/1999/xlink"
 xmlns:xodm="http://www.corel.com/coreldraw/odm/2003">
 <defs>
  <style type="text/css">
   <![CDATA[
    .fil0 {fill:white}
   ]]>
  </style>
 </defs>
 <g id="Layer_x0020_1">
  <metadata id="CorelCorpID_0Corel-Layer"/>
  <g>
   <path class="fil0" d="M88.97 46.33c0.83,-0.42 5.84,-0.14 7.09,-0.14l5.42 0c1.11,0 1.25,0 1.39,0.42 -1.81,0.69 -4.87,1.11 -7.09,1.11 -2.09,0 -3.48,-0.28 -5.42,-0.56 -0.83,-0.14 -1.25,-0.14 -1.39,-0.83zm-58.38 12.37l1.11 -1.67c0.28,-0.56 0.97,-1.11 0.97,-1.67 -0.69,0 -1.11,0.28 -1.67,0.83 -0.42,0.28 -0.28,0 -0.42,0.42 -0.83,0.14 -2.22,2.08 -2.64,3.06 -0.69,1.25 -1.11,2.78 -1.25,4.45 -0.14,1.67 0.42,3.34 0.97,4.73 0.28,0.56 0.83,1.25 1.25,1.67 0.28,0.56 0.83,0.97 1.11,1.67 -0.83,-0.14 -2.22,-1.53 -2.92,-2.08 -0.97,-0.69 -1.95,-1.53 -2.78,-2.22 -1.11,-0.83 -5,-3.75 -5.28,-4.59 0.56,-0.56 2.22,-0.83 2.36,-1.39 1.39,-0.42 4.03,-2.5 4.59,-3.75 0.14,0 0,0.14 0.28,-0.14l0.56 -1.25c0.83,-1.95 -0.14,-4.59 -1.25,-4.86 -0.42,0.69 -0.28,2.5 -0.42,3.34 -0.14,0.56 -0.28,0.97 -0.42,1.53 -0.14,0.56 -0.42,0.83 -0.56,1.25 -0.28,0.28 -0.28,0.42 -0.56,0.69 -0.56,1.11 -1.25,1.39 -1.67,1.95 -0.69,0.14 -1.11,0.83 -1.95,0.97 -0.14,-1.25 1.39,-2.08 0.83,-2.92 -0.83,-0.56 -1.53,0.97 -1.67,1.53 -0.28,0.14 -0.42,0.14 -0.69,0 -0.42,-1.81 0.56,-4.45 1.53,-5.7 0.42,-0.69 1.25,-1.39 1.81,-1.95 0.42,-0.28 0.69,-0.42 1.11,-0.69 0.28,0 0.56,-0.14 0.69,-0.28 0.42,-0.42 0.14,0 0.28,-0.56 -0.42,-0.28 -0.83,-0.14 -1.25,0 -0.14,0 -0.56,0.14 -0.56,0.14l-0.42 0.28c0,-0.14 0,0 -0.14,0 -1.39,0 -3.47,2.36 -4.03,3.34 -1.67,2.64 -0.42,5.14 -0.69,5.84 -0.69,-0.14 -2.36,-2.5 -2.92,-3.2 -0.83,-1.11 -2.36,-2.64 -2.36,-3.75 2.36,-1.53 6.25,-3.34 4.59,-7.23 -0.14,-0.56 -0.14,-0.83 -0.83,-0.97 -0.56,1.11 0.42,3.2 -1.67,5.56 -0.42,0.56 -0.56,0.83 -1.53,0.83l0 -1.39c-0.97,0 -0.83,0.97 -1.67,1.25 -0.42,-0.97 0.28,-2.36 0.28,-3.2 0.42,-0.28 0.28,-0.14 0.42,-0.56 0.14,-0.28 0.14,-0.28 0.28,-0.56 0.28,-0.28 0.56,-0.56 0.83,-0.83 0.83,-0.97 1.39,-0.97 1.53,-1.67 -0.83,-0.56 -2.78,0.83 -3.06,1.53 -1.11,0.56 -1.39,2.5 -1.81,3.06 -0.69,-0.14 -1.25,-1.39 -1.81,-2.36 -0.42,-0.83 -0.97,-2.22 -1.67,-2.5 -0.14,0.14 -0.14,0 -0.14,0.28l0.83 2.5c0.28,0.83 0,0.83 0,0.83 -0.69,0.28 -4.73,-0.97 -5.14,0.83 0.69,0.28 1.53,0.14 2.36,0.14 0.56,0.14 1.39,0.28 1.95,0.56 0.83,0.28 2.5,0.97 2.5,2.08 -0.69,0 -0.83,-0.14 -1.53,0 0,0.69 0.42,0.83 0.97,0.97 0.14,0.28 0.14,0.14 0.14,0.42 -2.36,0.28 -4.03,-0.42 -5.7,-1.67 -0.56,-0.42 -0.83,-0.83 -1.67,-0.83 -0.14,1.81 2.08,3.34 3.61,3.61 0.83,0.14 2.78,0.14 3.61,0 2.5,-0.28 1.25,-0.69 2.64,0.28 0.28,0.97 2.08,2.64 2.08,3.61 -0.7,0.14 -2.08,-0.14 -2.78,-0.28 -1.67,-0.14 -3.75,0.28 -5,1.11 -0.42,0.28 -1.39,0.97 -1.53,1.53 1.67,0 1.95,-0.56 3.2,-0.7 1.11,-0.14 2.64,0 3.75,0 1.81,0 4.73,0.83 5,2.22 -0.83,0.28 -1.95,-0.14 -2.78,0.28 0,0.42 -0.14,0.42 0.42,0.69 0.97,0.28 1.81,0.14 2.5,0.69 -0.56,0.42 -1.11,0.56 -1.95,0.69 -2.22,0.28 -4.31,0.28 -6.25,-0.42 -2.08,-0.69 -2.64,-1.39 -4.31,-2.36 -0.14,1.53 3.75,5.56 9.03,4.59 0.97,-0.14 2.78,-0.56 3.34,-1.39 0.69,-0.14 0.97,-0.83 1.81,-0.69 0.83,0.14 3.48,2.64 4.17,3.34 0.97,0.97 1.67,1.81 2.64,2.5 0.42,0.56 2.22,1.95 2.36,2.64 -1.25,-0.14 -2.36,-1.95 -6.95,-2.5 -2.36,-0.28 -6.95,0.56 -7.78,1.53 -2.22,0.69 -5.28,4.17 -5.14,5.7 0.56,0 1.67,-1.11 2.78,-1.95 2.87,-1.91 5.74,-2.9 9.31,-2.96l-4.03 -0.1 5.84 0.14c0.97,0 1.95,0.28 2.92,0.42 0.69,0.14 2.22,0.42 2.5,0.97 -0.69,0.97 -4.45,0.56 -5.42,1.39 0.14,1.95 3.89,0.42 5.14,1.11 -0.14,1.11 -4.59,2.92 -5.42,3.2 -4.31,1.39 -5.98,0.42 -7.64,0.69 -0.42,-0.14 -0.97,-0.28 -1.39,-0.42 -0.56,-0.14 -0.97,-0.14 -1.39,-0.42 -0.69,-0.28 -1.81,-0.83 -2.64,-0.56 0,0.69 0.83,1.11 1.95,1.67 4.03,2.5 9.45,2.78 13.62,0.42 1.25,-0.69 3.34,-2.22 3.75,-3.34 0.83,-0.42 0.69,-2.08 2.5,-2.22 1.39,-0.14 2.36,0.97 3.2,1.53 0.83,0.69 4.86,3.75 5.56,3.89 0.69,-0.14 1.53,-1.25 1.95,-1.67 0.69,-0.83 1.53,-1.25 1.53,-1.95 -0.42,-0.56 -4.45,-1.95 -5.42,-2.64 0,-0.83 0.28,-0.69 0.83,-1.11 0.83,-0.69 2.08,-2.08 2.78,-3.06 1.11,-1.67 2.09,-3.06 2.09,-5.56 0.14,-4.45 -2.78,-9.31 -5.84,-9.45 0.14,1.25 3.34,3.61 3.2,8.62 0,1.95 -0.28,3.34 -0.97,4.86 -0.42,1.25 -0.83,1.95 -1.53,2.92 -0.14,0.28 -0.14,0.28 -0.28,0.42 -1.25,0.69 0.14,-3.47 -1.11,-4.45 -2.08,-1.53 -1.11,3.34 -1.25,4.45 -0.83,0 -1.67,-1.95 -1.95,-2.64 -3.06,-6.25 -0.28,-9.73 -0.28,-10.98zm25.3 -25.02l0 -0.69c1.39,-0.56 2.92,-0.42 4.03,-0.97 0,-0.56 0.14,-0.69 -1.11,-1.11 -2.64,-0.83 -3.2,1.81 -3.61,2.78 -2.36,1.25 -2.5,6.26 -2.5,6.39 -0.56,0 -0.56,-0.42 -0.69,-0.97l-2.64 -8.06c-0.42,-1.39 -3.06,-8.34 -2.92,-9.31 1.25,-0.42 15.99,-0.14 19.32,-0.14 3.2,0 2.5,-2.36 0.14,-2.36 -4.03,-0.28 -8.76,-0.14 -12.93,-0.14 -2.08,0.14 -4.31,0 -6.39,0 -2.08,0 -4.45,-0.14 -5.14,1.39 0.28,0.83 0.97,0.83 1.53,1.53 0.14,0.42 -5.14,14.59 -5.98,17.1 -0.28,0.83 -1.95,5 -1.67,5.56 0.69,0 0.83,0 1.11,-0.42 1.25,-2.5 4.59,-12.79 6.12,-14.46 0.56,1.25 0.42,6.53 0.42,8.34 0,2.08 1.67,5.42 2.92,5.84 0.42,-1.39 0,-11.12 0.14,-13.9l0.14 -0.69c0.14,-0.28 -0.28,-0.14 0.28,-0.28 0.42,0.56 2.64,6.25 3.06,7.23 0.97,2.36 1.81,5 2.92,7.37 0.83,0 1.25,-0.14 1.67,0.42 0.14,0.42 0.42,1.11 0.56,1.53 1.25,2.92 -0.28,3.89 -3.06,4.45 -1.11,0.28 -2.78,0.14 -3.47,0.42 -0.56,0.14 -1.11,0.42 -1.67,0.56 -1.25,0.56 -0.69,1.11 -0.56,1.11l0.83 0.14c0.42,0 0.69,-0.14 0.97,-0.14 0.69,0 1.39,0 2.08,-0.14 1.39,0 2.78,-0.28 3.34,0.28l0.14 0.28c0,0.83 1.67,7.64 2.08,8.62 0.14,0.28 0.42,0.97 0.69,1.11 0.69,0.56 0.56,0 1.25,-0.14 0.83,0.97 1.11,4.03 1.95,5.28l0.69 -0.14c0.56,-1.39 -0.56,-0.42 0.56,-3.89 0.69,-2.08 2.08,-4.73 2.64,-6.67 0.42,-0.97 0.69,-2.78 1.53,-3.06 0,1.95 -1.95,8.62 0.69,9.17 0.56,-0.69 0.28,-1.67 0.42,-2.64 0,-2.36 0.69,-5.7 1.25,-7.92 0.42,-1.67 0.97,-3.2 1.39,-4.73 0.14,-0.83 0.56,-1.67 0.69,-2.36 0.14,-1.39 -0.14,-1.53 0.69,-2.36 1.39,-1.67 1.81,-1.11 1.95,-4.17 0,-4.73 -0.14,-10.15 0.28,-14.87 0.14,-1.11 0.14,-1.95 0.97,-2.22 0.83,0.28 0.69,0.97 0.97,1.95 0.56,2.22 1.11,4.73 1.39,7.09l0.56 10.84c0,1.11 -0.14,1.67 -0.28,2.64 -0.28,3.34 -0.14,3.75 -1.39,7.23 -0.42,1.53 -0.28,3.47 -0.42,5.14 0,0.56 -0.56,4.59 0,5 0.97,0.42 0.97,-0.69 1.11,-1.39l1.53 -6.95c0.42,-2.36 1.11,-7.92 1.11,-10.15 0,-4.45 0,-11.68 -0.69,-16.12 -0.14,-0.97 -0.69,-4.17 -0.56,-5 0.56,-0.28 6.25,-0.69 7.23,-0.69 1.81,0 5.84,-0.56 7.23,-0.28 0.14,0.83 -3.06,10.29 -3.48,11.82 -0.69,1.95 -1.25,3.75 -1.95,5.84 -0.56,1.67 -1.39,4.17 -1.81,5.84 -0.42,1.81 -0.14,2.22 0.83,2.78 2.22,1.53 6.12,2.5 9.04,2.5 1.95,0 8.2,-0.83 9.73,-1.95 0.69,-0.56 0.69,-1.95 0.97,-2.78 0.28,0 1.53,0.42 1.67,0l-1.81 -5.42c-0.69,-1.67 -1.53,-3.34 -2.22,-5 -1.39,-3.47 -2.78,-6.95 -4.31,-10.29 -0.69,-1.53 -1.25,-3.89 -2.36,-5 -1.25,-1.25 -4.31,-0.56 -6.39,-0.56 -2.5,0 -12.37,0.56 -13.9,0.28 -0.14,-1.25 -0.28,-1.67 -0.56,-2.92 -0.14,-0.83 -0.69,-1.53 -0.69,-2.36 0.69,-0.69 0.83,-0.69 0.83,-1.95 0,-2.36 0.42,-6.25 -1.11,-6.81 -1.67,-0.83 -2.08,-0.83 -2.92,-2.5 -0.28,-0.56 -0.56,-1.39 -0.83,-1.81 -0.42,-0.56 -2.08,-1.11 -2.08,0.28 0,0.69 0.69,4.31 0.83,4.59 2.22,0.28 3.89,-0.28 4.03,2.22 0.14,0.97 0,2.08 0,3.06 0.14,1.39 0.42,1.39 0.56,2.5 -0.69,0 -0.97,-0.14 -1.53,-0.28 -0.42,-0.14 -0.97,-0.14 -1.53,-0.14 -0.97,0 -2.22,-0.14 -3.06,0.28 -0.14,0.83 0.69,1.25 1.11,1.67 0.42,0.56 0.69,0.97 0.83,1.95 0.28,2.08 0.56,8.2 0.56,10.56 0,0.97 0,1.67 -0.14,2.64 -0.14,0.83 -0.56,1.39 -0.56,2.22 0.42,0.69 0.69,0.28 0.83,1.39 0.14,0.56 0.14,5.7 0,6.12 -0.42,-0.14 -0.14,0 -0.42,-0.42 0,0 -0.14,-0.56 -0.14,-0.69 -0.56,-1.39 -0.42,-2.92 -0.83,-3.75l-0.69 0c0,0 0,0 0,0 -0.42,0.69 -0.14,0.56 -0.69,1.39 -1.11,2.08 -0.97,2.22 -1.81,4.45 -0.56,1.11 -1.11,1.67 -2.08,2.09 -0.42,0.42 -2.5,0.83 -1.95,1.81 0.69,0.56 2.22,-0.14 3.06,-0.14 0.69,0 1.39,1.11 1.39,2.08 0,0.56 -4.03,10.84 -4.73,12.51 -0.28,0.56 -0.42,1.95 -1.11,2.22 -0.56,-0.28 -2.08,-4.31 -2.36,-5.14 -0.42,-0.83 -0.69,-1.67 -1.11,-2.64 -0.28,-0.7 -1.25,-2.08 -0.69,-2.78 0.56,-0.42 0.83,0.28 1.25,0.42 0.28,0.69 0.56,0.56 1.39,0.69 1.11,0.28 5.84,1.53 4.45,-0.14 -0.14,-0.28 -0.28,-0.42 -0.56,-0.56 -2.08,-1.25 -3.61,-0.56 -5.14,-1.25l0 -1.25c0.42,-2.08 0.14,-6.12 -0.14,-8.2 -0.28,-1.39 -0.69,-2.22 -0.97,-3.47 -0.56,-1.53 0.97,-2.5 0.42,-3.2zm5.56 -2.08c0.97,0.97 2.09,-0.69 4.73,2.64 0.28,0.42 0.14,0.42 0.83,0.56 -0.14,-1.95 -0.83,-3.06 -1.95,-3.75 -1.67,-1.25 -3.75,-0.56 -3.61,0.56zm-13.2 29.61c0.14,-0.42 1.67,-6.26 1.67,-6.95 -1.25,0 -2.36,1.67 -2.78,2.92 -0.42,1.11 -0.56,4.31 1.11,4.03zm72.86 -2.53c-0.06,-0.05 -0.11,-0.09 -0.16,-0.11 0.1,0.05 0.14,0.08 0.16,0.11zm-5.86 0.3c0,-0.28 -0.14,-0.42 -0.28,-0.83 -1.25,-2.08 -1.25,-3.89 -1.39,-6.39 -1.95,0.14 -2.08,5 -0.97,6.12 0.69,2.36 4.31,4.73 6.95,5 0.28,0.28 0.14,0 0.42,0.42 -0.14,0.83 -1.67,1.67 -2.5,2.5l-5.56 4.31c-0.42,0.42 -2.22,1.95 -2.78,2.08 0,-1.11 3.2,-4.03 2.92,-9.73 -0.28,-3.2 -2.78,-6.67 -5.7,-6.95 0.28,1.53 5,6.95 2.36,13.62 -0.14,0.69 -0.56,1.53 -0.97,1.95 -0.14,0.42 -0.42,0.56 -0.56,0.97 -0.42,0.28 -0.28,0.42 -0.83,0.56 -0.56,-1.39 0.14,-3.61 -0.42,-5 -1.53,0 -1.25,0.69 -1.39,2.08 0,0.97 0,2.22 -0.56,2.78 -0.69,-0.28 -0.83,-1.11 -1.25,-1.67 -2.36,-4.45 -2.22,-9.17 0.28,-13.62 0.42,-0.56 0.97,-1.11 1.11,-1.81 -0.83,0.14 -0.97,0.42 -1.39,0.69 -2.64,2.36 -4.87,4.86 -4.45,9.17 0.56,5.28 5.14,7.92 6.12,9.31 -1.11,0.97 -4.86,1.95 -5.84,2.64 0.28,0.97 3.2,3.89 3.48,3.89 0.56,-0.14 4.17,-2.78 4.73,-3.2 0.83,-0.7 2.36,-2.09 3.47,-2.36 0.69,-0.14 0.97,0.14 1.53,0.14l1.67 2.36c0.69,0.83 1.11,1.25 1.95,1.95 7.37,5.7 16.68,1.67 17.1,-1.11 -0.83,0 -1.67,0.56 -2.5,0.83 -0.97,0.28 -2.36,0.42 -2.64,0.69 -0.56,-0.14 -2.92,0.14 -3.89,0 -4.86,-0.28 -7.78,-2.92 -8.62,-3.06 -0.28,-0.28 0,0 -0.28,-0.28 -0.28,-0.14 -0.14,0 -0.28,-0.14 -0.28,-0.28 -0.28,-0.14 -0.28,-0.69 1.25,-0.14 3.89,0.42 4.86,-0.14 0,-0.69 -0.42,-0.69 -1.67,-0.97 -0.69,-0.56 -2.09,-0.56 -2.64,-1.25 0.69,-0.69 3.89,-0.83 5.14,-0.97 9.03,-1.25 11.54,4.17 13.34,4.31 -0.14,-1.67 -1.53,-3.2 -2.78,-4.17 -3.75,-3.06 -9.59,-3.61 -14.04,-1.67 -0.69,0.28 -1.67,0.97 -2.36,1.11 0.28,-0.83 3.75,-3.89 4.59,-4.73 1.95,-1.81 3.61,-4.45 5.14,-3.2 6.12,4.73 13.07,0 12.51,-1.81 -0.28,-0.14 -3.89,1.39 -5.42,1.67 -1.53,0.42 -5.42,0.28 -6.12,-0.69 1.25,-0.83 2.78,0 2.78,-1.53 -0.97,-0.28 -2.22,0.42 -3.06,0 0.14,-0.56 0.42,-0.69 0.97,-0.97 1.67,-0.83 2.5,-1.11 4.45,-1.39 2.92,-0.42 5.56,0.83 6.67,0.83 -0.42,-1.11 -2.64,-2.22 -3.89,-2.36 -2.92,-0.69 -3.89,0.14 -5.42,0.14 0,-0.83 1.53,-2.64 1.95,-3.34 1.11,-1.81 1.25,-0.69 3.61,-0.69 1.81,0.14 3.06,0 4.45,-0.69 0.69,-0.42 2.08,-1.81 1.81,-3.06 -0.56,-0.14 -0.56,0.14 -1.39,0.97 -1.25,0.97 -4.45,2.64 -5.84,1.53 0.28,-0.69 1.11,-0.56 0.97,-1.25 -0.14,-0.14 -3.75,0.14 0.83,-2.08 0.56,-0.28 1.25,-0.56 2.08,-0.56 0.56,0 2.08,-0.14 2.5,-0.28 -0.28,-1.39 -4.17,-0.56 -5.28,-0.69 -0.14,-1.25 0.97,-2.36 0.97,-3.61 -0.83,0 -1.25,1.39 -1.81,2.5 -0.42,0.56 -1.25,2.22 -1.67,2.5 -0.83,-0.42 -0.56,-1.81 -1.81,-3.34 -0.42,-0.42 -2.22,-1.95 -3.34,-1.39 0.14,0.56 0.83,0.97 1.25,1.25 1.25,1.25 2.64,3.2 2.22,5.28 -0.97,0 -0.69,-0.69 -1.53,-1.11 -0.14,0 -0.28,0.14 -0.14,0.69 0,0 0.01,0.01 0.01,0.01l0 0.73c-0.8,0.4 -2.01,-1.61 -2.41,-2.15 -0.94,-1.48 -0.54,-2.28 -0.67,-4.16 -1.87,0.13 -2.14,5.99 3.15,7.62 0.06,0.05 0.06,0.05 0.06,0.3 0.28,0.69 0.56,0.69 -0.56,1.95l-2.5 3.47c-0.97,0.97 -0.83,1.39 -1.53,1.39l-0.14 -1.67c-0.14,-2.36 -0.83,-4.03 -2.08,-5.42 -0.69,-0.83 -3.47,-2.64 -5.14,-2.08l-0.14 0.28c0.14,0.28 1.53,1.11 2.08,1.53 0.69,0.56 1.53,1.39 1.95,2.08 0.97,1.11 2.08,3.48 1.95,5.14 0,0.28 0,0.28 -0.14,0.42 -0.08,0.17 -0.12,0.25 -0.12,0.28l0.02 0.01c0.08,-0.07 0.33,-0.48 -0.04,-0.01 -0.69,-0.42 -0.83,-0.56 -1.25,-1.25 -0.69,-1.39 -1.53,-1.11 -1.39,-0.14 0.14,0.28 0.56,1.11 0.83,1.25l0 0 0 0 0 0 0 0.49 -0.08 0.2c-1.08,-0.04 -2.02,-0.99 -2.7,-1.67l-0.69 -0.69c0,0 0,0 -0.14,0zm4.31 3.89l-0.82 -0.68c0.03,-0.02 0.04,-0.03 0.03,-0.03 -0.01,0 -0.03,0.01 -0.04,0.02l0.83 0.69zm-0.56 -2.08c-0.14,0 -0.14,-0.14 -0.14,-0.14l0.14 0.14zm-83.68 -15.15c-0.28,0.28 -1.53,0.56 -1.81,0.97 -0.83,1.11 0.42,1.11 1.25,0.97 3.47,-0.83 12.79,-2.08 14.73,-1.25 -0.42,0.83 -4.31,1.25 -5.42,1.39 -1.81,0.28 -4.73,-0.14 -6.53,0.14 0.14,2.09 9.03,1.53 10.98,1.25 1.81,-0.28 3.48,-0.83 4.59,-1.81 0.42,-0.42 1.11,-1.53 0.28,-2.36 -0.69,-0.42 -1.53,-0.28 -2.36,-0.56 -2.92,-0.14 -5.56,0 -8.34,0.28 -4.45,0.28 -3.61,0.42 -7.37,0.97zm32.8 44.9c-0.97,-0.42 -4.73,-0.28 -5.84,-0.69 -0.97,-0.28 -0.28,-3.89 -0.14,-5.42 0.14,-0.97 0.14,-2.08 0.14,-3.06 0.14,-4.31 1.25,-3.75 -1.81,-4.03 -0.83,-0.14 -2.08,-0.42 -2.92,-0.28 -0.14,0.42 -1.39,15.43 -1.25,15.85 0.28,0.28 10.98,1.25 11.68,0.97 0.28,-0.42 0.28,-2.78 0.14,-3.34zm-20.16 -6.12c-0.56,0.14 -1.53,0 -1.67,-0.42 -0.28,-0.42 0.14,-0.97 0.42,-1.53 0.28,-0.56 0.56,-0.97 0.83,-1.53 0.14,-0.42 0.42,-1.11 0.97,-1.25 0,0.69 -0.28,4.31 -0.56,4.73zm-10.01 3.47c5.14,1.95 4.45,2.08 5.84,0 0.56,-0.97 0.83,-0.83 2.08,-0.56 3.2,0.83 1.67,2.64 2.22,3.47 0.28,0.56 3.75,1.39 4.45,1.25 0.28,-1.39 0.14,-2.09 0.14,-3.61l0 -9.31c0,-1.53 0,-2.92 -0.97,-3.61 -0.42,-0.28 -2.22,-1.11 -2.78,-1.25 -1.95,-0.28 -3.34,1.95 -4.31,3.89l-3.47 4.73c-0.56,0.83 -3.2,4.03 -3.2,5zm53.93 -3.61c-0.97,0 -0.69,-0.42 -0.69,-1.25 -0.14,-1.11 -0.56,-2.22 -0.28,-3.47 0.69,0 2.36,3.89 2.36,4.17 -0.28,0.28 -0.83,0.56 -1.39,0.56zm-5.56 7.78c0.69,0.14 4.31,-0.83 4.73,-1.25 0.83,-0.69 -0.14,-1.67 0.42,-2.64 0.28,-0.69 1.11,-0.69 2.08,-0.97 0.97,-0.28 1.25,-0.69 1.95,0.28 0.28,0.69 0.69,1.67 1.39,1.67 0.42,0 4.17,-1.39 4.45,-1.67 0,-0.42 -0.83,-1.39 -1.11,-1.81 -0.83,-1.25 -7.51,-11.26 -7.92,-11.54 -0.83,-0.14 -3.06,0.69 -3.89,0.97 -1.53,0.56 -1.53,1.67 -1.53,3.34 0,2.5 -0.83,12.23 -0.56,13.62zm-10.15 1.95c1.95,0 2.78,0 4.31,-0.69 2.5,-1.11 4.31,-3.34 3.34,-6.12 -1.39,-4.03 -10.42,-3.75 -8.34,-6.39 0.97,-1.25 2.78,0.56 3.2,0.97 0.69,0.69 0.69,0.28 1.67,0.14 0.97,-0.28 1.39,-0.14 2.22,-0.42 0.14,-1.67 -0.97,-3.34 -1.95,-3.89 -1.53,-0.56 -3.75,-0.28 -5.28,-0.14 -1.67,0.28 -3.2,0.56 -4.31,1.53 -0.83,0.97 -1.53,2.92 -0.69,4.45 1.25,2.22 4.73,3.06 7.23,4.31 1.53,0.83 2.22,2.36 0,2.92 -2.22,0.7 -2.08,-1.39 -2.92,-2.5 -0.97,-0.14 -3.61,-0.14 -4.03,0.69 -0.56,0.97 0,5.14 5.56,5.14zm9.45 -49.21c-0.28,-1.53 4.03,-12.65 4.73,-15.01l1.25 -3.61c0.14,-0.56 0.14,-0.97 0.56,-1.25 0.14,0.14 0.14,0 0.14,0.28 0.28,0.56 0.83,12.65 0.83,13.21 0.14,4.03 1.39,5.56 -0.97,5.7l-6.53 0.69zm9.03 -20.71c0.83,0.28 1.11,1.53 1.39,2.36 0.28,0.83 0.69,1.67 1.11,2.5 0.69,1.67 6.39,15.29 6.39,15.71 -1.67,0.28 -5,-0.42 -6.67,-0.69 -1.81,-0.14 -1.39,-0.69 -1.53,-2.36 -0.14,-3.75 0,-6.25 -0.42,-10.42l-0.28 -7.09zm-21.96 -5.14c-1.25,0.14 -1.81,0.42 -1.81,-1.11 0,-0.83 0,-1.95 0.42,-2.64l0.56 0c0.28,0.56 0.28,1.39 0.42,1.95 0.14,0.97 0.42,0.83 0.42,1.81z"/>
  </g>
 </g>
</svg>
