<?xml version="1.0" encoding="UTF-8"?>
<!DOCTYPE svg PUBLIC "-//W3C//DTD SVG 1.1//EN" "http://www.w3.org/Graphics/SVG/1.1/DTD/svg11.dtd">
<!-- Creator: CorelDRAW -->
<svg xmlns="http://www.w3.org/2000/svg" xml:space="preserve" width="2.7584in" height="1.03949in" version="1.1" style="shape-rendering:geometricPrecision; text-rendering:geometricPrecision; image-rendering:optimizeQuality; fill-rule:evenodd; clip-rule:evenodd"
viewBox="0 0 121.65 45.84"
 xmlns:xlink="http://www.w3.org/1999/xlink"
 xmlns:xodm="http://www.corel.com/coreldraw/odm/2003">
 <defs>
  <style type="text/css">
   <![CDATA[
    .fil0 {fill:white;fill-rule:nonzero}
   ]]>
  </style>
 </defs>
 <g id="Layer_x0020_1">
  <metadata id="CorelCorpID_0Corel-Layer"/>
  <path class="fil0" d="M10.63 10.56l0 -10.23c0,-0.1 0.05,-0.16 0.15,-0.16l3.92 0c1.09,0 1.9,0.25 2.46,0.75 0.55,0.5 0.83,1.19 0.83,2.05 0,1.05 -0.41,1.8 -1.22,2.23l0 0.03c0.37,0.14 0.7,0.43 0.98,0.84 0.28,0.42 0.43,0.93 0.43,1.53 0,1.03 -0.31,1.81 -0.94,2.32 -0.63,0.52 -1.52,0.78 -2.69,0.78l-3.77 0c-0.1,0 -0.15,-0.05 -0.15,-0.16zm1.92 -6l2.11 0c0.46,0 0.83,-0.13 1.1,-0.38 0.27,-0.25 0.4,-0.59 0.4,-1 0,-0.42 -0.13,-0.76 -0.4,-1.02 -0.27,-0.25 -0.64,-0.38 -1.1,-0.38l-2.11 0c-0.06,0 -0.09,0.03 -0.09,0.09l0 2.59c0,0.06 0.03,0.09 0.09,0.09zm-0.09 4.45c0,0.06 0.03,0.09 0.09,0.09l2.2 0c0.51,0 0.9,-0.13 1.18,-0.4 0.28,-0.27 0.42,-0.63 0.42,-1.07 0,-0.44 -0.14,-0.8 -0.42,-1.06 -0.28,-0.26 -0.67,-0.4 -1.18,-0.4l-2.2 0c-0.06,0 -0.09,0.03 -0.09,0.09l0 2.74zm7.58 1.55l0 -10.23c0,-0.1 0.05,-0.16 0.16,-0.16l1.52 0c0.1,0 0.16,0.05 0.16,0.16l0 8.65c0,0.06 0.03,0.09 0.09,0.09l4.84 0c0.1,0 0.15,0.05 0.15,0.15l0 1.33c0,0.1 -0.05,0.16 -0.15,0.16l-6.6 0c-0.1,0 -0.16,-0.05 -0.16,-0.16zm7.56 0l3.61 -10.23c0.03,-0.1 0.1,-0.16 0.2,-0.16l1.43 0c0.1,0 0.17,0.05 0.2,0.16l3.56 10.23c0.03,0.1 -0.01,0.16 -0.11,0.16l-1.52 0c-0.1,0 -0.17,-0.05 -0.2,-0.16l-0.7 -2.05 -3.97 0 -0.7 2.05c-0.03,0.1 -0.1,0.16 -0.2,0.16l-1.5 0c-0.1,0 -0.14,-0.05 -0.11,-0.16zm3.07 -3.67l2.85 0 -1.4 -4.09 -0.05 0 -1.41 4.09zm6.98 1.41c-0.19,-0.56 -0.28,-1.51 -0.28,-2.85 0,-1.34 0.09,-2.29 0.28,-2.85 0.27,-0.85 0.72,-1.49 1.35,-1.93 0.63,-0.44 1.4,-0.66 2.31,-0.66 0.84,0 1.56,0.2 2.18,0.6 0.61,0.4 1.08,0.95 1.39,1.67 0.03,0.09 0.01,0.16 -0.08,0.19l-1.32 0.64c-0.09,0.05 -0.16,0.03 -0.2,-0.08 -0.41,-0.91 -1.07,-1.36 -1.97,-1.36 -0.94,0 -1.57,0.46 -1.89,1.4 -0.12,0.38 -0.19,1.18 -0.19,2.4 0,1.22 0.06,2.02 0.19,2.4 0.32,0.93 0.95,1.39 1.89,1.39 0.9,0 1.56,-0.45 1.97,-1.36 0.04,-0.1 0.11,-0.13 0.2,-0.08l1.32 0.64c0.08,0.03 0.11,0.09 0.08,0.19 -0.31,0.71 -0.77,1.27 -1.39,1.67 -0.61,0.4 -1.34,0.6 -2.18,0.6 -0.91,0 -1.68,-0.22 -2.31,-0.66 -0.63,-0.44 -1.08,-1.08 -1.35,-1.93zm8.94 2.26l0 -10.23c0,-0.1 0.05,-0.16 0.15,-0.16l1.52 0c0.1,0 0.15,0.05 0.15,0.16l0 4.96 3.98 -4.99c0.07,-0.08 0.16,-0.12 0.25,-0.12l1.77 0c0.05,0 0.09,0.02 0.1,0.06 0.02,0.04 0,0.09 -0.04,0.14l-3.27 3.94 3.64 6.22c0.07,0.12 0.04,0.19 -0.11,0.19l-1.72 0c-0.1,0 -0.18,-0.04 -0.23,-0.12l-2.76 -4.87 -1.61 1.95 0 2.88c0,0.1 -0.05,0.16 -0.15,0.16l-1.52 0c-0.1,0 -0.15,-0.05 -0.15,-0.16zm21.81 0.16l-1.18 0c-0.09,0 -0.16,-0.05 -0.19,-0.16l-2.02 -7.21 -0.03 0 -2.03 7.21c-0.03,0.1 -0.09,0.16 -0.19,0.16l-1.16 0c-0.09,0 -0.16,-0.05 -0.19,-0.16l-2.59 -10.23c-0.02,-0.1 0.02,-0.16 0.12,-0.16l1.46 0c0.1,0 0.17,0.05 0.19,0.16l1.67 7.1 0.03 0 1.97 -7.1c0.03,-0.1 0.09,-0.16 0.19,-0.16l1.08 0c0.09,0 0.16,0.05 0.19,0.16l2.02 7.1 0.03 0 1.63 -7.1c0.01,-0.1 0.07,-0.16 0.19,-0.16l1.44 0c0.1,0 0.14,0.05 0.12,0.16l-2.57 10.23c-0.02,0.1 -0.08,0.16 -0.19,0.16zm7.77 0.17c-0.92,0 -1.7,-0.22 -2.35,-0.65 -0.65,-0.43 -1.1,-1.06 -1.37,-1.89 -0.19,-0.56 -0.28,-1.52 -0.28,-2.9 0,-1.37 0.09,-2.34 0.28,-2.9 0.27,-0.83 0.73,-1.46 1.37,-1.89 0.65,-0.43 1.43,-0.65 2.35,-0.65 0.93,0 1.72,0.22 2.36,0.65 0.65,0.43 1.1,1.06 1.37,1.89 0.19,0.56 0.28,1.52 0.28,2.9 0,1.37 -0.09,2.34 -0.28,2.9 -0.27,0.83 -0.73,1.46 -1.37,1.89 -0.65,0.43 -1.43,0.65 -2.36,0.65zm0 -1.64c0.99,0 1.65,-0.46 1.97,-1.38 0.12,-0.38 0.19,-1.19 0.19,-2.42 0,-1.22 -0.06,-2.03 -0.19,-2.42 -0.32,-0.92 -0.98,-1.38 -1.97,-1.38 -0.98,0 -1.63,0.46 -1.95,1.38 -0.12,0.39 -0.19,1.2 -0.19,2.42 0,1.23 0.06,2.04 0.19,2.42 0.32,0.92 0.97,1.38 1.95,1.38zm6.03 1.32l0 -10.23c0,-0.1 0.05,-0.16 0.16,-0.16l1.38 0c0.13,0 0.22,0.05 0.26,0.16l2.9 6.49 0.06 0 2.85 -6.49c0.04,-0.1 0.13,-0.16 0.26,-0.16l1.36 0c0.1,0 0.16,0.05 0.16,0.16l0 10.23c0,0.1 -0.05,0.16 -0.16,0.16l-1.35 0c-0.1,0 -0.16,-0.05 -0.16,-0.16l0 -6.45 -0.06 0 -2.23 4.96c-0.06,0.13 -0.16,0.2 -0.29,0.2l-0.9 0c-0.13,0 -0.23,-0.07 -0.29,-0.2l-2.23 -4.96 -0.06 0 0 6.45c0,0.1 -0.05,0.16 -0.16,0.16l-1.35 0c-0.1,0 -0.16,-0.05 -0.16,-0.16zm11.72 0l0 -10.23c0,-0.1 0.05,-0.16 0.15,-0.16l6.6 0c0.1,0 0.16,0.05 0.16,0.16l0 1.33c0,0.1 -0.05,0.15 -0.16,0.15l-4.84 0c-0.06,0 -0.09,0.03 -0.09,0.09l0 2.57c0,0.06 0.03,0.09 0.09,0.09l4.08 0c0.1,0 0.15,0.05 0.15,0.16l0 1.33c0,0.1 -0.05,0.15 -0.15,0.15l-4.08 0c-0.06,0 -0.09,0.03 -0.09,0.09l0 2.67c0,0.06 0.03,0.09 0.09,0.09l4.84 0c0.1,0 0.16,0.05 0.16,0.15l0 1.33c0,0.1 -0.05,0.16 -0.16,0.16l-6.6 0c-0.1,0 -0.15,-0.05 -0.15,-0.16zm8.84 0l0 -10.23c0,-0.1 0.05,-0.16 0.15,-0.16l1.43 0c0.11,0 0.2,0.05 0.26,0.16l4.29 7.27 0.06 0 0 -7.27c0,-0.1 0.05,-0.16 0.16,-0.16l1.35 0c0.1,0 0.15,0.05 0.15,0.16l0 10.23c0,0.1 -0.05,0.16 -0.15,0.16l-1.41 0c-0.11,0 -0.2,-0.05 -0.26,-0.16l-4.31 -7.25 -0.06 0 0 7.25c0,0.1 -0.05,0.16 -0.16,0.16l-1.35 0c-0.1,0 -0.15,-0.05 -0.15,-0.16zm-54.97 17.48l0 -10.23c0,-0.1 0.05,-0.15 0.16,-0.15l6.6 0c0.1,0 0.15,0.05 0.15,0.15l0 1.33c0,0.1 -0.05,0.15 -0.15,0.15l-4.84 0c-0.06,0 -0.09,0.03 -0.09,0.09l0 2.68c0,0.06 0.03,0.09 0.09,0.09l4.08 0c0.1,0 0.16,0.05 0.16,0.15l0 1.33c0,0.1 -0.05,0.16 -0.16,0.16l-4.08 0c-0.06,0 -0.09,0.03 -0.09,0.09l0 4.14c0,0.1 -0.05,0.16 -0.16,0.16l-1.52 0c-0.1,0 -0.16,-0.05 -0.16,-0.16zm12.38 0.33c-0.92,0 -1.7,-0.22 -2.35,-0.65 -0.65,-0.43 -1.1,-1.06 -1.37,-1.89 -0.19,-0.56 -0.28,-1.52 -0.28,-2.9 0,-1.37 0.09,-2.34 0.28,-2.9 0.27,-0.83 0.73,-1.46 1.37,-1.89 0.65,-0.43 1.43,-0.65 2.35,-0.65 0.93,0 1.72,0.22 2.36,0.65 0.65,0.43 1.1,1.06 1.37,1.89 0.19,0.56 0.28,1.52 0.28,2.9 0,1.37 -0.09,2.34 -0.28,2.9 -0.27,0.83 -0.73,1.46 -1.37,1.89 -0.65,0.43 -1.43,0.65 -2.36,0.65zm0 -1.64c0.99,0 1.65,-0.46 1.97,-1.38 0.12,-0.38 0.19,-1.19 0.19,-2.42 0,-1.22 -0.06,-2.03 -0.19,-2.42 -0.32,-0.92 -0.98,-1.38 -1.97,-1.38 -0.98,0 -1.63,0.46 -1.95,1.38 -0.12,0.39 -0.19,1.2 -0.19,2.42 0,1.23 0.06,2.04 0.19,2.42 0.32,0.92 0.97,1.38 1.95,1.38zm13.73 1.47l-1.72 0c-0.11,0 -0.19,-0.05 -0.23,-0.16l-2.02 -4.11 -1.81 0c-0.06,0 -0.09,0.03 -0.09,0.09l0 4.01c0,0.1 -0.05,0.16 -0.16,0.16l-1.52 0c-0.1,0 -0.16,-0.05 -0.16,-0.16l0 -10.23c0,-0.1 0.05,-0.15 0.16,-0.15l4.08 0c0.97,0 1.77,0.29 2.41,0.88 0.64,0.59 0.95,1.34 0.95,2.26 0,0.68 -0.18,1.28 -0.54,1.79 -0.36,0.51 -0.85,0.88 -1.46,1.11l2.22 4.29c0.03,0.05 0.03,0.1 0.01,0.14 -0.03,0.04 -0.06,0.06 -0.12,0.06zm-3.53 -5.91c0.49,0 0.88,-0.14 1.17,-0.41 0.29,-0.27 0.44,-0.63 0.44,-1.08 0,-0.45 -0.15,-0.82 -0.44,-1.09 -0.29,-0.27 -0.68,-0.41 -1.17,-0.41l-2.25 0c-0.06,0 -0.09,0.03 -0.09,0.09l0 2.81c0,0.06 0.03,0.09 0.09,0.09l2.25 0zm-68.69 23.39l-1.52 0c-0.1,0 -0.16,-0.05 -0.16,-0.16l0 -10.23c0,-0.1 0.05,-0.15 0.16,-0.15l3.95 0c1.02,0 1.86,0.3 2.5,0.91 0.65,0.6 0.97,1.39 0.97,2.36 0,0.98 -0.32,1.77 -0.97,2.38 -0.65,0.6 -1.48,0.91 -2.5,0.91l-2.19 0c-0.06,0 -0.09,0.03 -0.09,0.09l0 3.74c0,0.1 -0.05,0.16 -0.16,0.16zm2.33 -5.64c0.54,0 0.96,-0.15 1.28,-0.44 0.32,-0.29 0.47,-0.69 0.47,-1.19 0,-0.49 -0.16,-0.88 -0.47,-1.18 -0.32,-0.3 -0.74,-0.45 -1.28,-0.45l-2.08 0c-0.06,0 -0.09,0.03 -0.09,0.09l0 3.07c0,0.06 0.03,0.09 0.09,0.09l2.08 0zm8.96 5.81c-0.92,0 -1.7,-0.22 -2.35,-0.65 -0.65,-0.43 -1.1,-1.06 -1.37,-1.89 -0.19,-0.56 -0.28,-1.52 -0.28,-2.9 0,-1.37 0.09,-2.34 0.28,-2.9 0.27,-0.83 0.73,-1.46 1.37,-1.89 0.65,-0.43 1.43,-0.65 2.35,-0.65 0.93,0 1.72,0.22 2.36,0.65 0.65,0.43 1.1,1.06 1.37,1.89 0.19,0.56 0.28,1.52 0.28,2.9 0,1.37 -0.09,2.34 -0.28,2.9 -0.27,0.83 -0.73,1.46 -1.37,1.89 -0.65,0.43 -1.43,0.65 -2.36,0.65zm0 -1.64c0.99,0 1.65,-0.46 1.97,-1.38 0.12,-0.38 0.19,-1.19 0.19,-2.42 0,-1.22 -0.06,-2.03 -0.19,-2.42 -0.32,-0.92 -0.98,-1.38 -1.97,-1.38 -0.98,0 -1.63,0.46 -1.95,1.38 -0.12,0.39 -0.19,1.2 -0.19,2.42 0,1.23 0.06,2.04 0.19,2.42 0.32,0.92 0.97,1.38 1.95,1.38zm9.35 1.64c-0.75,0 -1.48,-0.13 -2.19,-0.4 -0.7,-0.26 -1.27,-0.6 -1.69,-1 -0.08,-0.08 -0.09,-0.16 -0.03,-0.23l0.96 -1.12c0.07,-0.08 0.14,-0.09 0.22,-0.02 0.94,0.74 1.9,1.12 2.87,1.12 0.62,0 1.11,-0.14 1.46,-0.42 0.35,-0.28 0.53,-0.65 0.53,-1.1 0,-0.4 -0.14,-0.72 -0.43,-0.96 -0.29,-0.24 -0.79,-0.4 -1.49,-0.5l-0.56 -0.08c-2.12,-0.29 -3.18,-1.29 -3.18,-3.01 0,-0.96 0.32,-1.73 0.97,-2.31 0.65,-0.58 1.51,-0.87 2.6,-0.87 1.34,0 2.48,0.35 3.41,1.05 0.07,0.06 0.08,0.13 0.03,0.22l-0.74 1.15c-0.06,0.08 -0.13,0.1 -0.22,0.05 -0.84,-0.55 -1.68,-0.82 -2.53,-0.82 -0.53,0 -0.94,0.13 -1.22,0.39 -0.29,0.26 -0.43,0.6 -0.43,1.02 0,0.76 0.65,1.24 1.94,1.43l0.56 0.08c2.1,0.29 3.15,1.31 3.15,3.05 0,0.97 -0.34,1.76 -1.03,2.36 -0.69,0.6 -1.67,0.91 -2.94,0.91zm5.78 -0.33l0 -10.23c0,-0.1 0.05,-0.15 0.15,-0.15l1.52 0c0.1,0 0.15,0.05 0.15,0.15l0 10.23c0,0.1 -0.05,0.16 -0.15,0.16l-1.52 0c-0.1,0 -0.15,-0.05 -0.15,-0.16zm8.01 0.16l-1.52 0c-0.1,0 -0.16,-0.05 -0.16,-0.16l0 -8.65c0,-0.06 -0.03,-0.09 -0.09,-0.09l-2.76 0c-0.1,0 -0.16,-0.05 -0.16,-0.15l0 -1.33c0,-0.1 0.05,-0.15 0.16,-0.15l7.53 0c0.1,0 0.16,0.05 0.16,0.15l0 1.33c0,0.1 -0.05,0.15 -0.16,0.15l-2.76 0c-0.06,0 -0.09,0.03 -0.09,0.09l0 8.65c0,0.1 -0.05,0.16 -0.16,0.16zm4.67 -0.16l0 -10.23c0,-0.1 0.05,-0.15 0.15,-0.15l1.52 0c0.1,0 0.15,0.05 0.15,0.15l0 10.23c0,0.1 -0.05,0.16 -0.15,0.16l-1.52 0c-0.1,0 -0.15,-0.05 -0.15,-0.16zm8 0.16l-1.27 0c-0.09,0 -0.15,-0.05 -0.19,-0.16l-3.33 -10.23c-0.03,-0.1 0.01,-0.15 0.12,-0.15l1.5 0c0.1,0 0.17,0.05 0.2,0.15l2.36 7.47 0.05 0 2.26 -7.47c0.03,-0.1 0.1,-0.15 0.2,-0.15l1.5 0c0.11,0 0.15,0.05 0.12,0.15l-3.35 10.23c-0.03,0.1 -0.09,0.16 -0.19,0.16zm4.91 -0.16l0 -10.23c0,-0.1 0.05,-0.15 0.16,-0.15l6.6 0c0.1,0 0.15,0.05 0.15,0.15l0 1.33c0,0.1 -0.05,0.15 -0.15,0.15l-4.84 0c-0.06,0 -0.09,0.03 -0.09,0.09l0 2.57c0,0.06 0.03,0.09 0.09,0.09l4.08 0c0.1,0 0.16,0.05 0.16,0.15l0 1.33c0,0.1 -0.05,0.16 -0.16,0.16l-4.08 0c-0.06,0 -0.09,0.03 -0.09,0.09l0 2.67c0,0.06 0.03,0.09 0.09,0.09l4.84 0c0.1,0 0.15,0.05 0.15,0.15l0 1.33c0,0.1 -0.05,0.16 -0.15,0.16l-6.6 0c-0.1,0 -0.16,-0.05 -0.16,-0.16zm12.46 -2.26c-0.19,-0.56 -0.28,-1.51 -0.28,-2.85 0,-1.34 0.09,-2.29 0.28,-2.85 0.27,-0.85 0.72,-1.49 1.35,-1.93 0.63,-0.44 1.4,-0.66 2.31,-0.66 0.84,0 1.56,0.2 2.18,0.6 0.61,0.4 1.08,0.95 1.39,1.67 0.03,0.09 0.01,0.16 -0.08,0.19l-1.32 0.64c-0.09,0.05 -0.16,0.03 -0.2,-0.08 -0.41,-0.91 -1.07,-1.36 -1.97,-1.36 -0.94,0 -1.57,0.46 -1.89,1.39 -0.12,0.38 -0.19,1.18 -0.19,2.4 0,1.22 0.06,2.02 0.19,2.4 0.32,0.93 0.95,1.4 1.89,1.4 0.9,0 1.56,-0.45 1.97,-1.36 0.04,-0.1 0.11,-0.13 0.2,-0.08l1.32 0.64c0.08,0.03 0.11,0.09 0.08,0.19 -0.31,0.71 -0.77,1.27 -1.39,1.67 -0.61,0.4 -1.34,0.6 -2.18,0.6 -0.91,0 -1.68,-0.22 -2.31,-0.66 -0.63,-0.44 -1.08,-1.08 -1.35,-1.93zm8.94 2.26l0 -10.23c0,-0.1 0.05,-0.15 0.16,-0.15l1.52 0c0.1,0 0.16,0.05 0.16,0.15l0 4.15c0,0.06 0.03,0.09 0.09,0.09l4.01 0c0.06,0 0.09,-0.03 0.09,-0.09l0 -4.15c0,-0.1 0.05,-0.15 0.15,-0.15l1.52 0c0.1,0 0.15,0.05 0.15,0.15l0 10.23c0,0.1 -0.05,0.16 -0.15,0.16l-1.52 0c-0.1,0 -0.15,-0.05 -0.15,-0.16l0 -4.25c0,-0.06 -0.03,-0.09 -0.09,-0.09l-4.01 0c-0.06,0 -0.09,0.03 -0.09,0.09l0 4.25c0,0.1 -0.05,0.16 -0.16,0.16l-1.52 0c-0.1,0 -0.16,-0.05 -0.16,-0.16zm9.3 0l3.61 -10.23c0.03,-0.1 0.1,-0.15 0.2,-0.15l1.43 0c0.1,0 0.17,0.05 0.2,0.15l3.56 10.23c0.03,0.1 -0.01,0.16 -0.11,0.16l-1.52 0c-0.1,0 -0.17,-0.05 -0.2,-0.16l-0.7 -2.05 -3.97 0 -0.7 2.05c-0.03,0.1 -0.1,0.16 -0.2,0.16l-1.5 0c-0.1,0 -0.14,-0.05 -0.11,-0.16zm3.07 -3.67l2.85 0 -1.4 -4.09 -0.05 0 -1.41 4.09zm7.38 3.67l0 -10.23c0,-0.1 0.05,-0.15 0.16,-0.15l1.43 0c0.11,0 0.2,0.05 0.26,0.15l4.29 7.27 0.06 0 0 -7.27c0,-0.1 0.05,-0.15 0.16,-0.15l1.35 0c0.1,0 0.15,0.05 0.15,0.15l0 10.23c0,0.1 -0.05,0.16 -0.15,0.16l-1.41 0c-0.11,0 -0.2,-0.05 -0.26,-0.16l-4.31 -7.25 -0.06 0 0 7.25c0,0.1 -0.05,0.16 -0.16,0.16l-1.35 0c-0.1,0 -0.16,-0.05 -0.16,-0.16zm10.15 -2.22c-0.19,-0.56 -0.28,-1.52 -0.28,-2.9 0,-1.37 0.09,-2.34 0.28,-2.9 0.27,-0.83 0.73,-1.46 1.38,-1.89 0.65,-0.43 1.45,-0.65 2.39,-0.65 0.93,0 1.72,0.21 2.36,0.64 0.64,0.43 1.08,0.96 1.32,1.59 0.04,0.09 0.02,0.17 -0.06,0.22l-1.3 0.57c-0.09,0.03 -0.16,0.01 -0.2,-0.08 -0.49,-0.87 -1.19,-1.3 -2.12,-1.3 -1,0 -1.66,0.46 -1.98,1.38 -0.12,0.39 -0.19,1.2 -0.19,2.42 0,1.23 0.06,2.04 0.19,2.42 0.32,0.92 0.98,1.38 1.98,1.38 0.48,0 0.89,-0.12 1.26,-0.35 0.36,-0.23 0.61,-0.56 0.74,-0.97 0.11,-0.34 0.17,-0.8 0.17,-1.36 0,-0.06 -0.03,-0.09 -0.09,-0.09l-1.74 0c-0.1,0 -0.16,-0.05 -0.16,-0.15l0 -1.24c0,-0.1 0.05,-0.16 0.16,-0.16l3.49 0c0.1,0 0.15,0.05 0.15,0.16l0 0.91c0,1.03 -0.08,1.8 -0.25,2.31 -0.26,0.82 -0.72,1.45 -1.37,1.91 -0.66,0.45 -1.44,0.68 -2.35,0.68 -0.94,0 -1.74,-0.22 -2.39,-0.65 -0.65,-0.43 -1.11,-1.06 -1.38,-1.89zm9.75 2.22l0 -10.23c0,-0.1 0.05,-0.15 0.16,-0.15l6.6 0c0.1,0 0.16,0.05 0.16,0.15l0 1.33c0,0.1 -0.05,0.15 -0.16,0.15l-4.84 0c-0.06,0 -0.09,0.03 -0.09,0.09l0 2.57c0,0.06 0.03,0.09 0.09,0.09l4.08 0c0.1,0 0.16,0.05 0.16,0.15l0 1.33c0,0.1 -0.05,0.16 -0.16,0.16l-4.08 0c-0.06,0 -0.09,0.03 -0.09,0.09l0 2.67c0,0.06 0.03,0.09 0.09,0.09l4.84 0c0.1,0 0.16,0.05 0.16,0.15l0 1.33c0,0.1 -0.05,0.16 -0.16,0.16l-6.6 0c-0.1,0 -0.16,-0.05 -0.16,-0.16z"/>
 </g>
</svg>
