<?xml version="1.0" encoding="UTF-8"?>
<!DOCTYPE svg PUBLIC "-//W3C//DTD SVG 1.1//EN" "http://www.w3.org/Graphics/SVG/1.1/DTD/svg11.dtd">
<!-- Creator: CorelDRAW -->
<svg xmlns="http://www.w3.org/2000/svg" xml:space="preserve" width="1.68239in" height="0.925591in" version="1.1" style="shape-rendering:geometricPrecision; text-rendering:geometricPrecision; image-rendering:optimizeQuality; fill-rule:evenodd; clip-rule:evenodd"
viewBox="0 0 46.12 25.37"
 xmlns:xlink="http://www.w3.org/1999/xlink"
 xmlns:xodm="http://www.corel.com/coreldraw/odm/2003">
 <defs>
  <style type="text/css">
   <![CDATA[
    .fil0 {fill:white}
   ]]>
  </style>
 </defs>
 <g id="Layer_x0020_1">
  <metadata id="CorelCorpID_0Corel-Layer"/>
  <g id="_2243934524480">
   <path class="fil0" d="M18.2 9.8l-18.2 0 0 5.78 18.2 0 0 9.8 7.15 0 0 -11.29c0.31,0.21 0.95,0.78 1.27,1.05l0.65 0.53c0.08,0.06 0.12,0.11 0.21,0.18l1.7 1.41c0.71,0.58 1.4,1.19 2.12,1.76 0.15,0.12 0.28,0.23 0.42,0.35l0.44 0.35c0.28,-0.18 0.52,-0.4 0.77,-0.62 0.09,-0.08 0.2,-0.13 0.24,-0.25 -0.1,-0.03 -0.7,-0.53 -0.79,-0.6 -0.08,-0.06 -1.86,-1.44 -1.92,-1.55 -0.15,-0.28 0.03,-0.57 0.33,-0.59 0.24,-0.01 0.46,0.26 0.64,0.39 0.67,0.5 1.29,1.05 1.95,1.54 0.14,0.11 0.26,0.22 0.4,0.32 0.11,-0.03 0.15,-0.09 0.23,-0.16 0.11,-0.09 0.53,-0.48 0.65,-0.51l0 -0.08c-0.12,-0.03 -0.29,-0.2 -0.39,-0.28l-2.24 -1.77c-0.14,-0.1 -0.28,-0.18 -0.28,-0.41 0,-0.33 0.37,-0.49 0.62,-0.31l2.14 1.69c0.13,0.11 0.25,0.2 0.39,0.31 0.07,0.06 0.11,0.09 0.19,0.15 0.08,0.06 0.14,0.09 0.19,0.17 0.06,-0.04 0.14,-0.12 0.21,-0.17 0.17,-0.13 0.53,-0.39 0.63,-0.55 -0.06,-0.04 -0.14,-0.11 -0.2,-0.16l-1.89 -1.5c-0.08,-0.06 -0.13,-0.1 -0.2,-0.16 -0.08,-0.06 -0.13,-0.11 -0.22,-0.17 -0.62,-0.46 -0.16,-0.82 0.07,-0.82 0.26,0 0.62,0.38 0.83,0.53 0.35,0.26 2.08,1.71 2.25,1.76 0.25,-0.17 0.58,-0.46 0.8,-0.66 0.07,-0.06 0.23,-0.18 0.28,-0.24 -0.09,-0.14 -1.01,-0.81 -1.24,-0.97l-1.78 -1.36c-0.34,-0.25 -0.67,-0.54 -1.02,-0.78 -0.06,0.02 -0.2,0.11 -0.26,0.15 -0.71,0.45 -1.29,0.9 -2.18,0.9 -0.24,0 -0.47,-0.04 -0.68,-0.07 -0.57,-0.08 -1.1,-0.11 -1.65,-0.2 -0.25,-0.04 -0.28,-0.26 -0.1,-0.41l2.3 -1.76c0.08,-0.06 0.31,-0.22 0.36,-0.29 -0.05,-0.07 -0.12,-0.11 -0.19,-0.17l-2.91 -2.23c-0.08,-0.06 -0.14,-0.1 -0.22,-0.17 -0.14,-0.11 -0.27,-0.2 -0.41,-0.31l-5.03 -3.84c-0.15,-0.11 -0.27,-0.21 -0.42,-0.32l-2.1 -1.6c-0.26,-0.21 -2.02,-1.57 -2.11,-1.59l0 9.8z"/>
   <path class="fil0" d="M30.46 12.01c0,0.21 0.13,0.21 0.34,0.23 0.59,0.06 0.96,0.13 1.57,-0.22l1.61 -1.04 1.67 1.31c0.19,0.15 0.37,0.29 0.56,0.44l1.11 0.87c0.31,0.23 0.85,0.69 1.13,0.88 0.15,-0.03 0.38,-0.29 0.51,-0.39l0 11.29 7.15 0 0 -25.37c-0.1,0.03 -2.75,2.07 -2.94,2.23l-0.99 0.76c-0.33,0.25 -0.65,0.5 -0.98,0.75l-7.35 5.61c-0.17,0.13 -0.33,0.25 -0.49,0.38l-2.7 2.06c-0.06,0.05 -0.21,0.14 -0.21,0.22z"/>
   <path class="fil0" d="M-0 25.37l16.22 0 0 -5.76 -14.09 0c-0.08,0 -0.08,0.06 -0.1,0.13l-1.45 3.98c-0.03,0.07 -0.03,0.12 -0.06,0.19 -0.05,0.12 -0.09,0.25 -0.13,0.36l-0.26 0.72c-0.04,0.13 -0.1,0.24 -0.13,0.38z"/>
   <path class="fil0" d="M2.13 5.76l14.09 0 0 -5.76 -16.22 0c0.06,0.24 0.47,1.28 0.57,1.61l1 2.73c0.02,0.08 0.03,0.1 0.06,0.17 0.04,0.08 0.04,0.12 0.06,0.19l0.26 0.71c0.05,0.15 0.08,0.34 0.18,0.34z"/>
  </g>
 </g>
</svg>
