<?xml version="1.0" encoding="UTF-8"?>
<!DOCTYPE svg PUBLIC "-//W3C//DTD SVG 1.1//EN" "http://www.w3.org/Graphics/SVG/1.1/DTD/svg11.dtd">
<!-- Creator: CorelDRAW -->
<svg xmlns="http://www.w3.org/2000/svg" xml:space="preserve" width="1.5521in" height="1.59168in" version="1.1" style="shape-rendering:geometricPrecision; text-rendering:geometricPrecision; image-rendering:optimizeQuality; fill-rule:evenodd; clip-rule:evenodd"
viewBox="0 0 53.79 55.16"
 xmlns:xlink="http://www.w3.org/1999/xlink"
 xmlns:xodm="http://www.corel.com/coreldraw/odm/2003">
 <defs>
  <style type="text/css">
   <![CDATA[
    .fil0 {fill:white}
   ]]>
  </style>
 </defs>
 <g id="Layer_x0020_1">
  <metadata id="CorelCorpID_0Corel-Layer"/>
  <path class="fil0" d="M29.08 14.97c0,0.57 0.17,0.29 0.39,0.64 0.11,0.17 0.09,0.44 -0.01,0.55 -0.01,0.01 -0.54,0.23 -0.39,0.81 0.09,0.32 0.1,-0.11 0.14,0.35 -0.46,0.32 -0.29,0.07 -0.73,0.41 -0.34,0.27 -0.23,-0.09 -0.42,0.09 -0.09,0.09 -0.04,0.14 -0.12,0.25 -0.12,0.18 -0.15,0.03 -0.34,0.02 -0.21,-0.01 -0.09,-0.03 -0.21,0.04 0.24,0.32 0.44,0.29 0.87,0.03 0.34,0.36 0.19,0.41 0.69,0.05 0.69,-0.5 0.67,-0.11 0.88,-0.05l0.29 -0.26c0.09,-0.06 -0.01,0.04 0.13,-0.08 -0.08,-0.43 -0.21,-0.66 0.12,-1 0.44,-0 0.14,0.11 0.59,0.23 -0,-0.86 -0.37,-0.44 -0.63,-0.43 0,-0.34 0.18,-0.27 0.31,-0.41 0.11,-0.12 -0.06,-0.01 0.13,-0.16 0.32,-0.26 0.6,-0.09 0.99,-0.09l0.23 -0.24c0.01,-0.01 0.03,-0.02 0.04,-0.04 -0.02,-0.01 -0.04,-0.05 -0.05,-0.03 -0.01,0.01 -0.03,-0.03 -0.04,-0.03 -0.01,-0.01 -0.07,-0.05 -0.08,-0.05 -0.21,-0.11 -0.5,-0.06 -0.73,0.02 -0.61,0.2 -0.27,0.26 -0.77,0.03 -0.57,-0.27 -0.2,-0.17 -0.39,-0.81 -0.13,-0.41 -0.13,-0.45 -0,-0.95 0.1,-0.06 0.06,-0.02 0.2,-0.06 0.23,-0.08 0.39,-0.29 0.46,-0.55 0.1,-0.39 -0.66,-0.42 -0.75,-0.02 -0.13,0.63 0.17,0.39 -0.34,0.91 -0.27,0.28 -0.47,0.32 -0.47,0.86zm5.82 6.81c-0.04,0.15 0.07,0.06 -0.31,0.2 -0.12,0.04 -0.23,0.12 -0.39,0.18 -0.11,-0.07 -0.05,-0.03 -0.13,-0.12 -0.21,-0.21 -0.17,-0.17 -0.21,-0.36l-0.02 -0.1c-0,-0.01 -0,-0.04 -0.01,-0.05 -0.22,-0.03 -0.22,-0.12 -0.54,-0.17 -0.06,0.18 -0.14,0.27 -0.24,0.47l-0.25 0.5c-0.15,0.61 -0.3,0.46 0.09,0.99 0.74,0.09 0.61,0.07 0.82,-0.09 0.24,-0.17 0.59,-0.23 0.89,-0.17 0.35,0.07 0.44,0.2 0.77,0.31 0.18,0.06 0.8,0.06 0.98,0.01 0.43,-0.33 -0.61,-1.01 -0.87,-1.19 -0.3,-0.2 -0.27,-0.03 -0.47,-0.3 0.03,-0.29 0.06,-0.05 0.16,-0.39 0.05,-0.18 0.03,-0.23 0.1,-0.4 -0.35,-0.01 -0.2,0.01 -0.41,0.12 -0.97,0.51 -0.38,0.38 0.04,0.54zm-11.74 3.94l0.12 -0.18c0,0 0.68,0.28 1.08,0.21 0.25,-0.04 0.56,-0.6 1.7,-0.64 0.33,-0.01 0.76,-0.01 1.07,-0.05 0.56,-0.06 0.31,-0.22 0.87,0.07 -0.21,0.51 -0.06,0.17 0,0.51 0.08,0.45 -0.13,0.02 -0.25,0.61 0.24,0.05 0.19,0.01 0.38,0.12 0.52,0.28 0.89,0.02 1.15,0.37 0.12,0.17 0.01,0.19 0.21,0.29 0.08,0.04 0.25,0.05 0.39,0.11 0.33,0.13 0.31,0.33 0.67,0.26 0.18,-0.33 -0.29,-0.74 0.37,-0.89 0.3,-0.07 0.43,-0 0.62,0.1 0.29,0.17 1.48,0.51 1.75,0.49 0.24,-0.02 0.24,-0.17 0.64,-0.13 1.07,0.1 0.57,0.27 1.03,-0.7 0.23,-0.48 0.13,-0.56 0.13,-1.1 -0.56,-0.06 -0.26,0.04 -0.66,0.19 -0.37,0.14 -0.38,-0.14 -0.57,-0.19 -0.41,-0.04 -0.2,0.08 -0.5,0.17 -0.08,0.03 -0.63,-0.13 -0.87,-0.5 -0.01,-0.01 -0.02,-0.03 -0.02,-0.04l-0.25 -0.26 0.18 -0.08 -0.22 -0.24c0.06,-0.29 0.07,-0.38 -0.04,-0.61 -0.67,-0.17 -0.31,0.15 -0.86,0.29 -0.01,0 -0.04,0 -0.05,0.01 0.39,0.76 0.4,0.21 0.57,0.76l-0.33 0.13 -0.05 0.4c-0.55,-0.03 -0.24,-0.11 -0.58,-0.41l-0.19 -0.14c0.03,-0.22 0.29,0.09 -0.01,-0.33 -0.16,-0.22 -0.16,-0.06 -0.29,-0.42 -0.16,-0.42 -0.04,-0.75 -0.4,-0.99 -0.31,-0.21 -0.63,-0.26 -0.83,-0.49 -0.49,-0.55 0.07,0.05 -0.54,-0.47 -0.16,-0.14 -0.01,-0.14 -0.28,-0.12 -0.24,0.39 0.19,0.68 0.45,0.91 0.23,0.2 0.04,0.09 0.23,0.3 0.01,0.01 0.02,0.02 0.03,0.03l0.88 0.52c0.01,0.01 0.1,0.15 0.11,0.15l-0 0.09c-0,0.01 -0.01,0.04 -0.02,0.05 -0,0.01 -0.01,0.03 -0.02,0.05 -0.21,-0.08 -0.07,-0.07 -0.38,-0.15 0.01,0.42 0.2,0.49 -0.08,0.8 -0.41,0.46 -0.15,-0 -0.39,0.6 -0.17,-0.03 -0.68,-0.33 -0.79,-0.45 0.22,-0.15 0.37,-0.07 0.74,-0.15 0.74,-0.14 -0.01,-0.83 -0.29,-1.03 -0.34,-0.24 -0.34,-0.01 -0.64,-0.43 -0.11,-0.15 -0.11,-0.15 -0.25,-0.26 -0.25,-0.2 -0.29,-0.54 -0.53,-0.6 -0.36,0.04 -0.52,0.29 -0.75,0.44 -0.23,0.15 -0.3,-0.24 -0.81,-0.06 -0.15,0.29 -0.04,0.37 -0.16,0.61 -0.12,0.26 -0.2,0.12 -0.44,0.3 -0.5,0.39 -0.24,0.7 -0.39,1 -0.23,0.46 -0.36,0.52 -0.92,0.57 -0.59,0.05 -0.57,0.59 -0.89,-0.13 -0.33,0.01 -0.3,0.06 -0.61,-0.05l-0.05 -0.45c-0.12,-0.31 -0.09,-0.28 0.03,-0.61 0.18,-0.47 0.02,-0.81 0.01,-1.19 0.33,-0.27 0.56,-0.24 0.94,-0.2 0.8,0.07 1.16,0.38 1.25,-0.55 0.04,-0.36 0.03,-0.29 -0.14,-0.55 -0.14,-0.21 -0.1,-0.26 -0.27,-0.36 -0.18,-0.11 -0.31,-0.04 -0.47,-0.23 0.06,-0.37 0.37,-0.25 0.7,-0.26l0.06 -0.33c0.2,0.02 0.44,0.12 0.78,-0.22 0.1,-0.1 0.15,-0.25 0.23,-0.34 0.08,-0.09 0.2,-0.16 0.29,-0.27 0.21,-0.26 0.08,-0.45 0.43,-0.65 0.34,-0.2 0.55,-0.17 0.89,-0.21 0.04,-0.67 -0.44,-1.04 0.04,-1.43 0.13,-0.1 0.25,-0.22 0.38,-0.2 0.07,0.21 -0.02,0.19 0.01,0.35l0.02 0.21c-0.03,0.14 -0.02,-0.14 -0.04,0.12 -0.02,0.25 -0.01,0.07 0.08,0.3l0.16 -0.36c-0.05,0.06 -0.17,0.04 0.06,0.05 0.1,0 0.18,-0.03 0.25,-0.05 0.04,-0.38 -0.11,-0.37 -0.25,-0.69 -0.1,-0.23 -0.14,-0.51 -0.2,-0.73 -0.54,0.12 -0.42,0.33 -0.66,0.49 -0.29,0.2 -0.51,-0.07 -0.7,-0.15l-0.02 -0.41c-0,-0.01 -0.01,-0.03 -0.01,-0.04 -0,-0.01 -0,-0.03 -0,-0.04 -0.01,-0.83 -0.22,-0.12 -0.12,-1.23 0.08,-0.03 0.13,-0.04 0.2,-0.1l0.38 -0.31c0.1,-0.05 0.04,-0 0.12,-0.07l0.21 -0.22c0.2,-0.13 -0.02,0.14 0.18,-0.15 0.16,-0.24 0.51,-0.61 0.57,-0.9 0.1,-0.55 0.32,-0.57 0.46,-0.98 0.11,-0.33 0.14,-0.21 0.29,-0.45l-0.42 0.04c0.13,-0.28 -0.1,-0.37 0.28,-0.49l-0.02 0.2 0.3 -0.01c-0.03,-0.17 -0.07,-0.05 -0.1,-0.34 0.34,-0.14 0.27,-0.07 0.44,-0.33 0.18,0.19 -0.02,0.13 0.25,0.09 0.12,-0.26 -0.06,-0.03 0.27,-0.29l0.09 -0.09c0.01,-0.01 0.02,-0.02 0.03,-0.03l0.17 -0.09c0.07,-0.03 0.07,-0.01 0.19,-0.07 0.18,-0.09 0.14,-0.11 0.34,-0.18 0.05,0.08 0.12,0.18 0.17,0.25 0.14,-0.17 0.03,-0.15 0.25,-0.25 0.21,0.11 0.03,0.16 0.3,0.18 0.21,0.01 0.38,0.12 0.49,0.23l-0.32 0.32c0.35,0.02 0.32,-0.03 0.6,-0.06 0.29,0.24 -0.02,0.24 0.45,0.25 0.47,0.01 0.72,0.3 1.06,0.48 0.29,0.15 0.83,0.32 0.77,0.8 -0.11,0.86 -1.3,0.22 -1.71,0.17 0.17,0.34 0.12,0.14 0.31,0.35 0.22,0.24 0.07,0.56 0.44,0.84 0.22,0.16 0.26,0.23 0.51,0.17 -0.1,-0.32 -0.47,-0.2 -0.32,-0.59 0.16,0.02 0.18,0.06 0.34,0.14l0.36 0.08c0.02,0 0.04,-0 0.06,-0.01 0.02,-0.46 -0.04,-0.04 -0.16,-0.47l0.33 -0.5 0.53 0.09c-0.03,-0.41 -0.38,-1.08 -0.44,-1.27 0.48,0.07 0.45,-0.08 0.72,0.32 -0.07,0.38 -0.03,-0.06 -0.14,0.24 -0.01,0.04 -0.16,0.14 0.09,0.29 0.31,0.18 0.37,-0.09 0.48,-0.32 0.14,-0.29 0.68,-0.72 0.95,-0.77l0.19 0.31c0.16,-0.12 0.15,-0.13 0.34,-0.2 0.19,-0.07 0.26,-0.09 0.45,-0.18 0.13,0.05 0.11,0.15 0.28,0.16 0.17,-0.2 0.15,-0.05 0.07,-0.3 -0.05,-0.15 -0.12,-0.2 -0.24,-0.28 -0.32,-0.2 -0.27,-0.13 -0.51,-0.38 0.18,-0.26 0.25,0.01 0.49,0.14 0.23,0.13 0.42,0.01 1.06,0.34l0.59 0.29c0.29,0.17 0.04,0.12 0.4,0.17 -0.02,-0.1 -0,-0.05 -0.04,-0.13 -0.01,-0.01 -0.01,-0.04 -0.02,-0.06 -0.23,-0.47 -0.56,-0.19 -0.73,-0.78 -0.11,-0.37 -0.03,-0.13 -0.21,-0.37 -0.19,-0.25 0.02,-0.47 -0.07,-0.92l-0.06 -0.48c-0.03,-0.19 -0.15,-0.17 -0.08,-0.39 0.2,-0.06 0.21,-0.01 0.3,0.16 -0.05,0.16 -0.04,0.08 -0.17,0.22 -0.01,0.01 -0.03,0.03 -0.05,0.05 0.92,-0.23 0.66,0.68 1.08,1.1 0.24,0.24 0.41,0.67 0.57,1 0.27,0.56 0.63,0.27 0.5,1.32 -0.02,0.19 -0.05,0.23 0.06,0.36 0.16,-0.05 0.24,-0.14 0.27,-0.34 0.12,-0.63 -0.1,-0.6 -0.21,-0.93 -0.06,-0.17 0.08,-0.21 0.19,-0.43 -0.22,0.02 -0.22,0.11 -0.5,0.1 -0.09,-0.19 -0.21,-0.34 -0.28,-0.53 -0.13,-0.36 -0.01,-0.27 -0.28,-0.56 -0.54,-0.57 -0.07,-0.36 -0.4,-1.13 0.33,0.14 0.17,0.24 0.36,0.57 0.01,0 0.03,-0.02 0.03,-0.01l0.1 -0.03c0.12,-0.04 0.29,-0.05 0.38,-0.14 -0.33,-0.14 -0.34,0 -0.36,-0.34 0.5,-0.04 0.69,0.44 1.29,0.44 -0.25,-0.46 -0.3,-0.2 -0.64,-0.43 -0.13,-0.09 -0.38,-0.55 -0.41,-0.69 0.25,-0.15 0.6,-0.24 0.9,-0.37 0.01,-0.01 0.04,-0.01 0.05,-0.02l-0.51 -0.33c-0.22,-0.22 -0.13,-0.42 0.02,-0.68 0.16,-0.29 0.06,-0.17 0.37,-0.31l0.02 -0.31c0.11,-0.06 0.24,-0.14 0.33,-0.2l0.25 0.2 0.16 -0.37c0.01,-0.01 0.02,-0.03 0.02,-0.04 0.06,-0.1 -0.03,0.14 0.08,-0.13 -0.31,-0.32 -0.38,-0.5 -0.42,-1 0.29,0.03 0.38,0.06 0.52,0.23 0.29,0.34 0.06,0.14 0.5,0.26l0.19 0.41c0.06,-0.04 0.04,-0.12 0.06,-0.19 0,-0.01 0.01,-0.03 0.01,-0.04l0.11 -0.14c-0.26,-0.27 -2.12,-1.3 -2.46,-1.47 -3,-1.49 -5.32,-2.37 -8.98,-2.88 -3.64,-0.51 -7.23,-0.27 -10.75,0.61 -0.57,0.14 -0.98,0.29 -1.52,0.44l-1.48 0.53 0.09 0.35c0.2,-0.03 0.37,-0.12 0.49,-0.14 0.28,-0.04 0.04,-0.06 0.25,0.07l-0.04 0.5c0.31,-0.02 0.3,-0.33 0.37,-0.63 0.23,0.03 0.2,0.05 0.41,0.03 -0.06,0.16 -0.21,0.13 0.01,0.73 0.08,-0.15 0.05,-0.41 0.07,-0.61 0.03,-0.31 0.02,-0.28 0.34,-0.27 0.05,-0.4 -0.12,-0.17 0.17,-0.39 0.3,-0.23 0.4,-0.11 0.52,-0.1 0.32,0.01 0.01,0.02 0.18,-0.07l0.19 -0.09c0.28,-0.21 0.31,-0.32 0.83,-0.19 0.3,0.07 0.55,0.11 0.66,0.35 -0.18,0.25 -0.04,0.08 -0.33,0.18l0.44 -0.04c0.12,0.34 -0.1,0.12 0.2,0.3 0.16,0.1 0.23,0.11 0.29,0.3 -0.03,0.46 -1.04,0.24 -1.69,0.5 0.37,-0.08 0.39,-0.1 0.81,-0.03l-0.09 0.19c-0.01,0.01 -0.02,0.03 -0.03,0.04 -0.01,0.01 -0.03,0.03 -0.03,0.04 -0.01,0.01 -0.02,0.02 -0.04,0.04 0.72,0.06 0.08,-0.24 0.74,-0.27 -0.05,0.61 -0.3,0.43 -0.52,0.78 0.35,-0.1 0.56,-0.25 0.85,-0.42 0.35,-0.2 0.78,-0.42 0.92,0.23 -0.03,0.05 -0.52,0.53 -0.85,0.61l-0.09 0.02c0.21,0.03 0.15,-0.02 0.15,0.19 -0.75,0.73 -0.68,1.22 -0.86,1.55l-0.21 0.25c0.26,0.22 -0.02,0.15 0.14,0.38 0.09,0.14 0.02,-0.03 0.14,0.15 -0.02,0.06 -0.24,0.67 -0.24,0.67 -0.01,-0.28 0.03,-0.28 -0.09,-0.49 -0.74,0.09 0.21,0.53 -0.22,1.1l0.03 0.56 -0.49 0.14c0.21,0.15 0.17,-0.01 0.15,0.24 -0.16,0.12 -0.16,0.17 -0.43,0.26l0.02 0.17c0.02,0.25 -0.09,0.36 -0.29,0.52 -0.01,0.01 -0.04,0.02 -0.05,0.04 0.61,0.51 -0.15,1.63 -0.41,0.51 -0.25,0.2 0.11,-0.08 -0.37,0.51 0.21,-0.03 0.54,0.05 0.69,0.13l-0.69 0.57c-0.68,0.43 -1.28,0.25 -1.86,0.8 -0.3,0.29 -0.38,0.61 -1.15,0.86 -0.44,0.14 -0.64,0.03 -0.84,0.5 -0.06,0.15 -0.1,0.38 -0.18,0.51 -0.09,0.15 -0.5,0.48 -0.81,1.22 -0.07,0.17 -0.13,0.29 -0.22,0.44 -0.23,0.03 -0.3,-0.01 -0.43,-0.14l-0.13 -0.26 -0.36 0.1c-0.21,-0.36 -0.22,-0.13 -0.25,-0.62 -0.02,-0.33 -0.06,-0.4 -0.11,-0.66 -0.05,-0.25 -0.01,-0.16 0,-0.37 0,-0.02 0,-0.03 0,-0.05l-0.01 -1.06c0.02,-0.08 0.04,-0.1 0.07,-0.16 0.05,-0.11 0.02,-0.02 0.04,-0.1 0.03,-0.12 -0.03,-0.1 0.06,-0.31 0.28,-0.63 0.72,-0.67 0.89,-0.88 0.16,-0.19 0.05,-0.05 0.15,-0.29l0.13 -0.17 -0.29 -0.05c0.14,0.53 -0.64,0.59 -0.52,0.01 0.03,-0.16 0.08,-0.17 0.14,-0.26 0.3,-0.43 0.05,-0.28 0.62,-0.25 -0.04,-0.3 -0.03,-0.17 -0.01,-0.47 -0.11,0.14 -0.15,0.19 -0.41,0.15 -0.07,-0.33 -0.04,-0.14 0.06,-0.35 0.04,-0.08 0.1,-0.2 0.14,-0.3 0.01,-0.01 0.07,-0.12 0.09,-0.16l0.08 -0.11c0.22,-0.38 0.14,-1.58 0.33,-1.81 -0.28,-0.42 -0.6,-0.44 -1.08,-0.36 -0.01,0 -0.03,0.01 -0.04,0.01 -0.13,0.02 -0.13,0.06 -0.25,0.02 -0.2,-0.5 0.05,-0.28 0.05,-0.53 -0.4,-0.02 -0.2,-0.02 -0.44,0.23 -0.12,0.12 -0.26,0.2 -0.35,0.27 -0.07,0.21 0.1,0.3 -0.22,0.48 -0.62,0.35 -0.1,0.17 -0.47,0.35 -0.3,-0.45 0.08,-0.21 -0.43,-0.39 0.19,0.81 0.37,0.77 -0.39,1.26 -0.11,0.07 -0.03,-0.01 -0.1,0.08 0.51,1.38 -0.08,0.71 0.21,1.35 0.28,0.62 0.69,1.08 0.43,1.82 -0.09,0.26 -0.03,0.06 -0.27,0.18 0.05,0.17 0.59,0.85 0.61,1.21 0.02,0.34 -0.48,0.53 -0.65,0.71 -0.23,0.24 0.05,0.16 -0.31,0.24l-0.26 -0.48c-0.14,-0.16 0.03,-0.09 -0.1,-0.04 -0.43,0.19 0.46,0.61 -0.11,1.41 -0.08,0.12 -0.03,0.04 -0.09,0.18l-0.14 0.19c-0.08,-0.25 -0.22,-0.46 -0.45,-0.57 0.09,0.24 0.44,0.83 0.23,1.04l-0.12 -0.18c-0.23,-0.3 -0.16,-0.06 -0.46,-0.29 -0.52,-0.4 -0.29,-0 -0.57,-0.57 -0.06,-0.12 -0.2,-0.43 -0.24,-0.5 -0.31,-0.02 -0.2,0.08 -0.56,0.04 -0.2,-0.3 -0.51,-0.72 -0.43,-1.16 0.1,-0.17 0.46,-0.25 0.58,-0.46 0.23,-0.42 -0.17,-0.48 0.51,-0.68l0.16 0.43c0,-0 1.09,-0.68 0.59,-1.05l-0.13 -0.07c-0.01,-0.01 -0.03,-0.01 -0.05,-0.02l0.06 -0.14c-0.28,0.13 -0.18,-0.05 -0.18,-0.05 0.18,-0.35 0.16,0.01 0.12,-0.37 -0.02,-0.19 0.04,-0.35 0.02,-0.44 -0.18,0.19 -0.02,0.26 -0.43,0.33 -0.13,0.02 -0.33,-0.09 -0.58,-0.14l0.11 0.38c-0,0.08 -0.08,0.28 -0.14,0.34 -0.01,0.01 -0.02,0.02 -0.04,0.03l-0.08 0.05c-0.18,0.11 -0.07,-0.04 -0.19,0.12 -0.14,0.17 -0.04,0.2 -0.1,0.39 -0.03,0.1 -0.67,0.94 -1.27,0.54 -0.22,0.39 -0.06,0.19 -0.02,0.29 0,0.01 0.01,0.02 0.01,0.03l0.01 0.1c0,0.17 -0.08,-0.04 0.02,0.17 0.07,0.17 0.29,0.56 0.31,0.84 -0.35,0.37 -0.41,0.02 -0.59,-0.11 -0.15,0.19 -0.29,0.31 -0.56,0.41 -0.01,-0.02 -0.03,-0.06 -0.03,-0.05l-0.08 -0.15c-0.04,-0.07 -0.06,-0.14 -0.08,-0.17 0.14,-0.22 0.13,-0.06 0.39,-0.58 -0.18,0.14 -0.27,0.21 -0.43,0.34 -0.08,0.07 -0.1,0.11 -0.23,0.14 -0.13,0.04 -0.08,0.01 -0.16,0.03 -0.41,0.09 -0.38,0.24 -0.55,0.41 -0.24,0.26 -0.18,-0.01 -0.49,0.32 -0.2,0.21 -0.27,0.18 -0.44,0.32 -0.26,0.21 -0.82,0.88 -1.01,1.35 0.26,0.2 0.3,-0.09 0.06,0.85 0.11,-0.06 0.17,-0.07 0.33,-0.03l0.31 0.19c0.26,0.23 0.38,0.61 0.72,0.7 0.23,0.06 0.49,-0.09 0.81,0.63l0.06 -0.13c0.09,-0.22 0.01,-0.27 0.46,-0.41 -0.1,-0.23 -0.26,-0.29 -0.14,-0.53 0.29,-0.12 0.33,0.06 0.42,0.29 0.68,-0.36 0.4,-0.82 0.35,-1.35 0.62,-0.7 0.5,-0.3 0.62,-1.06 0.23,-0.31 0.32,-0.4 0.11,-0.64l0.1 -0.03c0.01,-0 0.03,-0.01 0.03,-0.01 0.62,-0.25 0.44,-0.01 0.72,-0.05 0.23,0.19 0.06,0.02 0.1,-0.03 -0.11,-0.21 -0.19,-0.31 -0.18,-0.5l0.08 0.04c0.01,0.01 0.03,0.02 0.04,0.02 0.15,0.12 0.18,0.29 0.27,0.43l0.37 0.58c0.21,0.32 0.49,0.36 0.84,0.92l0.35 -0.41c0.59,0.54 0.58,2.32 0.52,2.51 0.27,0.19 0.21,0.1 0.39,0.43 1.04,1.91 -0.19,1.08 0.52,2.32 0.14,0.25 0.11,0.38 0.13,0.62 0.02,0.25 0.14,0.31 -0.01,0.55 -0.16,0.25 -0.29,0.11 -0.46,-0.08 -0.16,0.08 -0.11,0.09 -0.31,0.12 -0.14,-0.21 -0.06,-0.24 -0.36,-0.28 -0.27,-0.04 -0.34,0.07 -0.49,-0.07 -0.04,-0.04 -0.26,-0.39 -0.28,-0.43 -0.12,-0.25 -0.01,-0.29 0.07,-0.5l-0.41 -0.03c0.07,0.17 0.15,0.2 0.15,0.33 0.01,0.14 0.02,0.04 -0.03,0.13 -0.22,0.02 -0.35,-0.07 -0.45,-0.2 -0.2,-0.27 -0.05,-0.32 -0.5,-0.28 0.25,0.56 0.51,0.44 0.15,0.89 0.09,0.12 0.02,0.04 0.15,0.16 0.05,-0.1 0.24,-0.3 0.34,-0.37 0.28,0.13 0.56,0.65 0.54,1 -0.18,0.15 -0.52,0.31 -0.8,0.4 -0.52,0.17 -0.38,0.27 -0.81,0.46 -0.2,-0.1 -0.23,-0.15 -0.31,-0.33 -0.4,0.02 -0.83,0.18 -0.99,0.47 -0.22,0.39 -0.01,0.32 -0.02,0.49 -0.01,0.24 -0.17,0.04 -0.67,0.34 -0.14,0.09 -0.15,0.06 -0.26,0.12 -0.25,0.14 -0.13,0.24 -0.3,0.45 -0.11,0.13 -0.12,0.09 -0.2,0.19 -0.06,0.08 -0.08,0.15 -0.13,0.25 -0.1,0.2 -0.21,0.24 -0.23,0.25 -0.32,0.15 0.18,-0.14 -0.08,0.03 0.03,0.2 0.04,0.47 -0,0.63 -0.1,0.37 -0.5,0.36 -0.91,0.83 -0.25,0.28 -1.04,0.42 -0.66,1.49 0.07,0.21 -0.01,0.05 0.09,0.16 0.32,0.33 0.03,-0.17 0.46,0.17 0.18,0.14 0.35,0.28 0.38,0.54l-0.24 -0.1c-0.01,-0 -0.03,-0.01 -0.04,-0.01 -0.58,-0.16 -0.1,-0.03 -0.51,-0.24 -0.02,0.66 0.48,0.33 0.55,0.93l-0.02 0.18c-0.14,-0.08 -0.21,-0.15 -0.34,-0.25 -0.28,-0.23 -0.11,-0.09 -0.25,-0.38 -0.19,0.36 -0.45,0.11 -0.82,-0.31 -0.31,-0.35 -0.32,-0.71 -0.46,-1.11 -0.27,-0.08 -0.34,-0.14 -0.71,-0.11 -0.38,0.03 -0.31,0.17 -0.28,0.41 -0.28,-0.03 -0.49,0.03 -0.92,-0.48 0,0.93 0.06,1.65 0.13,2.47 0.35,-0.02 0.48,-0.17 0.79,0.02 0.16,0.09 0.42,0.29 0.53,0.48 -0.08,0.31 -0.14,0.19 -0.2,0.57 -0.04,0.23 0,0.11 -0.08,0.29 -0.07,0.16 -0.09,-0.14 -0.09,0.28 0.21,0.13 0.4,0.08 0.72,0.28 0.2,0.13 0.42,0.26 0.58,0.41 0.07,0.76 -0.26,0.89 0.14,1.44 0.71,-0.26 0.53,-0.16 1.08,0.12 0.3,-0.31 0.21,-0.14 0.36,-0.63 0.16,-0.04 0.32,-0.07 0.51,-0.13 0.3,-0.1 0.15,-0.11 0.39,-0.24 0.01,-0 0.57,0.1 0.81,0.26 0.63,0.41 0.28,0.21 0.89,0.38 0.55,0.15 -0.02,-0.25 0.94,-0.05l0.21 0.02c0.32,0.04 0.18,0.15 0.55,0.33 -0.02,0.21 -0.03,0.17 -0.08,0.33 0.42,0.18 0.58,0.55 0.84,0.69 0.25,0.14 0.73,0.06 1.19,0.32 0.17,0.1 0.72,0.57 0.8,0.71 0.12,0.2 0.13,0.3 0.27,0.49 0.22,0.3 0.13,0.21 0.22,0.58 0.45,0.14 0.88,0.25 1.26,0.52 0.42,0.3 0.98,0.12 1.43,0.39 0.29,0.18 0.45,0.4 0.68,0.52 0.4,0.21 0.46,0.08 0.72,0.48 0.58,0.9 -0.13,1.37 -0.28,1.64 -0.39,0.73 -0.37,0.47 -0.32,0.84 0.1,0.65 0.11,0.83 0.06,1.44 -0.01,0.19 -0.1,0.29 -0.14,0.48 -0.05,0.29 0.07,0.17 -0.11,0.34 -0.4,0.38 -0.36,-0.09 -0.85,0.29 -0.15,0.12 -0.23,0.14 -0.37,0.26 -0.29,0.25 -0.33,0.39 -0.17,0.82 0.16,0.43 -0.42,1.33 -0.45,1.48 -0.16,0.76 -0.09,0.64 -0.84,0.58 0.15,0.22 -0.02,0.08 0.25,0.43 0.05,0.06 0.07,-0.01 0.1,0.2 0.01,0.06 -0.01,0.25 -0.01,0.34 -0.33,0.22 -0.43,0.13 -0.84,0.16 0.13,0.59 0.24,0.47 0.02,0.66l-0.28 -0.04c-0.23,0.04 -0.25,-0.03 -0.42,-0.11 0.3,0.58 0.32,0.04 0.5,0.49 0.1,0.32 -0.01,-0.01 -0.09,0.23 -0.1,0.29 0.06,0.04 -0.03,0.4 0.26,0.13 0.38,0.25 0.63,0.42l1.86 1.17c0.43,0.26 0.85,0.47 1.32,0.7 1.26,0.63 2.96,1.38 4.31,1.75 1.31,0.36 1.84,0.53 3.25,0.78 0.53,0.1 2.12,0.34 2.68,0.35 0.41,0.01 0.56,0.06 0.94,0.06 2.97,0 4.63,-0.05 7.42,-0.66 1.12,-0.25 2.13,-0.58 3.13,-0.91 1.09,-0.36 2.51,-0.99 3.5,-1.54 1.17,-0.66 2,-1.08 3.14,-1.91 0.52,-0.38 1.81,-1.31 2.26,-1.78 0.2,-0.21 0.34,-0.28 0.54,-0.47l2.46 -2.59c1,-1.12 2.11,-2.86 2.89,-4.17 0.14,-0.24 0.21,-0.42 0.35,-0.66 0.2,-0.33 1.21,-2.44 1.23,-2.79 -0.19,-0.27 -0.27,-0.23 -0.36,-0.65 -0.07,-0.35 -0.4,-1.15 -0.64,-1.42 -0.17,-0.19 -0.51,-0.28 -0.32,-0.67 0.85,-0.08 1.04,0.77 1.89,1.17 -0.13,-0.14 -0.58,-0.35 -0.61,-0.92 -0.05,-1.01 -0.54,-0.77 -0.44,-1.34 0.02,-0.09 0.06,-0.17 0.08,-0.29 0.04,-0.19 0.09,-0.46 0.07,-0.64 -0.02,-0.17 -0.26,-1.17 -0.31,-1.25 -0.3,0.02 -0.19,0.26 -0.8,0.24 -0.05,-1.36 0.07,-0.35 -0.25,-1.09 -0.07,-0.16 -0,-0.08 -0.11,-0.19 -0.15,-0.15 -0.35,-0.14 -0.37,-0.7 -0.08,-0.17 0.07,-0.1 -0.46,0.1 -0.21,0.08 -0.5,0.09 -0.7,0.15 -0.15,0.28 -0,0.36 -0.34,0.58 -0.33,0.21 -0.23,0.23 -0.46,0.49 -0.21,0.24 -0.42,0.52 -0.7,0.68 -0.09,0.05 -0.2,0.11 -0.33,0.16 -0.01,0.26 0.02,0.57 0,0.79 -0.01,0.19 -0.1,0.36 -0.15,0.64 -0.06,0.36 -0.19,0.35 -0.47,0.69 -0.16,0.2 0.06,0.06 -0.2,0.22 -0.35,-0.04 -0.31,-0.28 -0.38,-0.58 -0.08,-0.38 -0.2,-0.46 -0.31,-0.71l-0.54 -1.59 -0.15 -1.26c-0.44,0.09 0.03,0.01 -0.33,0.17 -0.15,0.07 -0.13,0.08 -0.29,0l-0.39 -0.6c-0.13,-0.26 -0.25,-0.13 -0.64,-0.69l-0.11 -0.19c-1.67,0 -0.18,0.27 -2.6,-0.08 -0.07,-0.13 -0.15,-0.32 -0.3,-0.45 -0.6,0.14 -0.43,0.38 -1.04,-0.1 -0.21,-0.16 -0.13,-0.05 -0.35,-0.16 -0.21,-0.11 -0.27,-0.43 -0.39,-0.61 -0.07,-0.11 -0.14,-0.2 -0.37,-0.17 -0.62,0.08 -0,0.67 0.18,0.97 0.24,0.39 0.85,0.82 1.34,0.75 0.28,-0.04 0.39,-0.18 0.54,-0.26 0.14,-0.08 -0.04,-0.09 0.11,-0.04 0.02,0.36 0.04,0.32 0.1,0.62 0.45,0.07 0.67,0.08 0.87,0.47 0.21,0.4 -0.27,0.63 -0.42,0.81 -0.01,0.06 -0.01,0.29 -0.04,0.36 -0.09,0.2 -0.04,-0.04 -0.46,0.35 -0.15,0.13 0.2,-0.18 -0.1,0.08l-0.13 0.13c-0.27,0.3 -0.02,0.1 -0.53,0.28 -0.38,0.13 -0.23,0.2 -0.45,0.39 -0.15,0.12 -0.4,0.17 -0.57,0.24 -0.46,0.19 -0.16,0.21 -1.17,0.49 -0.29,0.08 -0.26,0.26 -0.65,0.18 -0.07,-0.16 -0.17,-0.42 -0.22,-0.69 -0.26,-1.36 -0.12,-0.39 -0.56,-1.4 -0.16,-0.36 -0.32,-0.28 -0.5,-0.51 -0.12,-0.15 -0.09,-0.48 -0.19,-0.76 -0.21,-0.63 -0.27,-0.16 -0.46,-0.56 -0.12,-0.25 -0.55,-1.33 -0.93,-1.04l-0.05 0.12c-0.07,0.39 0.38,0.63 0.71,1.33 0.16,0.33 -0.02,0.11 0.23,0.32 0.12,0.1 0.17,0.14 0.22,0.3 0.12,0.35 0.04,0.64 0.29,0.88 0.34,0.34 0.23,0.02 0.47,0.57 0.07,0.16 0.12,0.23 0.23,0.36 0.23,0.29 0.17,0.25 0.23,0.55 0.03,0.14 -0.04,-0.1 0.02,0.11 0.07,0.22 0.16,0.22 0.3,0.43 0.07,0.11 0.03,0.03 0.08,0.16l0.04 0.15c0.01,0.02 0.01,0.03 0.02,0.05 0.01,0.02 0.01,0.03 0.02,0.05 0.03,0.05 0.25,0.24 0.29,0.28l1.94 -0.48c0.1,0.47 -0.1,0.84 -0.28,1.13 -0.18,0.3 -0.33,0.72 -0.52,0.97 -0.21,0.44 -0.55,0.7 -0.89,0.95 -0.41,0.3 -0.69,0.51 -0.96,0.87 -0.27,0.35 -1.12,1.2 -1.08,1.6 0.04,0.4 0.05,-0.27 0.06,0.76 0.03,0.42 0.14,0.32 0.21,0.54 0.02,0.06 0.08,1.37 -0.41,1.81 -0.29,0.26 -0.79,0.47 -1.31,0.96 -0.22,0.21 -0.15,0.29 -0.09,0.59 0.1,0.85 -0.19,0.97 -0.81,1.22 -0.06,0.32 -0.03,0.37 -0.15,0.67 -0.15,0.38 -0.14,0.24 -0.36,0.46 -0.39,0.4 -0.65,1.19 -1.86,1.55 -0.26,0.08 -0.34,-0.01 -0.65,0.04 -0.2,0.03 -0.56,0.17 -0.71,0.16 -0.66,-0.05 -0.22,-0.91 -0.67,-1.72 -0.12,-0.22 -0.22,-0.25 -0.32,-0.56 -0.13,-0.41 -0.18,-2 -0.84,-2.56l-0 -0.26c-0.04,-1.42 0.64,-1.52 0.6,-1.95 -0.01,-0.2 -0.06,-0.18 -0.11,-0.33 -0.06,-0.18 -0.05,-1.14 -0.56,-1.64 -0.2,-0.19 -0.69,-0.62 -0.64,-1.07 0.01,-0.2 0.08,-0.26 0.12,-0.46 0.05,-0.28 0.01,-0.24 0.11,-0.53 0.14,-0.4 0.05,-0.53 -0.23,-0.76 -0.22,-0.02 -0.62,0.13 -0.82,0.06 -0.27,-0.1 -0.19,-0.39 -0.43,-0.58 -0.48,-0.37 -1.17,0.23 -1.6,0.35 -0.4,0.11 -0.45,-0.09 -0.92,-0.06 -0.78,0.04 -0.75,0.52 -1.54,-0.14 -0.58,-0.49 -0.82,-0.44 -1.03,-1.04 -0.12,-0.34 -0.23,-0.3 -0.44,-0.58 -0.34,-0.48 -0.3,-0.25 -0.53,-0.48 -0.1,-0.11 -0.11,-0.19 -0.13,-0.37 -0.04,-0.33 -0.1,-0.29 -0.11,-0.46 -0.02,-0.27 0.39,-0.83 0.22,-1.69 -0.06,-0.29 -0.35,-0.27 -0.1,-0.76 0.1,-0.2 0.26,-0.57 0.4,-0.68 0.4,-0.76 0.16,-0.43 0.53,-0.78l0.11 -0.15c0.31,-0.58 0.49,-0.21 0.88,-0.76 0.25,-0.36 0.01,-0.8 0.39,-1.25 0.34,-0.41 0.62,-0.14 0.79,-0.83zm-14.73 21.68c0.04,-0.19 -0.05,-0.68 -0.1,-0.94 -0.06,-0.31 -0.23,-0.56 -0.35,-0.85 -0.17,-0.39 -0.4,-1.42 -0.49,-1.88 -0.59,-1.52 -0.08,-1.6 -1.61,-2.52 -0.93,-0.56 -0.72,-0.67 -1.31,-1.4 -0.69,-0.85 -0.36,-0.81 -1.23,-1.49 -0.15,-0.11 -0.21,-0.3 -0.23,-0.47 -0.03,-0.3 0.04,-0.23 0.19,-0.43 -0.33,-0.38 -0.4,-0.83 -0.06,-1.26 0.01,-0.01 0.02,-0.02 0.03,-0.03 0.42,-0.55 0.51,-0.57 0.29,-1.31 -0.06,-0.2 -0.08,-0.15 -0.17,-0.34 -0.07,0.19 -0.01,0.12 -0.1,0.27 -0.2,-0.03 -0.25,-0.1 -0.41,-0.2 -0.24,-0.13 -0.24,-0.08 -0.47,-0.17l-1.11 -0.79c-0.13,-0.16 -0.1,-0.59 -0.85,-0.96 0.44,1.69 0.49,2.53 1.23,4.44 0.43,1.1 0.75,1.89 1.28,2.95l2.14 3.54c0.22,0.31 0.4,0.53 0.62,0.83 0.22,0.29 0.4,0.5 0.61,0.78 0.13,0.17 0.18,0.21 0.32,0.37 0.15,0.16 0.18,0.24 0.35,0.41 0.38,0.38 1,1.21 1.44,1.43zm30.31 -6.67c0.14,0.2 0.17,0.33 0.16,0.68 -0.01,0.43 -0.07,0.35 -0.22,0.63 -0.11,0.2 -0.15,0.39 -0.22,0.59l-0.84 1.74c-0.15,0.26 -0.8,0.64 -1.08,0.38 -0.19,-0.17 -0.23,-0.8 0.05,-1.21 0.55,-0.8 0.01,-0.7 0.34,-1.24 0.39,-0.65 0.58,-0.12 1.18,-0.9 0.24,-0.31 0.36,-0.57 0.63,-0.67zm-16.51 -21.42c0.02,-0.28 0.18,-0.26 0.21,-0.45 0.04,-0.2 -0.07,-0.14 -0.07,-0.52 0.18,-0.18 0.02,-0.01 0.17,-0.09 0.2,-0.1 0.04,0.04 0.19,-0.12 0.14,-0.16 -0.01,-0.22 0.32,-0.26 0.66,-0.08 0.36,0.56 0.35,0.57 -0.12,0.43 0.09,0.56 -0.32,0.77 -0.36,0.19 -0.51,0.34 -0.85,0.1zm1.8 -2.49c0.24,0.04 0.2,-0.04 0.39,0.1 -0.05,0.29 -0.14,0.3 -0.22,0.57l0.16 0.2c0.18,0.18 0.01,-0.05 0.15,0.16l0.46 0.8c0.18,0.28 0.25,-0.02 0.4,0.33 0.1,0.24 -0.13,0.12 -0.12,0.48 0,0.13 -0.01,0.01 0.01,0.07 0.09,0.3 0.02,0.05 0.05,0.05 -0.37,0.28 -0.34,0.2 -0.89,0.27 -0.33,0.04 -0.69,0.29 -0.96,0.23 0.1,-0.17 0.08,-0.12 0.21,-0.25 0.18,-0.17 0.02,-0.09 0.28,-0.2 -0.13,-0.19 -0.08,-0.14 -0.35,-0.25 0.2,-0.44 0.13,0.09 0.19,-0.63 0.33,-0.09 0.24,0.11 0.31,-0.19 0.03,-0.13 -0.06,-0.2 -0.08,-0.43l-0.34 -0.03c-0.02,-0.36 -0.18,-0.36 -0.33,-0.44 0.23,-0.16 0.14,-0.37 0.01,-0.67 0.49,-0.3 -0.03,-0.5 0.75,-0.5l-0.07 0.34zm-4.4 -3.69c0.05,-0.3 0.21,-0.45 0.59,-0.46l0.17 0.42c0.27,-0.49 0.14,-0.13 0.86,-0.36 0.68,-0.21 0.37,0.07 0.71,0.4 -0.28,0.46 0.1,0.33 -0.85,0.83 -0.74,0.39 -0.5,0.02 -1.28,0.02 0.01,-0.17 0.01,-0.04 0.05,-0.15 0.06,-0.16 0.02,0.15 0.07,-0.22 -0.11,-0.08 -0.18,-0.07 -0.32,-0.16 0.01,-0.01 0.03,-0.03 0.04,-0.02 0.01,0.01 0.03,-0.02 0.04,-0.02 0.34,-0.2 0.09,0.13 0.28,-0.21 -0.22,-0.09 -0.14,-0.04 -0.35,-0.06zm9.66 -7.15l0.07 0.46c-0.01,0.17 -0.04,0.5 -0.18,0.58l-0.41 -0.06c-0.04,-0.14 -0.01,-0.22 -0.06,-0.44l-0.18 -0.34c-0.15,0.24 -0.25,1.15 -0.32,1.46 -0.3,-0.03 -0.07,0.03 -0.32,-0.24 -0.01,-0.01 -0.02,-0.02 -0.03,-0.03 -0.15,-0.14 -0.18,-0.04 -0.28,-0.35 -0.04,-0.11 -0.07,-0.4 -0.13,-0.5 -0.18,-0.29 -0.12,-0.06 -0.38,-0.12 -0.1,-0.33 -0.11,-0.71 -0.11,-1.11 0.16,0.29 -0.01,0.15 0.32,0.23l-0.04 -0.21c-0.13,-0.19 -0.06,-0.16 -0.16,-0.37 -0.01,-0.02 -0.01,-0.03 -0.02,-0.05 -0.34,-0.76 0.47,-0.49 0.59,-0.48l0.19 -0.24c0.34,0.16 0.39,0.22 0.45,0.62 0.21,0.03 0.2,-0.01 0.35,0.15 0.5,0.5 0.21,0.46 0.74,0.8l-0.09 0.23zm9.21 -1.95c-0.19,-0.16 -0.48,-0.7 -0.51,-0.8 -0.06,-0.2 0.07,-0.66 0.15,-0.88l0.3 0.25c0.07,0.1 0.01,-0.01 0.05,0.1 0.07,0.2 -0.03,0.09 0.27,0.35 0.26,-0.03 0.11,0.13 0.23,-0.17 0.04,0.25 0.07,0.24 0.2,0.35 0.28,0.22 0.75,0.33 1,0.28 0.07,-0.14 0.05,-0.28 0.08,-0.37 0.17,0.36 0.23,0.7 0.57,0.97 0.08,-0.04 0.34,-0.26 0.36,-0.28 -0.08,0.48 -0.16,0.76 -0.42,0.97 0.04,0.13 0.02,0.06 0.09,0.14l0.03 0.02c0,-0 0.01,0 0.01,0l-0.2 0.77c-0.08,0.14 -0,0.09 -0.22,0.14l0.21 -0.81c-0.05,-0.03 -0.1,0.04 -0.22,-0.07 -0.08,-0.07 -0.09,-0.12 -0.15,-0.24 -0.08,-0.17 -0.16,-0.35 -0.23,-0.51l-0.27 0.28c-0.38,-0.14 -0.52,-0.05 -0.95,-0.41l-0.17 -0.21c-0,-0.02 -0.01,-0.03 -0.02,-0.04 -0.04,0.21 0.03,0.15 -0.19,0.17zm-4.63 -1.16c0.07,-0.23 -0.03,-0.49 0.15,-0.71 0.06,0.1 0.05,0.02 0.05,0.19 0,0 -0.42,1.09 0.28,0.92 0.05,-0.14 0,-0.31 -0,-0.42 0.24,-0.05 0.17,0.06 0.21,-0.17 -0.01,0.33 -0.09,0.72 -0.19,1.03 -0.19,0.63 -0.02,0.87 -0.29,0.98 -0.11,-0.2 -0.03,-0.15 -0.05,-0.42 -0.15,0.11 -0.27,0.65 -0.55,0.19 -0.19,0.14 -0.1,0.13 -0.37,0.17l-0.04 -0.51c0.13,0.12 -0.05,0.64 -0.13,0.75 -0.19,-0.06 -0.24,-0.16 -0.28,-0.36 -0.04,0.12 -0.05,0.2 -0.14,0.25 -0.17,0.09 -0.22,-0.06 -0.25,-0.1 -0.24,-0.3 0.09,-0.04 -0.47,-0.24l0.1 -0.96c0.05,0.02 0.21,0.04 0.25,0.05 0.34,0.13 0.13,0.48 0.58,0.19l0.24 0.14c0.06,0.05 0.02,0.04 0.1,0.03 0.1,-0.22 -0.07,-0.7 0.13,-0.96 0.11,0.23 -0.13,0.16 0.38,0.28l0.29 -0.32z"/>
 </g>
</svg>
