<?xml version="1.0" encoding="UTF-8"?>
<!DOCTYPE svg PUBLIC "-//W3C//DTD SVG 1.1//EN" "http://www.w3.org/Graphics/SVG/1.1/DTD/svg11.dtd">
<!-- Creator: CorelDRAW -->
<svg xmlns="http://www.w3.org/2000/svg" xml:space="preserve" width="1.53907in" height="1.25999in" version="1.1" style="shape-rendering:geometricPrecision; text-rendering:geometricPrecision; image-rendering:optimizeQuality; fill-rule:evenodd; clip-rule:evenodd"
viewBox="0 0 44.69 36.59"
 xmlns:xlink="http://www.w3.org/1999/xlink"
 xmlns:xodm="http://www.corel.com/coreldraw/odm/2003">
 <defs>
  <style type="text/css">
   <![CDATA[
    .fil0 {fill:white}
   ]]>
  </style>
 </defs>
 <g id="Layer_x0020_1">
  <metadata id="CorelCorpID_0Corel-Layer"/>
  <g id="_2209049735440">
   <path class="fil0" d="M9.79 36.48l6.42 0c0.05,-2.95 0,-5.95 0,-8.9 0,-1.47 0,-3 0,-4.47 0,-1.42 -0.05,-2.95 1.53,-2.95 1.63,0 1.58,1.47 1.58,2.9l0 8.95c0,1.47 -0.05,3 0,4.47l6.37 0c-0.05,-4.32 0,-9 0,-13.37 0,-1.42 -0.05,-2.95 1.53,-2.95 1.63,-0.05 1.58,1.47 1.58,2.9l0 13.42 6.42 0c-0.05,-1.58 0.05,-3.26 0,-4.84 -0.05,-1.58 0,-3.21 -0.05,-4.79 0,-1.21 0.05,-6.26 -0.11,-7.16 -0.26,-1.42 -0.58,-2.37 -1.42,-3.47 -0.32,-0.47 -0.68,-1 -1.05,-1.37 -0.84,-0.84 -1.74,-1.58 -2.84,-2.05 -1.9,-0.74 -5.11,-0.47 -6.58,1.16 -0.16,0.21 -0.37,0.47 -0.58,0.68l-0.84 -0.95c-1.47,-1.37 -4.63,-1.58 -6.42,-1 -2.21,0.68 -3.95,2.9 -4.84,4.95 -0.63,1.47 -0.68,2.42 -0.68,4.16 0,4.9 -0.05,9.84 0,14.69z"/>
   <path class="fil0" d="M-0 33.69l0 2.9 7.63 0c0.11,-2.37 0,-4.9 0,-7.32 0,-2.47 0,-4.9 0,-7.37 0,-3.84 1.37,-6.58 3.16,-9.74 0.11,-0.16 0.21,-0.37 0.32,-0.58 0.16,-0.21 0.32,-0.37 0.37,-0.58l-5 -5.47c-0.16,0.11 -0.16,0.16 -0.26,0.26 -1.11,1.58 -2.21,3.26 -3.16,4.95 -1.32,2.37 -3,7 -3.05,9.95l0 13z"/>
   <path class="fil0" d="M33.22 11l0.68 1.11c1.74,3 3.16,5.9 3.16,9.58l0 14.84 7.63 0.05 0 -14.53c-0.05,-2.11 -0.05,-3 -0.63,-5.11 -0.89,-3.26 -1.68,-5.21 -3.47,-8 -0.79,-1.32 -1.47,-2.26 -2.32,-3.47l-3.79 4.11c-0.11,0.16 -0.21,0.21 -0.32,0.32l-0.95 1.11z"/>
   <path class="fil0" d="M11.42 0.11c-2,0.32 -3.74,2.42 -3.32,5 0.37,2.05 2.16,4 4.69,3.53 1.95,-0.37 3.68,-2.47 3.26,-4.95 -0.32,-2.11 -2.11,-4.05 -4.63,-3.58z"/>
   <path class="fil0" d="M32.06 0.06c-2.05,0.32 -3.74,2.32 -3.42,4.79 0.26,2.16 2.05,4.16 4.58,3.79 2.05,-0.32 3.68,-2.37 3.37,-4.84 -0.21,-2.11 -2.05,-4.16 -4.53,-3.74z"/>
  </g>
 </g>
</svg>
