<?xml version="1.0" encoding="UTF-8"?>
<!DOCTYPE svg PUBLIC "-//W3C//DTD SVG 1.1//EN" "http://www.w3.org/Graphics/SVG/1.1/DTD/svg11.dtd">
<!-- Creator: CorelDRAW -->
<svg xmlns="http://www.w3.org/2000/svg" xml:space="preserve" width="1.61154in" height="1.62219in" version="1.1" style="shape-rendering:geometricPrecision; text-rendering:geometricPrecision; image-rendering:optimizeQuality; fill-rule:evenodd; clip-rule:evenodd"
viewBox="0 0 48.93 49.26"
 xmlns:xlink="http://www.w3.org/1999/xlink"
 xmlns:xodm="http://www.corel.com/coreldraw/odm/2003">
 <defs>
  <style type="text/css">
   <![CDATA[
    .fil0 {fill:white}
   ]]>
  </style>
 </defs>
 <g id="Layer_x0020_1">
  <metadata id="CorelCorpID_0Corel-Layer"/>
  <path class="fil0" d="M10.56 31.94c1.07,0.86 2.36,2.36 4.93,4.29 3.22,2.36 5.79,3.86 9.22,5.36 1.07,0.43 0.64,0.21 1.72,0 2.57,-0.86 1.29,1.29 4.72,-2.36 0.64,-0.43 0.86,-0.64 0.86,-1.5 -0.21,-3.64 -0.86,-2.57 -4.72,-7.29 -3,-3.86 -4.93,-7.72 -6.43,-12.65 -0.86,-3 -0.64,-5.57 -1.07,-8.58 -1.29,0 -1.72,0.86 -2.36,1.72 -2.57,3 -3.22,4.5 -5.15,7.72 -0.64,1.5 -3.22,8.36 -2.57,9.65 0.64,1.5 0.86,-0.43 0.86,3.64zm11.36 -27.23l5.79 -3c0.86,-0.43 1.5,-0.43 1.93,-1.07 -1.29,-0.43 -3.64,-0.64 -5.36,-0.64 -1.72,0 -1.5,0.21 -1.72,1.72 -0.21,0.86 -0.64,1.93 -0.64,3zm-11.36 -0.43c0.43,0.43 7.29,1.07 7.72,0.86l2.14 -0.86 0.64 -4.07c-3,0 -9.22,2.36 -10.51,4.07zm8.79 44.38c1.5,0.86 6.86,0.64 8.58,0.21 2.36,-0.21 5.36,-1.07 7.29,-2.14 -0.43,-0.43 -4.5,-1.5 -5.57,-1.5 -0.64,0.21 -1.29,1.07 -2.79,0.86 -1.71,-0.43 -0.86,-0.86 -2.57,0.21 -1.5,0.86 -4.72,1.93 -4.93,2.36zm10.51 -5.36c1.5,0.64 4.29,1.5 6,1.72 1.72,0.43 1.93,0.21 3,-0.64 0.43,-0.21 1.93,-1.29 2.14,-1.72 -1.07,-0.86 -2.57,-1.72 -3.64,-2.36 -1.93,-1.72 -0.86,-1.5 -4.07,-1.29 -2.14,3 -3.43,2.57 -3.43,4.29zm12.43 -27.23c1.93,1.07 1.29,1.72 1.29,3.43 0,0.64 1.29,2.36 1.72,3.22 1.29,2.14 2.79,6.22 3,6.22 0.21,0.43 0,0.21 0.21,0.43 0.64,-4.5 0.64,-7.93 -0.64,-12.43 -0.86,-2.14 -3.64,-7.93 -5.36,-8.58l-0.21 7.72zm-42.24 5.15c0,6.22 -0.64,9.22 2.36,14.79 0.64,1.5 3.22,5.57 4.5,5.79l0.21 -9.22c-2.57,-2.57 -1.07,-1.93 -1.07,-3.86 0,-0.21 -1.72,-3.43 -1.93,-3.86 -1.93,-4.29 -2.36,-8.36 -2.79,-9.22 -0.86,1.29 -1.29,3.64 -1.29,5.57zm8.79 11.36c-0.43,1.5 -0.43,5.57 -0.43,7.5 0,4.07 -0.21,3.64 2.57,5.36 4.72,2.79 5.57,2.79 11.36,0 4.29,-1.93 2.57,-1.93 0.21,-3 -1.93,-1.07 -3.22,-1.72 -5.15,-2.79 -1.29,-1.07 -3.22,-2.36 -4.5,-3.43 -0.86,-0.64 -3.43,-3.43 -4.07,-3.64zm13.94 -26.16c0.43,0.43 6.43,2.36 9.65,4.07 2.36,1.29 4.07,2.36 6.22,4.07 0.64,0.64 1.07,1.29 1.93,1.5 0.43,-1.5 0.43,-7.72 0.21,-9.86 -6.86,-4.5 -6.22,-6 -13.94,-2.57 -0.86,0.43 -3.86,1.93 -4.07,2.79zm13.72 31.09c1.07,0.86 4.5,3.64 5.79,3.86 1.29,-1.07 2.36,-2.79 3.43,-4.29 1.29,-2.57 1.93,-3.64 1.5,-5.79 -0.64,-1.93 -1.29,-3.86 -2.14,-5.79 -0.64,-1.5 -1.07,-2.14 -1.93,-3.64 -0.64,-0.86 -0.43,-0.86 -1.5,-1.07l-1.07 4.5c-0.86,2.79 -1.72,5.36 -3.22,7.93 -1.5,2.57 -0.86,1.07 -0.86,4.29zm-28.73 -9.86c2.14,-6.86 3,-11.79 8.58,-18.01 0.86,-0.86 1.5,-1.07 1.5,-2.36 -1.5,-0.64 -7.72,-1.5 -9.65,-1.07 -1.29,0.21 -4.07,4.07 -5.15,5.57 -1.29,2.14 1.29,9.86 2.57,12.65 0.21,0.64 0.43,1.29 0.86,1.72 0.86,1.72 0.64,1.29 1.29,1.5zm13.72 -18.65c-0.21,6.22 1.29,10.93 3.64,15.22 2.36,4.5 5.15,7.29 7.93,10.29l1.93 -0.21c1.5,-2.57 2.36,-4.93 3.43,-7.93 0.64,-1.5 1.07,-3 1.29,-4.5 0.21,-1.72 0.21,-1.29 -0.43,-2.36 -0.64,-0.86 -0.43,-1.5 -0.43,-2.57 -1.07,-0.86 -2.14,-1.93 -3.43,-2.79 -2.79,-2.14 -10.51,-6 -13.29,-5.79l-0.64 0.64z"/>
 </g>
</svg>
