<?xml version="1.0" encoding="UTF-8"?>
<!DOCTYPE svg PUBLIC "-//W3C//DTD SVG 1.1//EN" "http://www.w3.org/Graphics/SVG/1.1/DTD/svg11.dtd">
<!-- Creator: CorelDRAW -->
<svg xmlns="http://www.w3.org/2000/svg" xml:space="preserve" width="7.219in" height="6.45707in" version="1.1" style="shape-rendering:geometricPrecision; text-rendering:geometricPrecision; image-rendering:optimizeQuality; fill-rule:evenodd; clip-rule:evenodd"
viewBox="0 0 390.43 349.22"
 xmlns:xlink="http://www.w3.org/1999/xlink"
 xmlns:xodm="http://www.corel.com/coreldraw/odm/2003">
 <defs>
  <style type="text/css">
   <![CDATA[
    .fil0 {fill:#fff;fill-rule:nonzero}
   ]]>
  </style>
 </defs>
 <g id="Layer_x0020_1">
  <metadata id="CorelCorpID_0Corel-Layer"/>
  <path class="fil0" d="M52.85 99.39c-7.6,0 -14.62,-1.24 -21.07,-3.71 -6.45,-2.47 -12.04,-5.95 -16.75,-10.43 -4.71,-4.48 -8.37,-9.75 -10.98,-15.79 -2.61,-6.04 -3.91,-12.63 -3.91,-19.77 0,-7.14 1.3,-13.73 3.91,-19.77 2.61,-6.04 6.29,-11.3 11.05,-15.79 4.76,-4.48 10.34,-7.96 16.75,-10.43 6.41,-2.47 13.36,-3.71 20.87,-3.71 7.6,0 14.57,1.24 20.94,3.71 6.36,2.47 11.9,5.95 16.61,10.43 4.71,4.48 8.4,9.72 11.05,15.72 2.65,5.99 3.98,12.61 3.98,19.84 0,7.14 -1.33,13.75 -3.98,19.84 -2.65,6.09 -6.34,11.35 -11.05,15.79 -4.71,4.44 -10.25,7.89 -16.61,10.36 -6.36,2.47 -13.29,3.71 -20.8,3.71zm0 249.83c-7.6,0 -14.62,-1.24 -21.07,-3.71 -6.45,-2.47 -12.04,-5.95 -16.75,-10.43 -4.71,-4.48 -8.37,-9.75 -10.98,-15.79 -2.61,-6.04 -3.91,-12.63 -3.91,-19.77 0,-7.14 1.3,-13.73 3.91,-19.77 2.61,-6.04 6.29,-11.3 11.05,-15.79 4.76,-4.48 10.34,-7.96 16.75,-10.43 6.41,-2.47 13.36,-3.71 20.87,-3.71 7.6,0 14.57,1.24 20.94,3.71 6.36,2.47 11.9,5.95 16.61,10.43 4.71,4.48 8.4,9.72 11.05,15.72 2.65,5.99 3.98,12.61 3.98,19.84 0,7.14 -1.33,13.75 -3.98,19.84 -2.65,6.09 -6.34,11.35 -11.05,15.79 -4.71,4.44 -10.25,7.89 -16.61,10.36 -6.36,2.47 -13.29,3.71 -20.8,3.71zm-0.14 -18.94c4.3,0 8.26,-0.73 11.87,-2.2 3.62,-1.46 6.8,-3.57 9.54,-6.31 2.75,-2.75 4.87,-5.99 6.38,-9.75 1.51,-3.75 2.27,-7.92 2.27,-12.49 0,-4.58 -0.76,-8.74 -2.27,-12.49 -1.51,-3.75 -3.62,-7 -6.31,-9.75 -2.7,-2.75 -5.88,-4.85 -9.54,-6.31 -3.66,-1.46 -7.64,-2.2 -11.94,-2.2 -4.3,0 -8.26,0.73 -11.87,2.2 -3.62,1.46 -6.8,3.57 -9.54,6.31 -2.75,2.75 -4.87,5.99 -6.38,9.75 -1.51,3.75 -2.27,7.92 -2.27,12.49 0,4.48 0.76,8.63 2.27,12.42 1.51,3.8 3.62,7.07 6.31,9.82 2.7,2.75 5.88,4.85 9.54,6.31 3.66,1.46 7.64,2.2 11.94,2.2zm69.33 17.3l0 -96.1 18.4 0 56.7 69.19 -8.92 0 0 -69.19 21.97 0 0 96.1 -18.26 0 -56.83 -69.19 8.92 0 0 69.19 -21.97 0zm131.38 -57.38l46.26 0 0 17.3 -46.26 0 0 -17.3zm1.65 39.54l52.3 0 0 17.85 -74.41 0 0 -96.1 72.62 0 0 17.85 -50.52 0 0 60.4zm-255.07 -111.04l0 -14.41 59.44 -71.66 2.75 8.1 -61.09 0 0 -18.12 80.86 0 0 14.41 -59.31 71.66 -2.75 -8.1 64.11 0 0 18.12 -84.02 0zm118.75 -57.38l46.26 0 0 17.3 -46.26 0 0 -17.3zm1.65 39.54l52.3 0 0 17.85 -74.41 0 0 -96.1 72.62 0 0 17.85 -50.52 0 0 60.4zm70.01 17.85l0 -96.1 41.6 0c8.6,0 16.02,1.4 22.24,4.19 6.22,2.79 11.03,6.8 14.41,12.01 3.39,5.22 5.08,11.44 5.08,18.67 0,7.14 -1.69,13.29 -5.08,18.46 -3.39,5.17 -8.19,9.13 -14.41,11.87 -6.22,2.75 -13.64,4.12 -22.24,4.12l-29.24 0 9.88 -9.75 0 36.52 -22.24 0zm61.09 0l-24.02 -34.87 23.75 0 24.3 34.87 -24.02 0zm-38.85 -34.05l-9.88 -10.43 28.01 0c6.86,0 11.99,-1.49 15.38,-4.46 3.39,-2.97 5.08,-7.07 5.08,-12.29 0,-5.31 -1.69,-9.43 -5.08,-12.36 -3.39,-2.93 -8.51,-4.39 -15.38,-4.39l-28.01 0 9.88 -10.57 0 54.5zm125.34 35.69c-7.6,0 -14.62,-1.24 -21.07,-3.71 -6.45,-2.47 -12.04,-5.95 -16.75,-10.43 -4.71,-4.48 -8.37,-9.75 -10.98,-15.79 -2.61,-6.04 -3.91,-12.63 -3.91,-19.77 0,-7.14 1.3,-13.73 3.91,-19.77 2.61,-6.04 6.29,-11.3 11.05,-15.79 4.76,-4.48 10.34,-7.96 16.75,-10.43 6.41,-2.47 13.36,-3.71 20.87,-3.71 7.6,0 14.57,1.24 20.94,3.71 6.36,2.47 11.9,5.95 16.61,10.43 4.71,4.48 8.4,9.72 11.05,15.72 2.65,5.99 3.98,12.61 3.98,19.84 0,7.14 -1.33,13.75 -3.98,19.84 -2.65,6.09 -6.34,11.35 -11.05,15.79 -4.71,4.44 -10.25,7.89 -16.61,10.36 -6.36,2.47 -13.29,3.71 -20.8,3.71zm-0.14 -18.94c4.3,0 8.26,-0.73 11.87,-2.2 3.62,-1.46 6.8,-3.57 9.54,-6.31 2.75,-2.75 4.87,-5.99 6.38,-9.75 1.51,-3.75 2.27,-7.92 2.27,-12.49 0,-4.58 -0.76,-8.74 -2.27,-12.49 -1.51,-3.75 -3.62,-7 -6.31,-9.75 -2.7,-2.75 -5.88,-4.85 -9.54,-6.31 -3.66,-1.46 -7.64,-2.2 -11.94,-2.2 -4.3,0 -8.26,0.73 -11.87,2.2 -3.62,1.46 -6.8,3.57 -9.54,6.31 -2.75,2.75 -4.87,5.99 -6.38,9.75 -1.51,3.75 -2.27,7.92 -2.27,12.49 0,4.48 0.76,8.63 2.27,12.42 1.51,3.8 3.62,7.07 6.31,9.82 2.7,2.75 5.88,4.85 9.54,6.31 3.66,1.46 7.64,2.2 11.94,2.2zm-285.13 -120.94c4.3,0 8.26,-0.73 11.87,-2.2 3.62,-1.46 6.8,-3.57 9.54,-6.31 2.75,-2.75 4.87,-5.99 6.38,-9.75 1.51,-3.75 2.27,-7.92 2.27,-12.49 0,-4.58 -0.76,-8.74 -2.27,-12.49 -1.51,-3.75 -3.62,-7 -6.31,-9.75 -2.7,-2.75 -5.88,-4.85 -9.54,-6.31 -3.66,-1.46 -7.64,-2.2 -11.94,-2.2 -4.3,0 -8.26,0.73 -11.87,2.2 -3.62,1.46 -6.8,3.57 -9.54,6.31 -2.75,2.75 -4.87,5.99 -6.38,9.75 -1.51,3.75 -2.27,7.92 -2.27,12.49 0,4.48 0.76,8.63 2.27,12.42 1.51,3.8 3.62,7.07 6.31,9.82 2.7,2.75 5.88,4.85 9.54,6.31 3.66,1.46 7.64,2.2 11.94,2.2zm69.33 17.3l0 -96.1 18.4 0 56.7 69.19 -8.92 0 0 -69.19 21.97 0 0 96.1 -18.26 0 -56.83 -69.19 8.92 0 0 69.19 -21.97 0zm131.38 -57.38l46.26 0 0 17.3 -46.26 0 0 -17.3zm1.65 39.54l52.3 0 0 17.85 -74.41 0 0 -96.1 72.62 0 0 17.85 -50.52 0 0 60.4z"/>
 </g>
</svg>
