<?xml version="1.0" encoding="UTF-8"?>
<!DOCTYPE svg PUBLIC "-//W3C//DTD SVG 1.1//EN" "http://www.w3.org/Graphics/SVG/1.1/DTD/svg11.dtd">
<!-- Creator: CorelDRAW -->
<svg xmlns="http://www.w3.org/2000/svg" xml:space="preserve" width="1.58539in" height="1.5832in" version="1.1" style="shape-rendering:geometricPrecision; text-rendering:geometricPrecision; image-rendering:optimizeQuality; fill-rule:evenodd; clip-rule:evenodd"
viewBox="0 0 68.68 68.58"
 xmlns:xlink="http://www.w3.org/1999/xlink"
 xmlns:xodm="http://www.corel.com/coreldraw/odm/2003">
 <defs>
  <style type="text/css">
   <![CDATA[
    .fil0 {fill:white}
   ]]>
  </style>
 </defs>
 <g id="Layer_x0020_1">
  <metadata id="CorelCorpID_0Corel-Layer"/>
  <path class="fil0" d="M35.42 64.16c-0,-1.57 -0.42,-9.65 0.15,-10.5 0,0 3.51,3.49 7.21,4.19 0.43,0.06 1.13,0.14 1.44,0.26 0.2,2.36 -5.53,6.29 -8.03,7.26 -1.03,0.4 -0.77,-0.35 -0.77,-1.22zm-11.69 -6.12c1.13,-0.84 5.45,-0.57 7.85,-3.82 0.2,-0.27 0.67,-0.37 0.8,-0.86 1.23,-0.02 0.51,11.27 0.51,12.33 -1.25,1.01 -6.82,-3.81 -7.44,-4.8 -0.6,-0.95 -1.73,-1.67 -1.72,-2.84zm28.45 2.28c-0.46,0.67 -2.62,1.95 -3.42,2.1 -0.44,0.75 -5.09,2.43 -6.19,2.42 0.02,-0.38 3.46,-4.34 3.97,-5.14 1.07,-1.68 0.45,-1.8 2.72,-2.41 5.03,-1.35 2.35,-3.93 6.12,-0.48 1.12,1.02 -0.98,1.99 -1.69,2.57 -0.39,0.31 -1.08,0.86 -1.51,0.94zm-35.77 0.31c-5.48,-3.61 -4.16,-2.59 -2.27,-4.93 1.25,-1.54 2.39,0.92 4.33,1.25 0.72,0.12 2.13,0.58 2.44,0.78 0.71,0.45 0.46,2.08 1.4,2.36 0.42,1.74 2.29,3.5 3.52,4.57 0.03,1.22 -9.16,-2.79 -9.43,-4.03zm32.4 -11.78c0.94,-0.11 5,-0.51 5.71,0.09 -0.02,1.96 -4.05,6.06 -5.99,5.95 -0.23,-0.54 0.12,-5.2 0.28,-6.04zm-31.57 0.16c3.38,0.01 2.03,0.51 2.33,3.7 0.07,0.81 0.48,2.65 -0.84,1.84 -1.52,-0.93 -5.89,-4.75 -4.82,-5.82 0.41,-0.41 2.67,0.28 3.33,0.28zm27.05 -5.52c2,2.76 3.34,12.31 0.41,12.04 -7.31,-0.67 -10.08,-6.72 -9.25,-13.59 3.18,-1.68 0.6,0.68 4.78,-2.97 0.72,-0.63 4.08,3.71 4.06,4.52zm-22.28 7.2c-0.01,-4.24 2,-8.45 5.12,-11.34 1.04,-0.96 2.09,2.04 5,2.52 1.72,0.28 1.04,9.95 -4.53,12.38 -3.7,1.61 -5.14,2.08 -5.39,-1.24 -0.08,-1.07 -0.21,-0.35 -0.21,-2.32zm34.91 3.94c-3.02,-3.27 -0.39,-1.62 0.37,-6.2 0.13,-0.77 4.79,-2.87 6.33,-4.69 0.19,-0.23 0.51,-0.59 0.79,-0.67 0.98,1.42 -5.27,11.42 -6.67,12.26l-0.83 -0.69zm-45.77 -5.9c-0.24,1.35 2.39,3.98 1.45,4.79 -2.56,2.22 -2.26,2.55 -4.72,-1.23 -0.24,-0.36 -1.98,-2.8 -2,-3.28 -1.46,-0.74 -1.48,-4.25 -2.45,-5.13 -0.02,-1.66 -0.43,-0.68 -0.13,-1.61 0.1,-0.01 5.15,4.2 6.39,4.75 0.78,0.35 1.49,0.5 1.45,1.71zm42.86 -7.14c-0.07,0.92 0.93,2.68 0.88,4.15 -1.58,0.66 -5.99,1.67 -6.86,-0.05 -3.09,-6.17 -1.35,-3.73 -6.13,-9.13 1.93,-1.91 9.02,-0.45 11.53,3.82 0.16,0.28 0.6,0.64 0.58,1.21zm-36.12 4.88c-5.51,0.03 -5.19,-0.83 -3.47,-5.03 1.46,-3.56 7.99,-7.24 11.65,-4.88 -0.19,0.83 -2.52,2.49 -3.04,3.25 -3.53,5.15 -1.89,6.64 -5.14,6.66zm-7.18 -1.88c-1.7,1.17 -10.12,-9.07 -7.02,-9.06 0.66,0 12.04,-0.3 11.84,0.31 -0.05,0.15 -3.43,3.41 -4.32,6.57 -0.08,0.35 -0.33,2.04 -0.49,2.18zm46.89 -0.06l0.06 0.02c-0.04,-0.03 -1.02,-5.23 -4.73,-8.34 -0.2,-0.15 -0.44,-0.46 -0.3,-0.6 0.37,-0.16 12.17,-0.14 12.76,0.02 0.23,2.08 -6.38,10.13 -7.81,8.9zm-24.61 -15.28c4.29,-1.51 8,4.35 5.34,8.03 -3.64,5.02 -11.29,0.46 -8.97,-4.99 0.73,-1.72 2.06,-2.48 3.63,-3.03zm-28.51 0.47c1.05,-1.37 0.98,-2.11 3.16,-3.87 0.67,-0.55 1.94,-1.92 2.84,-1.73 2.32,9 6.93,9.09 3.73,9.1l-11.18 -0.05c-0.29,-0.86 0.74,-3.19 1.46,-3.45zm49.72 3.41c-3.89,0.01 1.83,-1.12 3.28,-8.9 0.37,-2 9.21,7.38 7.82,8.7 -0.62,0.59 -9.82,0.2 -11.09,0.2zm-41.33 -10.16c1.34,-0.84 5.27,-1.12 7.29,-0.71 2.22,3.75 -0.34,2.42 5.16,8.6 0.53,0.59 2.53,1.94 -2.42,2.01 -5.08,0.08 -10.5,-4.44 -10.03,-9.9zm29.36 9.16c0.04,-0.08 3.49,-3.97 4.4,-5.32 2.04,-3.04 0.63,-4.6 3.87,-4.6 4.58,-0 5.66,0.74 3.2,5.13 -1.85,3.3 -3.08,3.67 -6.28,5.04 -1,0.43 -4.1,0.34 -5.19,-0.25zm-12.95 -3.76c-1.43,-0.02 -0.72,3.35 -4.44,-1.88 -2.52,-3.54 -2.96,-5.94 -2.97,-10.16 -0,-0.66 0.36,-1.38 0.51,-2.75l0.11 0.12c0.16,-2.09 12.15,0.83 9.8,12.17 -0.2,0.96 -2.04,2.61 -3,2.51zm12.37 0.55c-0.66,2.54 -2.91,-1.02 -4.97,-1.75 -0.46,-0.11 -1.04,-0.26 -1.43,-0.52 -0.33,-6.19 1.46,-12.13 8.11,-13.46 2.47,-0.49 2.81,0.26 3.1,2.45 0.49,3.74 -0.72,5.03 -0.87,8.14 -0.5,0.17 -0.57,0.7 -0.58,1.16 -1.43,0.88 -1.83,3.92 -3.35,3.98zm20.4 -5.23c-3.52,-3.25 -3.95,-0.98 -5.16,-4.69 -1.15,-3.54 -3.04,-2.55 -0.27,-5.47 0.2,-0.23 0.57,-0.6 0.84,-0.67 1.58,0.99 8.14,11.44 7.3,13.31 -0.67,-0.06 -2.19,-2.01 -2.71,-2.47zm-57.65 1.67c-0.02,0.51 -0.76,0.96 -1.07,1.04 0.12,-2.43 5.72,-13.86 7.61,-13.56 0.79,0.12 1.42,1.49 2.06,1.85 0.1,0.64 -1.62,3.66 -2.01,4.57 -0.99,2.27 0.07,1.59 -4.07,4.04 -0.7,0.42 -1.63,2.04 -2.51,2.06zm47.58 -9.2c0.7,-0.03 2.76,3.21 2.25,3.67l-5.21 -0.23c-0.22,-1.63 -0.14,-3.25 -0.32,-4.89 -0.18,-1.69 3.26,0.71 3.27,1.44zm-37.6 1.86c0.08,-0.5 1.56,-2.29 2.06,-2.42l0.03 -0.27c2.65,-1.45 3.59,-3.24 3.18,0.49 -0.62,5.56 1.08,3.32 -4.67,4.08 -2.65,0.35 -1.16,-1.56 -0.6,-1.88zm16.05 -13.96c0.26,-0.14 0.67,-0.48 0.95,-0.47 2.48,-2.88 1.51,6.58 1.5,8.89 -0,0.59 0.16,2.56 -0.2,2.9 -0.75,-0.17 -3.43,-3.88 -8.09,-4.58 -0.43,-0.07 -0.29,-0.06 -0.58,-0.21 -0.13,-1.78 5.04,-6.48 6.42,-6.52zm5 0.81c-0.01,-2.89 0.75,-1.99 4.58,0.36 0.83,0.51 4.68,4.3 4.26,5.28 -3.1,1.23 -4.85,0.22 -8.29,4.25 -1.15,1.34 -0.55,-9.14 -0.55,-9.9zm9.64 1.67c-0.61,-0.76 -2.5,-1.88 -2.47,-2.91 4.63,1.67 6.69,2.41 10.78,5.25 2.72,1.9 2.7,2.27 0.21,4.2 -0.9,0.7 -3.16,-1.16 -3.66,-1.41 -4.47,-2.2 -1.59,-0.11 -4.64,-4.7 -0.18,-0.24 -0.18,-0.09 -0.21,-0.44zm-27.95 0.96c1.85,-1.11 6.31,-3.73 8.53,-3.63 -0,0.07 -3.89,4.79 -4.35,5.85 -0.59,1.38 -2.92,1.4 -5.06,2.7 -1.46,0.88 -2.37,-0.04 -3.28,-1.43 -0.06,-0.15 -0.04,-0.13 -0.02,-0.31l4.19 -3.17zm-12.19 8.58c-0.18,1.06 -1.09,1.79 -1.55,2.88 -3.16,7.52 -3.47,10.47 -3.34,19.25 0.07,5.07 3.02,11.05 5.82,15.22 4.02,5.99 10.32,11.45 17.75,13.46 7.87,2.13 15.73,2.6 23.34,-0.73 9.6,-4.2 16.62,-11.03 20.09,-21.03 2.63,-7.57 1.84,-14.88 -0.4,-22.57 -2.11,-7.24 -9.41,-15.46 -16.16,-18.6 -9.26,-4.3 -15.66,-4.94 -25.77,-2.74 -0.32,0.07 -1.98,0.49 -2.1,0.84 -3.08,0.13 -12.17,6.52 -15.32,10.62 -0.69,0.9 -2.13,2.27 -2.36,3.4z"/>
 </g>
</svg>
