<?xml version="1.0" encoding="UTF-8"?>
<!DOCTYPE svg PUBLIC "-//W3C//DTD SVG 1.1//EN" "http://www.w3.org/Graphics/SVG/1.1/DTD/svg11.dtd">
<!-- Creator: CorelDRAW -->
<svg xmlns="http://www.w3.org/2000/svg" xml:space="preserve" width="4.72957in" height="5.5793in" version="1.1" style="shape-rendering:geometricPrecision; text-rendering:geometricPrecision; image-rendering:optimizeQuality; fill-rule:evenodd; clip-rule:evenodd"
viewBox="0 0 117.54 138.66"
 xmlns:xlink="http://www.w3.org/1999/xlink"
 xmlns:xodm="http://www.corel.com/coreldraw/odm/2003">
 <defs>
  <style type="text/css">
   <![CDATA[
    .fil0 {fill:#fff}
   ]]>
  </style>
 </defs>
 <g id="Layer_x0020_1">
  <metadata id="CorelCorpID_0Corel-Layer"/>
  <path class="fil0" d="M53.33 64.5c-0.57,-9.98 1.79,-33.19 7.35,-38.14 5.38,-4.79 8.61,6.52 9.69,11 1.49,6.2 2.35,13.52 2.58,20.26 0.37,10.81 -1.31,32.3 -7.45,38.16 -2.94,2.81 -5.65,-0.62 -6.75,-2.62 -1.2,-2.18 -2.29,-5.61 -2.88,-8.46 -1.44,-6.94 -2.12,-12.77 -2.55,-20.2zm4.45 -20.61l10.36 -0 0.01 -2.15 -10.36 0.01 -0.01 2.14zm0.01 32.24l10.35 0.02 0.01 -2.12 -10.39 0.01 0.02 2.09zm0.04 -6.15l10.22 -0.01 0.13 -2.12 -10.38 0 0.04 2.12zm-0.03 -8.69l10.34 0.03 0.02 -2.13 -10.38 0 0.03 2.1zm-0.01 -8.15l10.36 0 0 -2.13 -10.34 0 -0.02 2.12zm-0 29.93l10.37 -0.01 -0 -2.13 -10.32 0 -0.05 2.14zm28.16 37.86c1.49,-0.53 3.63,-0.07 4.62,-0.91 1.13,-0.97 1.03,-2.76 0.43,-3.98 -1.28,-2.61 -4.12,-4.04 -1.31,-7.21 5.26,-5.96 9.61,-2.7 8.03,-12.56 3.12,-4.3 7.93,-19.08 7.11,-26.02 4.53,-2.53 12.14,-13.76 12.72,-21.02 -3.14,1.4 -6.78,4.13 -11.29,3.35 -2.53,-0.44 -3.89,-4.33 -4.98,-6.16 -1.22,-2.06 -0.9,-1.75 -1.83,-2.16 -0.11,-1.17 -5.48,-8.65 -6.38,-9.74 -1.27,-1.54 -2.64,-2.97 -4,-4.2 -1.14,-1.04 -3.27,-2.75 -4.08,-3.66 -0.33,-1.26 -0.98,-2.08 -1.61,-3.05 -0.38,-0.58 -0.44,-0.71 -0.94,-1.22 -0.89,-0.9 -0.7,-0.16 -0.69,-1.31l1.35 -3.5 -1.25 -0.33 -1.51 2.99c-0.76,0.32 -3.36,-0.57 -4.41,-0.94 -4.48,-1.58 -1.28,-2.15 -8.87,-3.06 -5.15,-0.62 -5.9,-2.12 -8.3,-3.58 -3.71,-2.26 -12.01,-4.09 -12.17,-5.86 -0.03,-0.35 2.39,-3.71 0.16,-6.2 -1.32,-1.47 -10.27,0.18 -12.18,0.52 -5.01,0.91 -9.28,4.71 -13.09,3.1 -1.84,-0.78 -2.41,-1.18 -4.11,-0.01 -0.96,1.4 1.77,1.88 -3,5.5 -4.94,3.75 1.41,6.21 -6.02,10.93 -3.57,2.27 -6.26,4.94 -8.01,8.94 -1.29,2.96 1.24,4 2.26,5.64 3.03,4.85 -2.62,9.67 -2.62,13.4 0.24,0.84 5.16,4.59 6.93,6.66 2.76,3.23 3.25,4.06 7.53,6.23 3.69,1.86 4.1,0.23 7.23,-0.59 -2.45,11.31 1.45,27.62 7.64,37.08 5.5,8.41 12.61,14.73 22.02,17.93 0.87,0.3 3.55,0.89 4.23,1.28 1.18,11.78 5.92,12 5.94,16.1 0.02,6.47 3.95,5.47 7.53,4.96 5.09,-0.72 10.27,-2.06 11.96,-5.83 1.09,-2.43 1.74,-3.56 3.29,-5.45 0.57,-0.7 1.64,-1.82 1.9,-2.59 0.69,-2.08 -0.9,-1.13 -0.25,-3.47zm-46.9 -19.41c-0.6,0.69 -0.94,1.43 -0.9,2.44 1.8,0.48 1.42,-0.23 2.24,-1.76l10.05 -20.74c0.81,1.12 1.28,3.41 1.9,4.92 1.67,4.04 5.04,10.94 9.8,11.66 7.12,1.07 10.85,-9.5 13.12,-15.14 0.76,0.47 9.17,16.58 10.36,18.67l0.42 0.83 1.34 -0.58 -0.5 -0.9 -0.43 -0.77c-2.63,-5.59 -6.02,-11.21 -8.83,-16.6 -0.38,-0.73 -0.98,-1.65 -1.29,-2.41 -0.31,-0.77 1.85,-9.19 2.26,-12.21 0.65,-4.74 0.54,-9.79 0.09,-14.48 -0.03,-2.67 -1.06,-5.62 -1.34,-8.2 -0.37,-0.87 -1.53,-5.29 -1.47,-6.01 -0.27,-0.27 -0.17,-0.13 -0.42,-0.53l-0.87 -2.87c-0.72,-0.55 1.63,-4.63 2.27,-5.93 0.69,-1.41 2,-4.51 2.89,-5.78 3.3,0.68 12.73,11.85 13.83,14.47 0.16,0.75 1.84,3.6 2.38,4.71 0.92,1.87 1.45,3.21 2.17,5.26 4.21,11.82 3.86,26.03 -0.29,37.27 -8.78,23.76 -32.68,35.9 -53.81,22.13 -5.96,-3.89 -10.1,-9.13 -13.8,-15.57 -6.82,-11.89 -7.88,-28.74 -3.78,-42.21 0.57,-1.89 1.52,-3.78 1.96,-5.43 0.03,-1.81 5.75,-10.32 7.19,-12.13 1.93,-2.42 7.11,-7.94 10.26,-9.14 0.93,0.98 3.56,6.49 4.53,8.22 0.69,1.23 1.98,2.87 1.51,4.22 -4.84,13.85 -6.2,23.28 -3.11,38.14 0.34,1.65 1.26,3.53 0.64,4.89l-10.09 20.9c-0.03,0.07 -0.07,0.15 -0.1,0.22l-0.22 0.45zm31.77 -80.93l-0.5 0.12c3.46,0.67 5.38,2.26 8.01,3.16 -0.3,1.34 -4.19,9.36 -4.92,10.39 -0.6,-0.71 -1.26,-2.34 -1.86,-3.38 -3.52,-6.12 -8.91,-10.19 -14.65,-3.26 -2.14,2.59 -3.13,5.45 -3.88,6.24 -0.81,-0.73 -3.57,-6.25 -4.49,-7.99l-1.17 -2.03c-0.34,-0.41 -0.09,-0.13 -0.42,-0.41l-1.27 0.48c0.76,-1 1.42,-0.71 2.77,-1.35 5.72,-2.71 19.4,-4.17 22.39,-1.97zm-8.12 105.66l2.35 -0.8 0.77 0.92 1.71 -0.58 -4.5 -5.17 -1.67 0.57 -0.42 6.84 1.7 -0.58 0.05 -1.19zm0.15 -3.42l1.27 1.51 -1.35 0.46 0.09 -1.97zm7.84 2.06c2.21,-0.75 2.78,-2.56 2.2,-4.28 -0.58,-1.72 -2.14,-2.8 -4.35,-2.05 -2.21,0.75 -2.78,2.56 -2.2,4.28 0.58,1.72 2.14,2.8 4.35,2.05zm-0.46 -1.36c-1.13,0.38 -1.94,-0.29 -2.26,-1.24 -0.32,-0.95 -0.09,-1.98 1.04,-2.36 1.13,-0.38 1.94,0.29 2.26,1.24 0.32,0.95 0.09,1.98 -1.04,2.36zm4.36 -6.84l-2.1 0.71 2.04 6 1.58 -0.54 -1.17 -3.45 2.58 2.97 1.17 -0.4 0.23 -3.93 1.17 3.45 1.58 -0.54 -2.04 -6 -2.1 0.71 -0.24 4.15 -2.72 -3.14zm9.26 2.37l2.35 -0.8 0.77 0.92 1.71 -0.58 -4.5 -5.17 -1.67 0.57 -0.42 6.84 1.7 -0.58 0.05 -1.19zm0.15 -3.42l1.27 1.51 -1.35 0.46 0.09 -1.97z"/>
 </g>
</svg>
