<?xml version="1.0" encoding="UTF-8"?>
<!DOCTYPE svg PUBLIC "-//W3C//DTD SVG 1.1//EN" "http://www.w3.org/Graphics/SVG/1.1/DTD/svg11.dtd">
<!-- Creator: CorelDRAW -->
<svg xmlns="http://www.w3.org/2000/svg" xml:space="preserve" width="13.8772in" height="9.39132in" version="1.1" style="shape-rendering:geometricPrecision; text-rendering:geometricPrecision; image-rendering:optimizeQuality; fill-rule:evenodd; clip-rule:evenodd"
viewBox="0 0 1551.91 1050.25"
 xmlns:xlink="http://www.w3.org/1999/xlink"
 xmlns:xodm="http://www.corel.com/coreldraw/odm/2003">
 <defs>
  <style type="text/css">
   <![CDATA[
    .fil0 {fill:#8900AB}
   ]]>
  </style>
 </defs>
 <g id="Layer_x0020_1">
  <metadata id="CorelCorpID_0Corel-Layer"/>
  <g>
   <path class="fil0" d="M993.98 517.57c9.32,-4.66 65.23,-1.55 79.2,-1.55l60.57 0c12.42,0 13.98,0 15.53,4.66 -20.19,7.76 -54.35,12.42 -79.2,12.42 -23.29,0 -38.82,-3.11 -60.57,-6.21 -9.32,-1.55 -13.98,-1.55 -15.53,-9.32zm-652.25 138.22l12.42 -18.64c3.11,-6.21 10.87,-12.42 10.87,-18.64 -7.77,0 -12.42,3.11 -18.64,9.32 -4.66,3.11 -3.11,0 -4.66,4.66 -9.32,1.55 -24.85,23.29 -29.51,34.17 -7.76,13.98 -12.42,31.06 -13.98,49.7 -1.55,18.64 4.66,37.27 10.87,52.8 3.11,6.21 9.32,13.98 13.98,18.64 3.11,6.21 9.32,10.87 12.42,18.64 -9.32,-1.55 -24.85,-17.08 -32.61,-23.29 -10.87,-7.77 -21.74,-17.08 -31.06,-24.85 -12.42,-9.32 -55.91,-41.93 -59.01,-51.25 6.21,-6.21 24.85,-9.32 26.4,-15.53 15.53,-4.66 45.04,-27.95 51.25,-41.93 1.55,0 0,1.55 3.11,-1.55l6.21 -13.98c9.32,-21.74 -1.55,-51.25 -13.98,-54.35 -4.66,7.76 -3.11,27.95 -4.66,37.27 -1.55,6.21 -3.11,10.87 -4.66,17.08 -1.55,6.21 -4.66,9.32 -6.21,13.98 -3.11,3.11 -3.11,4.66 -6.21,7.76 -6.21,12.42 -13.98,15.53 -18.64,21.74 -7.76,1.55 -12.42,9.32 -21.74,10.87 -1.55,-13.98 15.53,-23.29 9.32,-32.61 -9.32,-6.21 -17.08,10.87 -18.64,17.08 -3.11,1.55 -4.66,1.55 -7.76,0 -4.66,-20.19 6.21,-49.7 17.08,-63.67 4.66,-7.77 13.98,-15.53 20.19,-21.74 4.66,-3.11 7.76,-4.66 12.42,-7.76 3.11,0 6.21,-1.55 7.76,-3.11 4.66,-4.66 1.55,0 3.11,-6.21 -4.66,-3.11 -9.32,-1.55 -13.98,0 -1.55,0 -6.21,1.55 -6.21,1.55l-4.66 3.11c0,-1.55 0,0 -1.55,0 -15.53,0 -38.82,26.4 -45.04,37.27 -18.64,29.51 -4.66,57.46 -7.76,65.23 -7.76,-1.55 -26.4,-27.95 -32.61,-35.72 -9.32,-12.42 -26.4,-29.51 -26.4,-41.93 26.4,-17.08 69.88,-37.27 51.25,-80.76 -1.55,-6.21 -1.55,-9.32 -9.32,-10.87 -6.21,12.42 4.66,35.72 -18.64,62.12 -4.66,6.21 -6.21,9.32 -17.08,9.32l0 -15.53c-10.87,0 -9.32,10.87 -18.64,13.98 -4.66,-10.87 3.11,-26.4 3.11,-35.72 4.66,-3.11 3.11,-1.55 4.66,-6.21 1.55,-3.11 1.55,-3.11 3.11,-6.21 3.11,-3.11 6.21,-6.21 9.32,-9.32 9.32,-10.87 15.53,-10.87 17.08,-18.64 -9.32,-6.21 -31.06,9.32 -34.17,17.08 -12.42,6.21 -15.53,27.95 -20.19,34.17 -7.76,-1.55 -13.98,-15.53 -20.19,-26.4 -4.66,-9.32 -10.87,-24.85 -18.64,-27.95 -1.55,1.55 -1.55,0 -1.55,3.11l9.32 27.95c3.11,9.32 0,9.32 0,9.32 -7.76,3.11 -52.8,-10.87 -57.46,9.32 7.76,3.11 17.08,1.55 26.4,1.55 6.21,1.55 15.53,3.11 21.74,6.21 9.32,3.11 27.95,10.87 27.95,23.29 -7.76,0 -9.32,-1.55 -17.08,0 0,7.76 4.66,9.32 10.87,10.87 1.55,3.11 1.55,1.55 1.55,4.66 -26.4,3.11 -45.04,-4.66 -63.67,-18.64 -6.21,-4.66 -9.32,-9.32 -18.64,-9.32 -1.55,20.19 23.29,37.27 40.38,40.38 9.32,1.55 31.06,1.55 40.38,0 27.95,-3.11 13.98,-7.76 29.51,3.11 3.11,10.87 23.29,29.51 23.29,40.38 -7.77,1.55 -23.29,-1.55 -31.06,-3.11 -18.64,-1.55 -41.93,3.11 -55.91,12.42 -4.66,3.11 -15.53,10.87 -17.08,17.08 18.64,0 21.74,-6.21 35.72,-7.77 12.42,-1.55 29.51,0 41.93,0 20.19,0 52.8,9.32 55.91,24.85 -9.32,3.11 -21.74,-1.55 -31.06,3.11 0,4.66 -1.55,4.66 4.66,7.76 10.87,3.11 20.19,1.55 27.95,7.76 -6.21,4.66 -12.42,6.21 -21.74,7.77 -24.85,3.11 -48.14,3.11 -69.88,-4.66 -23.29,-7.76 -29.51,-15.53 -48.14,-26.4 -1.55,17.08 41.93,62.12 100.94,51.25 10.87,-1.55 31.06,-6.21 37.27,-15.53 7.77,-1.55 10.87,-9.32 20.19,-7.76 9.32,1.55 38.82,29.51 46.59,37.27 10.87,10.87 18.64,20.19 29.51,27.95 4.66,6.21 24.85,21.74 26.4,29.51 -13.98,-1.55 -26.4,-21.74 -77.65,-27.95 -26.4,-3.11 -77.65,6.21 -86.97,17.08 -24.85,7.76 -59.01,46.59 -57.46,63.67 6.21,0 18.64,-12.42 31.06,-21.74 32.04,-21.36 64.08,-32.39 104.01,-33.09l-44.99 -1.07 65.23 1.55c10.87,0 21.74,3.11 32.61,4.66 7.77,1.55 24.85,4.66 27.95,10.87 -7.76,10.87 -49.7,6.21 -60.57,15.53 1.55,21.74 43.48,4.66 57.46,12.42 -1.55,12.42 -51.25,32.61 -60.57,35.72 -48.14,15.53 -66.78,4.66 -85.41,7.76 -4.66,-1.55 -10.87,-3.11 -15.53,-4.66 -6.21,-1.55 -10.87,-1.55 -15.53,-4.66 -7.76,-3.11 -20.19,-9.32 -29.51,-6.21 0,7.76 9.32,12.42 21.74,18.64 45.04,27.95 105.6,31.06 152.19,4.66 13.98,-7.76 37.27,-24.85 41.93,-37.27 9.32,-4.66 7.76,-23.29 27.95,-24.85 15.53,-1.55 26.4,10.87 35.72,17.08 9.32,7.76 54.35,41.93 62.12,43.48 7.76,-1.55 17.08,-13.98 21.74,-18.64 7.76,-9.32 17.08,-13.98 17.08,-21.74 -4.66,-6.21 -49.7,-21.74 -60.57,-29.51 0,-9.32 3.11,-7.76 9.32,-12.42 9.32,-7.76 23.29,-23.29 31.06,-34.17 12.42,-18.64 23.29,-34.17 23.29,-62.12 1.55,-49.7 -31.06,-104.05 -65.23,-105.6 1.55,13.98 37.27,40.38 35.72,96.29 0,21.74 -3.11,37.27 -10.87,54.35 -4.66,13.98 -9.32,21.74 -17.08,32.61 -1.55,3.11 -1.55,3.11 -3.11,4.66 -13.98,7.76 1.55,-38.82 -12.42,-49.7 -23.29,-17.08 -12.42,37.27 -13.98,49.7 -9.32,0 -18.64,-21.74 -21.74,-29.51 -34.17,-69.88 -3.11,-108.71 -3.11,-122.69zm282.64 -279.54l0 -7.76c15.53,-6.21 32.61,-4.66 45.04,-10.87 0,-6.21 1.55,-7.76 -12.42,-12.42 -29.51,-9.32 -35.72,20.19 -40.38,31.06 -26.4,13.98 -27.95,69.88 -27.95,71.44 -6.21,0 -6.21,-4.66 -7.76,-10.87l-29.51 -90.07c-4.66,-15.53 -34.17,-93.18 -32.61,-104.05 13.98,-4.66 178.59,-1.55 215.87,-1.55 35.72,0 27.95,-26.4 1.55,-26.4 -45.04,-3.11 -97.84,-1.55 -144.43,-1.55 -23.29,1.55 -48.14,0 -71.44,0 -23.29,0 -49.7,-1.55 -57.46,15.53 3.11,9.32 10.87,9.32 17.08,17.08 1.55,4.66 -57.46,163.06 -66.78,191.02 -3.11,9.32 -21.74,55.91 -18.64,62.12 7.77,0 9.32,0 12.42,-4.66 13.98,-27.95 51.25,-142.87 68.33,-161.51 6.21,13.98 4.66,72.99 4.66,93.18 0,23.29 18.64,60.57 32.61,65.23 4.66,-15.53 0,-124.24 1.55,-155.3l1.55 -7.76c1.55,-3.11 -3.11,-1.55 3.11,-3.11 4.66,6.21 29.51,69.88 34.17,80.76 10.87,26.4 20.19,55.91 32.61,82.31 9.32,0 13.98,-1.55 18.64,4.66 1.55,4.66 4.66,12.42 6.21,17.08 13.98,32.61 -3.11,43.48 -34.17,49.7 -12.42,3.11 -31.06,1.55 -38.82,4.66 -6.21,1.55 -12.42,4.66 -18.64,6.21 -13.98,6.21 -7.76,12.42 -6.21,12.42l9.32 1.55c4.66,0 7.76,-1.55 10.87,-1.55 7.77,0 15.53,0 23.29,-1.55 15.53,0 31.06,-3.11 37.27,3.11l1.55 3.11c0,9.32 18.64,85.41 23.29,96.29 1.55,3.11 4.66,10.87 7.76,12.42 7.77,6.21 6.21,0 13.98,-1.55 9.32,10.87 12.42,45.04 21.74,59.01l7.76 -1.55c6.21,-15.53 -6.21,-4.66 6.21,-43.48 7.77,-23.29 23.29,-52.8 29.51,-74.54 4.66,-10.87 7.76,-31.06 17.08,-34.17 0,21.74 -21.74,96.29 7.76,102.5 6.21,-7.77 3.11,-18.64 4.66,-29.51 0,-26.4 7.76,-63.67 13.98,-88.52 4.66,-18.64 10.87,-35.72 15.53,-52.8 1.55,-9.32 6.21,-18.64 7.76,-26.4 1.55,-15.53 -1.55,-17.08 7.76,-26.4 15.53,-18.64 20.19,-12.42 21.74,-46.59 0,-52.8 -1.55,-113.37 3.11,-166.17 1.55,-12.42 1.55,-21.74 10.87,-24.85 9.32,3.11 7.76,10.87 10.87,21.74 6.21,24.85 12.42,52.8 15.53,79.2l6.21 121.13c0,12.42 -1.55,18.64 -3.11,29.51 -3.11,37.27 -1.55,41.93 -15.53,80.76 -4.66,17.08 -3.11,38.82 -4.66,57.46 0,6.21 -6.21,51.25 0,55.91 10.87,4.66 10.87,-7.76 12.42,-15.53l17.08 -77.65c4.66,-26.4 12.42,-88.52 12.42,-113.37 0,-49.7 0,-130.45 -7.76,-180.15 -1.55,-10.87 -7.77,-46.59 -6.21,-55.91 6.21,-3.11 69.88,-7.76 80.76,-7.76 20.19,0 65.23,-6.21 80.76,-3.11 1.55,9.32 -34.17,114.92 -38.82,132 -7.76,21.74 -13.98,41.93 -21.74,65.23 -6.21,18.64 -15.53,46.59 -20.19,65.23 -4.66,20.19 -1.55,24.85 9.32,31.06 24.85,17.08 68.33,27.95 100.94,27.95 21.74,0 91.63,-9.32 108.71,-21.74 7.76,-6.21 7.76,-21.74 10.87,-31.06 3.11,0 17.08,4.66 18.64,0l-20.19 -60.57c-7.76,-18.64 -17.08,-37.27 -24.85,-55.91 -15.53,-38.82 -31.06,-77.65 -48.14,-114.92 -7.77,-17.08 -13.98,-43.48 -26.4,-55.91 -13.98,-13.98 -48.14,-6.21 -71.44,-6.21 -27.95,0 -138.22,6.21 -155.3,3.11 -1.55,-13.98 -3.11,-18.64 -6.21,-32.61 -1.55,-9.32 -7.76,-17.08 -7.76,-26.4 7.76,-7.77 9.32,-7.77 9.32,-21.74 0,-26.4 4.66,-69.88 -12.42,-76.1 -18.64,-9.32 -23.29,-9.32 -32.61,-27.95 -3.11,-6.21 -6.21,-15.53 -9.32,-20.19 -4.66,-6.21 -23.29,-12.42 -23.29,3.11 0,7.76 7.76,48.14 9.32,51.25 24.85,3.11 43.48,-3.11 45.04,24.85 1.55,10.87 0,23.29 0,34.17 1.55,15.53 4.66,15.53 6.21,27.95 -7.76,0 -10.87,-1.55 -17.08,-3.11 -4.66,-1.55 -10.87,-1.55 -17.08,-1.55 -10.87,0 -24.85,-1.55 -34.17,3.11 -1.55,9.32 7.76,13.98 12.42,18.64 4.66,6.21 7.76,10.87 9.32,21.74 3.11,23.29 6.21,91.63 6.21,118.03 0,10.87 0,18.64 -1.55,29.51 -1.55,9.32 -6.21,15.53 -6.21,24.85 4.66,7.76 7.76,3.11 9.32,15.53 1.55,6.21 1.55,63.67 0,68.33 -4.66,-1.55 -1.55,0 -4.66,-4.66 0,0 -1.55,-6.21 -1.55,-7.76 -6.21,-15.53 -4.66,-32.61 -9.32,-41.93l-7.76 0c0,0 0,0 0,0 -4.66,7.77 -1.55,6.21 -7.77,15.53 -12.42,23.29 -10.87,24.85 -20.19,49.7 -6.21,12.42 -12.42,18.64 -23.29,23.29 -4.66,4.66 -27.95,9.32 -21.74,20.19 7.76,6.21 24.85,-1.55 34.17,-1.55 7.77,0 15.53,12.42 15.53,23.29 0,6.21 -45.04,121.13 -52.8,139.77 -3.11,6.21 -4.66,21.74 -12.42,24.85 -6.21,-3.11 -23.29,-48.14 -26.4,-57.46 -4.66,-9.32 -7.76,-18.64 -12.42,-29.51 -3.11,-7.77 -13.98,-23.29 -7.76,-31.06 6.21,-4.66 9.32,3.11 13.98,4.66 3.11,7.76 6.21,6.21 15.53,7.76 12.42,3.11 65.23,17.08 49.7,-1.55 -1.55,-3.11 -3.11,-4.66 -6.21,-6.21 -23.29,-13.98 -40.38,-6.21 -57.46,-13.98l0 -13.98c4.66,-23.29 1.55,-68.33 -1.55,-91.63 -3.11,-15.53 -7.76,-24.85 -10.87,-38.82 -6.21,-17.08 10.87,-27.95 4.66,-35.72zm62.12 -23.29c10.87,10.87 23.29,-7.77 52.8,29.51 3.11,4.66 1.55,4.66 9.32,6.21 -1.55,-21.74 -9.32,-34.17 -21.74,-41.93 -18.64,-13.98 -41.93,-6.21 -40.38,6.21zm-147.53 330.79c1.55,-4.66 18.64,-69.88 18.64,-77.65 -13.98,0 -26.4,18.64 -31.06,32.61 -4.66,12.42 -6.21,48.14 12.42,45.04zm814.03 -28.23c-0.63,-0.55 -1.25,-0.99 -1.82,-1.27 1.1,0.55 1.62,0.91 1.82,1.27zm-65.5 3.39c0,-3.11 -1.55,-4.66 -3.11,-9.32 -13.98,-23.29 -13.98,-43.48 -15.53,-71.44 -21.74,1.55 -23.29,55.91 -10.87,68.33 7.76,26.4 48.14,52.8 77.65,55.91 3.11,3.11 1.55,0 4.66,4.66 -1.55,9.32 -18.64,18.64 -27.95,27.95l-62.12 48.14c-4.66,4.66 -24.85,21.74 -31.06,23.29 0,-12.42 35.72,-45.04 32.61,-108.71 -3.11,-35.72 -31.06,-74.54 -63.67,-77.65 3.11,17.08 55.91,77.65 26.4,152.19 -1.55,7.76 -6.21,17.08 -10.87,21.74 -1.55,4.66 -4.66,6.21 -6.21,10.87 -4.66,3.11 -3.11,4.66 -9.32,6.21 -6.21,-15.53 1.55,-40.38 -4.66,-55.91 -17.08,0 -13.98,7.76 -15.53,23.29 0,10.87 0,24.85 -6.21,31.06 -7.76,-3.11 -9.32,-12.42 -13.98,-18.64 -26.4,-49.7 -24.85,-102.5 3.11,-152.19 4.66,-6.21 10.87,-12.42 12.42,-20.19 -9.32,1.55 -10.87,4.66 -15.53,7.76 -29.51,26.4 -54.35,54.35 -49.7,102.5 6.21,59.01 57.46,88.52 68.33,104.05 -12.42,10.87 -54.35,21.74 -65.23,29.51 3.11,10.87 35.72,43.48 38.82,43.48 6.21,-1.55 46.59,-31.06 52.8,-35.72 9.32,-7.77 26.4,-23.29 38.82,-26.4 7.77,-1.55 10.87,1.55 17.08,1.55l18.64 26.4c7.76,9.32 12.42,13.98 21.74,21.74 82.31,63.67 186.36,18.64 191.02,-12.42 -9.32,0 -18.64,6.21 -27.95,9.32 -10.87,3.11 -26.4,4.66 -29.51,7.76 -6.21,-1.55 -32.61,1.55 -43.48,0 -54.35,-3.11 -86.97,-32.61 -96.28,-34.17 -3.11,-3.11 0,0 -3.11,-3.11 -3.11,-1.55 -1.55,0 -3.11,-1.55 -3.11,-3.11 -3.11,-1.55 -3.11,-7.76 13.98,-1.55 43.48,4.66 54.35,-1.55 0,-7.76 -4.66,-7.76 -18.64,-10.87 -7.76,-6.21 -23.29,-6.21 -29.51,-13.98 7.76,-7.76 43.48,-9.32 57.46,-10.87 100.94,-13.98 128.9,46.59 149.09,48.14 -1.55,-18.64 -17.08,-35.72 -31.06,-46.59 -41.93,-34.17 -107.16,-40.38 -156.85,-18.64 -7.76,3.11 -18.64,10.87 -26.4,12.42 3.11,-9.32 41.93,-43.48 51.25,-52.8 21.74,-20.19 40.38,-49.7 57.46,-35.72 68.33,52.8 145.98,0 139.77,-20.19 -3.11,-1.55 -43.48,15.53 -60.57,18.64 -17.08,4.66 -60.57,3.11 -68.33,-7.76 13.98,-9.32 31.06,0 31.06,-17.08 -10.87,-3.11 -24.85,4.66 -34.17,0 1.55,-6.21 4.66,-7.76 10.87,-10.87 18.64,-9.32 27.95,-12.42 49.7,-15.53 32.61,-4.66 62.12,9.32 74.54,9.32 -4.66,-12.42 -29.51,-24.85 -43.48,-26.4 -32.61,-7.76 -43.48,1.55 -60.57,1.55 0,-9.32 17.08,-29.51 21.74,-37.27 12.42,-20.19 13.98,-7.77 40.38,-7.77 20.19,1.55 34.17,0 49.7,-7.76 7.77,-4.66 23.29,-20.19 20.19,-34.17 -6.21,-1.55 -6.21,1.55 -15.53,10.87 -13.98,10.87 -49.7,29.51 -65.23,17.08 3.11,-7.76 12.42,-6.21 10.87,-13.98 -1.55,-1.55 -41.93,1.55 9.32,-23.29 6.21,-3.11 13.98,-6.21 23.29,-6.21 6.21,0 23.29,-1.55 27.95,-3.11 -3.11,-15.53 -46.59,-6.21 -59.01,-7.76 -1.55,-13.98 10.87,-26.4 10.87,-40.38 -9.32,0 -13.98,15.53 -20.19,27.95 -4.66,6.21 -13.98,24.85 -18.64,27.95 -9.32,-4.66 -6.21,-20.19 -20.19,-37.27 -4.66,-4.66 -24.85,-21.74 -37.27,-15.53 1.55,6.21 9.32,10.87 13.98,13.98 13.98,13.98 29.51,35.72 24.85,59.01 -10.87,0 -7.76,-7.76 -17.08,-12.42 -1.55,0 -3.11,1.55 -1.55,7.77 0.04,0.04 0.08,0.1 0.12,0.15l0 8.15c-8.99,4.5 -22.48,-17.98 -26.97,-23.98 -10.49,-16.48 -5.99,-25.47 -7.49,-46.45 -20.89,1.49 -23.94,66.89 35.25,85.19 0.65,0.54 0.65,0.57 0.65,3.33 3.11,7.76 6.21,7.76 -6.21,21.74l-27.95 38.82c-10.87,10.87 -9.32,15.53 -17.08,15.53l-1.55 -18.64c-1.55,-26.4 -9.32,-45.04 -23.29,-60.57 -7.76,-9.32 -38.82,-29.51 -57.46,-23.29l-1.55 3.11c1.55,3.11 17.08,12.42 23.29,17.08 7.76,6.21 17.08,15.53 21.74,23.29 10.87,12.42 23.29,38.82 21.74,57.46 0,3.11 0,3.11 -1.55,4.66 -0.94,1.88 -1.31,2.81 -1.35,3.16l0.25 0.07c0.9,-0.77 3.72,-5.33 -0.45,-0.13 -7.76,-4.66 -9.32,-6.21 -13.98,-13.98 -7.76,-15.53 -17.08,-12.42 -15.53,-1.55 1.55,3.11 6.21,12.42 9.32,13.98l0 0 0 0 0 0.01 0 5.49 -0.88 2.25c-12.05,-0.5 -22.59,-11.04 -30.17,-18.62l-7.76 -7.76c0,0 0,0 -1.55,0zm48.14 43.48l-9.17 -7.65c0.31,-0.22 0.45,-0.35 0.31,-0.32 -0.15,0.06 -0.3,0.12 -0.46,0.2l9.32 7.77zm-6.21 -23.29c-1.55,0 -1.55,-1.55 -1.55,-1.55l1.55 1.55zm-934.9 -169.28c-3.11,3.11 -17.08,6.21 -20.19,10.87 -9.32,12.42 4.66,12.42 13.98,10.87 38.82,-9.32 142.87,-23.29 164.62,-13.98 -4.66,9.32 -48.14,13.98 -60.57,15.53 -20.19,3.11 -52.8,-1.55 -72.99,1.55 1.55,23.29 100.94,17.08 122.69,13.98 20.19,-3.11 38.82,-9.32 51.25,-20.19 4.66,-4.66 12.42,-17.08 3.11,-26.4 -7.77,-4.66 -17.08,-3.11 -26.4,-6.21 -32.61,-1.55 -62.12,0 -93.18,3.11 -49.7,3.11 -40.38,4.66 -82.31,10.87zm366.5 501.61c-10.87,-4.66 -52.8,-3.11 -65.23,-7.76 -10.87,-3.11 -3.11,-43.48 -1.55,-60.57 1.55,-10.87 1.55,-23.29 1.55,-34.17 1.55,-48.14 13.98,-41.93 -20.19,-45.04 -9.32,-1.55 -23.29,-4.66 -32.61,-3.11 -1.55,4.66 -15.53,172.38 -13.98,177.04 3.11,3.11 122.69,13.98 130.45,10.87 3.11,-4.66 3.11,-31.06 1.55,-37.27zm-225.18 -68.33c-6.21,1.55 -17.08,0 -18.64,-4.66 -3.11,-4.66 1.55,-10.87 4.66,-17.08 3.11,-6.21 6.21,-10.87 9.32,-17.08 1.55,-4.66 4.66,-12.42 10.87,-13.98 0,7.76 -3.11,48.14 -6.21,52.8zm-111.81 38.82c57.46,21.74 49.7,23.29 65.23,0 6.21,-10.87 9.32,-9.32 23.29,-6.21 35.72,9.32 18.64,29.51 24.85,38.82 3.11,6.21 41.93,15.53 49.7,13.98 3.11,-15.53 1.55,-23.29 1.55,-40.38l0 -104.05c0,-17.08 0,-32.61 -10.87,-40.38 -4.66,-3.11 -24.85,-12.42 -31.06,-13.98 -21.74,-3.11 -37.27,21.74 -48.14,43.48l-38.82 52.8c-6.21,9.32 -35.72,45.04 -35.72,55.91zm602.56 -40.38c-10.87,0 -7.77,-4.66 -7.77,-13.98 -1.55,-12.42 -6.21,-24.85 -3.11,-38.82 7.76,0 26.4,43.48 26.4,46.59 -3.11,3.11 -9.32,6.21 -15.53,6.21zm-62.12 86.97c7.76,1.55 48.14,-9.32 52.8,-13.98 9.32,-7.77 -1.55,-18.64 4.66,-29.51 3.11,-7.76 12.42,-7.76 23.29,-10.87 10.87,-3.11 13.98,-7.76 21.74,3.11 3.11,7.76 7.76,18.64 15.53,18.64 4.66,0 46.59,-15.53 49.7,-18.64 0,-4.66 -9.32,-15.53 -12.42,-20.19 -9.32,-13.98 -83.86,-125.79 -88.52,-128.9 -9.32,-1.55 -34.17,7.76 -43.48,10.87 -17.08,6.21 -17.08,18.64 -17.08,37.27 0,27.95 -9.32,136.66 -6.21,152.19zm-113.37 21.74c21.74,0 31.06,0 48.14,-7.76 27.95,-12.42 48.14,-37.27 37.27,-68.33 -15.53,-45.04 -116.47,-41.93 -93.18,-71.44 10.87,-13.98 31.06,6.21 35.72,10.87 7.76,7.77 7.76,3.11 18.64,1.55 10.87,-3.11 15.53,-1.55 24.85,-4.66 1.55,-18.64 -10.87,-37.27 -21.74,-43.48 -17.08,-6.21 -41.93,-3.11 -59.01,-1.55 -18.64,3.11 -35.72,6.21 -48.14,17.08 -9.32,10.87 -17.08,32.61 -7.76,49.7 13.98,24.85 52.8,34.17 80.76,48.14 17.08,9.32 24.85,26.4 0,32.61 -24.85,7.77 -23.29,-15.53 -32.61,-27.95 -10.87,-1.55 -40.38,-1.55 -45.04,7.76 -6.21,10.87 0,57.46 62.12,57.46zm105.6 -549.76c-3.11,-17.08 45.04,-141.32 52.8,-167.72l13.98 -40.38c1.55,-6.21 1.55,-10.87 6.21,-13.98 1.55,1.55 1.55,0 1.55,3.11 3.11,6.21 9.32,141.32 9.32,147.53 1.55,45.04 15.53,62.12 -10.87,63.67l-72.99 7.76zm100.94 -231.39c9.32,3.11 12.42,17.08 15.53,26.4 3.11,9.32 7.76,18.64 12.42,27.95 7.76,18.64 71.44,170.83 71.44,175.49 -18.64,3.11 -55.91,-4.66 -74.54,-7.76 -20.19,-1.55 -15.53,-7.76 -17.08,-26.4 -1.55,-41.93 0,-69.88 -4.66,-116.47l-3.11 -79.2zm-245.37 -57.46c-13.98,1.55 -20.19,4.66 -20.19,-12.42 0,-9.32 0,-21.74 4.66,-29.51l6.21 0c3.11,6.21 3.11,15.53 4.66,21.74 1.55,10.87 4.66,9.32 4.66,20.19z"/>
  </g>
 </g>
</svg>
