<?xml version="1.0" encoding="UTF-8"?>
<!DOCTYPE svg PUBLIC "-//W3C//DTD SVG 1.1//EN" "http://www.w3.org/Graphics/SVG/1.1/DTD/svg11.dtd">
<!-- Creator: CorelDRAW -->
<svg xmlns="http://www.w3.org/2000/svg" xml:space="preserve" width="4.24258in" height="1.59879in" version="1.1" style="shape-rendering:geometricPrecision; text-rendering:geometricPrecision; image-rendering:optimizeQuality; fill-rule:evenodd; clip-rule:evenodd"
viewBox="0 0 217.22 81.86"
 xmlns:xlink="http://www.w3.org/1999/xlink"
 xmlns:xodm="http://www.corel.com/coreldraw/odm/2003">
 <defs>
  <style type="text/css">
   <![CDATA[
    .fil0 {fill:#8900AB;fill-rule:nonzero}
   ]]>
  </style>
 </defs>
 <g id="Layer_x0020_1">
  <metadata id="CorelCorpID_0Corel-Layer"/>
  <path class="fil0" d="M18.99 18.85l0 -18.27c0,-0.18 0.09,-0.28 0.28,-0.28l7 0c1.94,0 3.4,0.45 4.39,1.34 0.99,0.89 1.48,2.12 1.48,3.67 0,1.88 -0.73,3.21 -2.19,3.99l0 0.06c0.66,0.26 1.25,0.76 1.76,1.51 0.51,0.75 0.76,1.66 0.76,2.73 0,1.85 -0.56,3.23 -1.67,4.15 -1.12,0.92 -2.72,1.38 -4.8,1.38l-6.73 0c-0.18,0 -0.28,-0.09 -0.28,-0.28zm3.43 -10.71l3.76 0c0.83,0 1.49,-0.23 1.97,-0.68 0.48,-0.45 0.72,-1.05 0.72,-1.79 0,-0.76 -0.24,-1.36 -0.72,-1.81 -0.48,-0.45 -1.13,-0.68 -1.97,-0.68l-3.76 0c-0.11,0 -0.17,0.06 -0.17,0.17l0 4.62c0,0.11 0.06,0.17 0.17,0.17zm-0.17 7.94c0,0.11 0.06,0.17 0.17,0.17l3.93 0c0.9,0 1.61,-0.24 2.1,-0.72 0.5,-0.48 0.75,-1.12 0.75,-1.91 0,-0.79 -0.25,-1.43 -0.75,-1.9 -0.5,-0.47 -1.2,-0.71 -2.1,-0.71l-3.93 0c-0.11,0 -0.17,0.06 -0.17,0.17l0 4.9zm13.53 2.77l0 -18.27c0,-0.18 0.09,-0.28 0.28,-0.28l2.71 0c0.18,0 0.28,0.09 0.28,0.28l0 15.44c0,0.11 0.06,0.17 0.17,0.17l8.64 0c0.18,0 0.28,0.09 0.28,0.28l0 2.38c0,0.18 -0.09,0.28 -0.28,0.28l-11.79 0c-0.18,0 -0.28,-0.09 -0.28,-0.28zm13.51 0l6.45 -18.27c0.06,-0.18 0.18,-0.28 0.36,-0.28l2.55 0c0.18,0 0.3,0.09 0.36,0.28l6.37 18.27c0.06,0.18 -0.01,0.28 -0.19,0.28l-2.71 0c-0.18,0 -0.3,-0.09 -0.36,-0.28l-1.25 -3.65 -7.09 0 -1.25 3.65c-0.06,0.18 -0.18,0.28 -0.36,0.28l-2.68 0c-0.18,0 -0.25,-0.09 -0.19,-0.28zm5.48 -6.56l5.09 0 -2.49 -7.31 -0.08 0 -2.52 7.31zm12.46 2.52c-0.33,-1 -0.5,-2.69 -0.5,-5.09 0,-2.4 0.17,-4.1 0.5,-5.09 0.48,-1.51 1.28,-2.66 2.41,-3.45 1.13,-0.78 2.5,-1.18 4.12,-1.18 1.49,0 2.79,0.36 3.89,1.07 1.1,0.71 1.92,1.7 2.48,2.98 0.06,0.17 0.01,0.28 -0.14,0.33l-2.35 1.13c-0.17,0.09 -0.29,0.05 -0.36,-0.14 -0.74,-1.62 -1.91,-2.44 -3.52,-2.44 -1.68,0 -2.8,0.83 -3.38,2.49 -0.22,0.68 -0.33,2.11 -0.33,4.29 0,2.18 0.11,3.61 0.33,4.29 0.57,1.66 1.7,2.49 3.38,2.49 1.61,0 2.78,-0.81 3.52,-2.44 0.07,-0.18 0.19,-0.23 0.36,-0.14l2.35 1.13c0.15,0.06 0.19,0.17 0.14,0.33 -0.55,1.27 -1.38,2.27 -2.48,2.98 -1.1,0.71 -2.39,1.07 -3.89,1.07 -1.62,0 -3,-0.39 -4.12,-1.18 -1.13,-0.78 -1.93,-1.93 -2.41,-3.45zm15.97 4.04l0 -18.27c0,-0.18 0.09,-0.28 0.28,-0.28l2.71 0c0.18,0 0.28,0.09 0.28,0.28l0 8.86 7.11 -8.91c0.13,-0.15 0.28,-0.22 0.44,-0.22l3.16 0c0.09,0 0.15,0.04 0.18,0.11 0.03,0.07 0,0.16 -0.07,0.25l-5.84 7.03 6.5 11.1c0.13,0.22 0.06,0.33 -0.19,0.33l-3.07 0c-0.18,0 -0.32,-0.07 -0.42,-0.22l-4.93 -8.69 -2.88 3.49 0 5.15c0,0.18 -0.09,0.28 -0.28,0.28l-2.71 0c-0.18,0 -0.28,-0.09 -0.28,-0.28zm38.94 0.28l-2.1 0c-0.17,0 -0.28,-0.09 -0.33,-0.28l-3.6 -12.87 -0.06 0 -3.63 12.87c-0.06,0.18 -0.17,0.28 -0.33,0.28l-2.08 0c-0.17,0 -0.28,-0.09 -0.33,-0.28l-4.62 -18.27c-0.04,-0.18 0.04,-0.28 0.22,-0.28l2.6 0c0.18,0 0.3,0.09 0.33,0.28l2.99 12.68 0.06 0 3.52 -12.68c0.06,-0.18 0.17,-0.28 0.33,-0.28l1.94 0c0.17,0 0.28,0.09 0.33,0.28l3.6 12.68 0.06 0 2.91 -12.68c0.02,-0.18 0.13,-0.28 0.33,-0.28l2.57 0c0.18,0 0.26,0.09 0.22,0.28l-4.59 18.27c-0.04,0.18 -0.15,0.28 -0.33,0.28zm13.87 0.3c-1.64,0 -3.04,-0.39 -4.19,-1.16 -1.15,-0.77 -1.97,-1.9 -2.45,-3.38 -0.33,-1 -0.5,-2.72 -0.5,-5.18 0,-2.45 0.17,-4.18 0.5,-5.18 0.48,-1.48 1.3,-2.6 2.45,-3.38 1.15,-0.78 2.55,-1.16 4.19,-1.16 1.66,0 3.07,0.39 4.22,1.16 1.15,0.78 1.97,1.9 2.45,3.38 0.33,1 0.5,2.72 0.5,5.18 0,2.45 -0.17,4.18 -0.5,5.18 -0.48,1.48 -1.3,2.6 -2.45,3.38 -1.15,0.78 -2.56,1.16 -4.22,1.16zm0 -2.93c1.77,0 2.94,-0.82 3.52,-2.46 0.22,-0.68 0.33,-2.12 0.33,-4.32 0,-2.18 -0.11,-3.62 -0.33,-4.32 -0.57,-1.64 -1.74,-2.46 -3.52,-2.46 -1.75,0 -2.92,0.82 -3.49,2.46 -0.22,0.7 -0.33,2.14 -0.33,4.32 0,2.2 0.11,3.64 0.33,4.32 0.57,1.64 1.73,2.46 3.49,2.46zm10.77 2.35l0 -18.27c0,-0.18 0.09,-0.28 0.28,-0.28l2.46 0c0.24,0 0.4,0.09 0.47,0.28l5.18 11.6 0.11 0 5.09 -11.6c0.07,-0.18 0.23,-0.28 0.47,-0.28l2.44 0c0.18,0 0.28,0.09 0.28,0.28l0 18.27c0,0.18 -0.09,0.28 -0.28,0.28l-2.41 0c-0.18,0 -0.28,-0.09 -0.28,-0.28l0 -11.51 -0.11 0 -3.99 8.86c-0.11,0.24 -0.29,0.36 -0.53,0.36l-1.61 0c-0.24,0 -0.42,-0.12 -0.53,-0.36l-3.99 -8.86 -0.11 0 0 11.51c0,0.18 -0.09,0.28 -0.28,0.28l-2.41 0c-0.18,0 -0.28,-0.09 -0.28,-0.28zm20.92 0l0 -18.27c0,-0.18 0.09,-0.28 0.28,-0.28l11.79 0c0.18,0 0.28,0.09 0.28,0.28l0 2.38c0,0.18 -0.09,0.28 -0.28,0.28l-8.64 0c-0.11,0 -0.17,0.06 -0.17,0.17l0 4.59c0,0.11 0.06,0.17 0.17,0.17l7.28 0c0.18,0 0.28,0.09 0.28,0.28l0 2.38c0,0.18 -0.09,0.28 -0.28,0.28l-7.28 0c-0.11,0 -0.17,0.06 -0.17,0.17l0 4.76c0,0.11 0.06,0.17 0.17,0.17l8.64 0c0.18,0 0.28,0.09 0.28,0.28l0 2.38c0,0.18 -0.09,0.28 -0.28,0.28l-11.79 0c-0.18,0 -0.28,-0.09 -0.28,-0.28zm15.78 0l0 -18.27c0,-0.18 0.09,-0.28 0.28,-0.28l2.55 0c0.2,0 0.36,0.09 0.47,0.28l7.67 12.98 0.11 0 0 -12.98c0,-0.18 0.09,-0.28 0.28,-0.28l2.41 0c0.18,0 0.28,0.09 0.28,0.28l0 18.27c0,0.18 -0.09,0.28 -0.28,0.28l-2.52 0c-0.2,0 -0.36,-0.09 -0.47,-0.28l-7.69 -12.95 -0.11 0 0 12.95c0,0.18 -0.09,0.28 -0.28,0.28l-2.41 0c-0.18,0 -0.28,-0.09 -0.28,-0.28zm-98.16 31.21l0 -18.27c0,-0.18 0.09,-0.28 0.28,-0.28l11.79 0c0.18,0 0.28,0.09 0.28,0.28l0 2.38c0,0.18 -0.09,0.28 -0.28,0.28l-8.64 0c-0.11,0 -0.17,0.06 -0.17,0.17l0 4.79c0,0.11 0.06,0.17 0.17,0.17l7.28 0c0.18,0 0.28,0.09 0.28,0.28l0 2.38c0,0.18 -0.09,0.28 -0.28,0.28l-7.28 0c-0.11,0 -0.17,0.06 -0.17,0.17l0 7.39c0,0.18 -0.09,0.28 -0.28,0.28l-2.71 0c-0.18,0 -0.28,-0.09 -0.28,-0.28zm22.11 0.58c-1.64,0 -3.04,-0.39 -4.19,-1.16 -1.15,-0.77 -1.97,-1.9 -2.45,-3.38 -0.33,-1 -0.5,-2.72 -0.5,-5.18 0,-2.45 0.17,-4.18 0.5,-5.18 0.48,-1.48 1.3,-2.6 2.45,-3.38 1.15,-0.78 2.55,-1.16 4.19,-1.16 1.66,0 3.07,0.39 4.22,1.16 1.15,0.78 1.97,1.9 2.45,3.38 0.33,1 0.5,2.72 0.5,5.18 0,2.45 -0.17,4.18 -0.5,5.18 -0.48,1.48 -1.3,2.6 -2.45,3.38 -1.15,0.78 -2.56,1.16 -4.22,1.16zm0 -2.93c1.77,0 2.94,-0.82 3.52,-2.46 0.22,-0.68 0.33,-2.12 0.33,-4.32 0,-2.18 -0.11,-3.62 -0.33,-4.32 -0.57,-1.64 -1.74,-2.46 -3.52,-2.46 -1.75,0 -2.92,0.82 -3.49,2.46 -0.22,0.7 -0.33,2.14 -0.33,4.32 0,2.2 0.11,3.64 0.33,4.32 0.57,1.64 1.73,2.46 3.49,2.46zm24.52 2.63l-3.07 0c-0.2,0 -0.34,-0.09 -0.42,-0.28l-3.6 -7.33 -3.24 0c-0.11,0 -0.17,0.06 -0.17,0.17l0 7.17c0,0.18 -0.09,0.28 -0.28,0.28l-2.71 0c-0.18,0 -0.28,-0.09 -0.28,-0.28l0 -18.27c0,-0.18 0.09,-0.28 0.28,-0.28l7.28 0c1.73,0 3.17,0.53 4.3,1.58 1.13,1.05 1.7,2.4 1.7,4.04 0,1.22 -0.32,2.28 -0.97,3.2 -0.65,0.91 -1.51,1.57 -2.6,1.98l3.96 7.67c0.06,0.09 0.06,0.18 0.01,0.25 -0.05,0.07 -0.12,0.11 -0.21,0.11zm-6.31 -10.55c0.87,0 1.56,-0.24 2.09,-0.73 0.53,-0.49 0.79,-1.13 0.79,-1.92 0,-0.81 -0.26,-1.46 -0.79,-1.95 -0.53,-0.49 -1.22,-0.73 -2.09,-0.73l-4.01 0c-0.11,0 -0.17,0.06 -0.17,0.17l0 5.01c0,0.11 0.06,0.17 0.17,0.17l4.01 0zm-122.66 41.76l-2.71 0c-0.18,0 -0.28,-0.09 -0.28,-0.28l0 -18.27c0,-0.18 0.09,-0.28 0.28,-0.28l7.06 0c1.83,0 3.32,0.54 4.47,1.62 1.15,1.08 1.73,2.49 1.73,4.22 0,1.75 -0.58,3.17 -1.73,4.25 -1.15,1.08 -2.64,1.62 -4.47,1.62l-3.9 0c-0.11,0 -0.17,0.06 -0.17,0.17l0 6.67c0,0.18 -0.09,0.28 -0.28,0.28zm4.15 -10.07c0.96,0 1.72,-0.26 2.28,-0.79 0.56,-0.53 0.84,-1.23 0.84,-2.12 0,-0.87 -0.28,-1.57 -0.84,-2.1 -0.56,-0.54 -1.32,-0.8 -2.28,-0.8l-3.71 0c-0.11,0 -0.17,0.06 -0.17,0.17l0 5.48c0,0.11 0.06,0.17 0.17,0.17l3.71 0zm16 10.38c-1.64,0 -3.04,-0.39 -4.19,-1.16 -1.15,-0.77 -1.97,-1.9 -2.45,-3.38 -0.33,-1 -0.5,-2.72 -0.5,-5.18 0,-2.45 0.17,-4.18 0.5,-5.18 0.48,-1.48 1.3,-2.6 2.45,-3.38 1.15,-0.78 2.55,-1.16 4.19,-1.16 1.66,0 3.07,0.39 4.22,1.16 1.15,0.78 1.97,1.9 2.45,3.38 0.33,1 0.5,2.72 0.5,5.18 0,2.45 -0.17,4.18 -0.5,5.18 -0.48,1.48 -1.3,2.6 -2.45,3.38 -1.15,0.78 -2.56,1.16 -4.22,1.16zm0 -2.93c1.77,0 2.94,-0.82 3.52,-2.46 0.22,-0.68 0.33,-2.12 0.33,-4.32 0,-2.18 -0.11,-3.62 -0.33,-4.32 -0.57,-1.64 -1.74,-2.46 -3.52,-2.46 -1.75,0 -2.92,0.82 -3.49,2.46 -0.22,0.7 -0.33,2.14 -0.33,4.32 0,2.2 0.11,3.64 0.33,4.32 0.57,1.64 1.73,2.46 3.49,2.46zm16.69 2.93c-1.35,0 -2.65,-0.24 -3.9,-0.71 -1.25,-0.47 -2.26,-1.07 -3.02,-1.79 -0.15,-0.15 -0.17,-0.29 -0.06,-0.42l1.72 -1.99c0.13,-0.15 0.26,-0.16 0.39,-0.03 1.68,1.33 3.39,1.99 5.12,1.99 1.11,0 1.97,-0.25 2.6,-0.75 0.63,-0.5 0.94,-1.15 0.94,-1.97 0,-0.72 -0.26,-1.29 -0.77,-1.72 -0.52,-0.42 -1.4,-0.72 -2.66,-0.89l-1 -0.14c-3.78,-0.52 -5.67,-2.31 -5.67,-5.37 0,-1.72 0.58,-3.09 1.73,-4.12 1.15,-1.03 2.7,-1.55 4.64,-1.55 2.4,0 4.43,0.63 6.09,1.88 0.13,0.11 0.15,0.24 0.06,0.39l-1.33 2.05c-0.11,0.15 -0.24,0.18 -0.39,0.08 -1.49,-0.98 -3,-1.47 -4.51,-1.47 -0.94,0 -1.67,0.23 -2.19,0.69 -0.52,0.46 -0.78,1.07 -0.78,1.83 0,1.37 1.15,2.21 3.46,2.55l1 0.14c3.75,0.52 5.62,2.33 5.62,5.45 0,1.73 -0.61,3.14 -1.84,4.22 -1.23,1.08 -2.98,1.62 -5.24,1.62zm10.32 -0.58l0 -18.27c0,-0.18 0.09,-0.28 0.28,-0.28l2.71 0c0.18,0 0.28,0.09 0.28,0.28l0 18.27c0,0.18 -0.09,0.28 -0.28,0.28l-2.71 0c-0.18,0 -0.28,-0.09 -0.28,-0.28zm14.31 0.28l-2.71 0c-0.18,0 -0.28,-0.09 -0.28,-0.28l0 -15.44c0,-0.11 -0.06,-0.17 -0.17,-0.17l-4.93 0c-0.18,0 -0.28,-0.09 -0.28,-0.28l0 -2.38c0,-0.18 0.09,-0.28 0.28,-0.28l13.45 0c0.18,0 0.28,0.09 0.28,0.28l0 2.38c0,0.18 -0.09,0.28 -0.28,0.28l-4.93 0c-0.11,0 -0.17,0.06 -0.17,0.17l0 15.44c0,0.18 -0.09,0.28 -0.28,0.28zm8.33 -0.28l0 -18.27c0,-0.18 0.09,-0.28 0.28,-0.28l2.71 0c0.18,0 0.28,0.09 0.28,0.28l0 18.27c0,0.18 -0.09,0.28 -0.28,0.28l-2.71 0c-0.18,0 -0.28,-0.09 -0.28,-0.28zm14.28 0.28l-2.27 0c-0.17,0 -0.28,-0.09 -0.33,-0.28l-5.95 -18.27c-0.06,-0.18 0.02,-0.28 0.22,-0.28l2.68 0c0.18,0 0.3,0.09 0.36,0.28l4.21 13.34 0.08 0 4.04 -13.34c0.06,-0.18 0.18,-0.28 0.36,-0.28l2.68 0c0.2,0 0.28,0.09 0.22,0.28l-5.98 18.27c-0.06,0.18 -0.17,0.28 -0.33,0.28zm8.77 -0.28l0 -18.27c0,-0.18 0.09,-0.28 0.28,-0.28l11.79 0c0.18,0 0.28,0.09 0.28,0.28l0 2.38c0,0.18 -0.09,0.28 -0.28,0.28l-8.64 0c-0.11,0 -0.17,0.06 -0.17,0.17l0 4.59c0,0.11 0.06,0.17 0.17,0.17l7.28 0c0.18,0 0.28,0.09 0.28,0.28l0 2.38c0,0.18 -0.09,0.28 -0.28,0.28l-7.28 0c-0.11,0 -0.17,0.06 -0.17,0.17l0 4.76c0,0.11 0.06,0.17 0.17,0.17l8.64 0c0.18,0 0.28,0.09 0.28,0.28l0 2.38c0,0.18 -0.09,0.28 -0.28,0.28l-11.79 0c-0.18,0 -0.28,-0.09 -0.28,-0.28zm22.25 -4.04c-0.33,-1 -0.5,-2.69 -0.5,-5.09 0,-2.4 0.17,-4.1 0.5,-5.09 0.48,-1.51 1.28,-2.66 2.41,-3.45 1.13,-0.78 2.5,-1.18 4.12,-1.18 1.49,0 2.79,0.36 3.89,1.07 1.1,0.71 1.92,1.7 2.48,2.98 0.06,0.17 0.01,0.28 -0.14,0.33l-2.35 1.13c-0.17,0.09 -0.29,0.05 -0.36,-0.14 -0.74,-1.62 -1.91,-2.44 -3.52,-2.44 -1.68,0 -2.8,0.83 -3.38,2.49 -0.22,0.68 -0.33,2.11 -0.33,4.29 0,2.18 0.11,3.61 0.33,4.29 0.57,1.66 1.7,2.49 3.38,2.49 1.61,0 2.78,-0.81 3.52,-2.44 0.07,-0.18 0.19,-0.23 0.36,-0.14l2.35 1.13c0.15,0.06 0.19,0.17 0.14,0.33 -0.55,1.27 -1.38,2.27 -2.48,2.98 -1.1,0.71 -2.39,1.07 -3.89,1.07 -1.62,0 -3,-0.39 -4.12,-1.18 -1.13,-0.78 -1.93,-1.93 -2.41,-3.45zm15.97 4.04l0 -18.27c0,-0.18 0.09,-0.28 0.28,-0.28l2.71 0c0.18,0 0.28,0.09 0.28,0.28l0 7.42c0,0.11 0.06,0.17 0.17,0.17l7.17 0c0.11,0 0.17,-0.06 0.17,-0.17l0 -7.42c0,-0.18 0.09,-0.28 0.28,-0.28l2.71 0c0.18,0 0.28,0.09 0.28,0.28l0 18.27c0,0.18 -0.09,0.28 -0.28,0.28l-2.71 0c-0.18,0 -0.28,-0.09 -0.28,-0.28l0 -7.58c0,-0.11 -0.06,-0.17 -0.17,-0.17l-7.17 0c-0.11,0 -0.17,0.06 -0.17,0.17l0 7.58c0,0.18 -0.09,0.28 -0.28,0.28l-2.71 0c-0.18,0 -0.28,-0.09 -0.28,-0.28zm16.61 0l6.45 -18.27c0.06,-0.18 0.18,-0.28 0.36,-0.28l2.55 0c0.18,0 0.3,0.09 0.36,0.28l6.37 18.27c0.06,0.18 -0.01,0.28 -0.19,0.28l-2.71 0c-0.18,0 -0.3,-0.09 -0.36,-0.28l-1.25 -3.65 -7.09 0 -1.25 3.65c-0.06,0.18 -0.18,0.28 -0.36,0.28l-2.68 0c-0.18,0 -0.25,-0.09 -0.19,-0.28zm5.48 -6.56l5.09 0 -2.49 -7.31 -0.08 0 -2.52 7.31zm13.17 6.56l0 -18.27c0,-0.18 0.09,-0.28 0.28,-0.28l2.55 0c0.2,0 0.36,0.09 0.47,0.28l7.67 12.98 0.11 0 0 -12.98c0,-0.18 0.09,-0.28 0.28,-0.28l2.41 0c0.18,0 0.28,0.09 0.28,0.28l0 18.27c0,0.18 -0.09,0.28 -0.28,0.28l-2.52 0c-0.2,0 -0.36,-0.09 -0.47,-0.28l-7.69 -12.95 -0.11 0 0 12.95c0,0.18 -0.09,0.28 -0.28,0.28l-2.41 0c-0.18,0 -0.28,-0.09 -0.28,-0.28zm18.13 -3.96c-0.33,-1 -0.5,-2.72 -0.5,-5.18 0,-2.45 0.17,-4.18 0.5,-5.18 0.48,-1.48 1.3,-2.6 2.46,-3.38 1.16,-0.78 2.58,-1.16 4.26,-1.16 1.66,0 3.06,0.38 4.21,1.15 1.14,0.77 1.93,1.71 2.35,2.84 0.07,0.17 0.04,0.3 -0.11,0.39l-2.32 1.02c-0.17,0.06 -0.29,0.01 -0.36,-0.14 -0.87,-1.55 -2.13,-2.32 -3.79,-2.32 -1.79,0 -2.97,0.82 -3.54,2.46 -0.22,0.7 -0.33,2.14 -0.33,4.32 0,2.2 0.11,3.64 0.33,4.32 0.57,1.64 1.75,2.46 3.54,2.46 0.85,0 1.6,-0.21 2.24,-0.62 0.65,-0.42 1.09,-0.99 1.33,-1.73 0.2,-0.61 0.3,-1.42 0.3,-2.44 0,-0.11 -0.06,-0.17 -0.17,-0.17l-3.1 0c-0.18,0 -0.28,-0.09 -0.28,-0.28l0 -2.21c0,-0.18 0.09,-0.28 0.28,-0.28l6.23 0c0.18,0 0.28,0.09 0.28,0.28l0 1.63c0,1.85 -0.15,3.22 -0.44,4.12 -0.46,1.46 -1.28,2.59 -2.45,3.4 -1.17,0.81 -2.57,1.22 -4.19,1.22 -1.68,0 -3.1,-0.39 -4.26,-1.16 -1.16,-0.77 -1.98,-1.9 -2.46,-3.38zm17.41 3.96l0 -18.27c0,-0.18 0.09,-0.28 0.28,-0.28l11.79 0c0.18,0 0.28,0.09 0.28,0.28l0 2.38c0,0.18 -0.09,0.28 -0.28,0.28l-8.64 0c-0.11,0 -0.17,0.06 -0.17,0.17l0 4.59c0,0.11 0.06,0.17 0.17,0.17l7.28 0c0.18,0 0.28,0.09 0.28,0.28l0 2.38c0,0.18 -0.09,0.28 -0.28,0.28l-7.28 0c-0.11,0 -0.17,0.06 -0.17,0.17l0 4.76c0,0.11 0.06,0.17 0.17,0.17l8.64 0c0.18,0 0.28,0.09 0.28,0.28l0 2.38c0,0.18 -0.09,0.28 -0.28,0.28l-11.79 0c-0.18,0 -0.28,-0.09 -0.28,-0.28z"/>
 </g>
</svg>
