<?xml version="1.0" encoding="UTF-8"?>
<!DOCTYPE svg PUBLIC "-//W3C//DTD SVG 1.1//EN" "http://www.w3.org/Graphics/SVG/1.1/DTD/svg11.dtd">
<!-- Creator: CorelDRAW -->
<svg xmlns="http://www.w3.org/2000/svg" xml:space="preserve" width="16.8767in" height="9.28502in" version="1.1" style="shape-rendering:geometricPrecision; text-rendering:geometricPrecision; image-rendering:optimizeQuality; fill-rule:evenodd; clip-rule:evenodd"
viewBox="0 0 7146.08 3931.54"
 xmlns:xlink="http://www.w3.org/1999/xlink"
 xmlns:xodm="http://www.corel.com/coreldraw/odm/2003">
 <defs>
  <style type="text/css">
   <![CDATA[
    .fil0 {fill:#fff}
   ]]>
  </style>
 </defs>
 <g id="Layer_x0020_1">
  <metadata id="CorelCorpID_0Corel-Layer"/>
  <g id="_2723421606112">
   <path class="fil0" d="M2820.19 1517.64l-2820.19 0 0 896.25 2820.19 0 0 1517.64 1107.36 0 0 -1748.68c47.72,31.95 147.18,120.65 196.42,162.08l100.67 82.57c12.34,9.7 19.38,17.09 32.28,27.47l263.6 218.39c110.69,89.63 217.01,184.66 328.89,272.59 23.08,18.14 43.38,35.36 65.13,54.37l68.61 54.88c42.63,-28.55 79.82,-62.69 118.61,-96.49 13.79,-12.02 31.61,-19.75 36.74,-38.95 -14.99,-4 -108.52,-81.77 -122.23,-92.87 -12.35,-10 -288.15,-222.73 -297.61,-240.14 -23.71,-43.62 3.95,-88.59 50.4,-91.28 37.23,-2.15 71.86,40 99.72,60.67 103.42,76.7 199.3,162.28 302.73,239 22.02,16.33 40.98,34.47 62.59,48.94 16.84,-4.5 23.26,-14.69 35.29,-24.46 17.23,-13.98 82.17,-74.31 100.14,-79.11l0 -11.95c-18.23,-4.87 -45.11,-31.13 -60.3,-43.27l-346.55 -274.85c-21.14,-15.72 -43.27,-28.25 -43.27,-64.28 0,-50.66 57.04,-75.19 95.81,-48.01l331.33 262.18c20.72,17.05 39.08,30.43 60.08,47.47 10.74,8.72 17.74,14.56 28.87,22.91 12.14,9.1 21.81,14.47 29.63,26.14 10.04,-6.73 22.38,-17.97 33.12,-26.63 25.67,-20.69 81.54,-59.84 98.33,-84.9 -9.1,-6.1 -21.3,-16.93 -30.95,-24.82l-293.38 -232.42c-12.14,-9.47 -19.66,-14.76 -31.44,-24.33 -12.25,-9.95 -20.83,-16.96 -33.46,-26.29 -96.63,-71.43 -24.14,-126.32 10.81,-126.32 39.91,0 96.51,58.7 128.61,82.51 54.59,40.49 322.46,264.82 349.39,272.01 39.28,-26.3 89.1,-71 124.51,-102.54 11.17,-9.95 35.68,-27.17 42.79,-36.88 -14.43,-21.54 -156.82,-124.79 -191.75,-150.82l-275.44 -210.52c-52.93,-39.26 -103.66,-84.13 -158.19,-120.64 -9.74,2.6 -30.56,16.8 -40.61,23.13 -110,69.26 -199.53,140.19 -337.81,140.19 -36.97,0 -73.39,-6.61 -104.76,-10.75 -87.93,-11.62 -170.86,-16.61 -256.23,-30.57 -39.45,-6.45 -44.12,-40.45 -14.8,-63.62l356.43 -272.94c13.03,-9.75 47.42,-33.72 55.22,-44.36 -7.06,-10.54 -18.54,-16.94 -30.16,-25.6l-451.24 -345.42c-12.39,-9.25 -21.4,-16.04 -33.68,-26.07 -21.16,-17.28 -41.61,-31.45 -63.64,-47.89l-779.04 -595.21c-22.55,-16.87 -42.26,-32.72 -65.41,-50.1l-324.95 -248.65c-40.51,-32.4 -312.84,-242.59 -327.18,-246.42l0 1517.64z"/>
   <path class="fil0" d="M4720.24 1860.21c0,32.95 19.87,32.06 52.1,35.54 91.19,9.85 149.2,20.88 244,-34.21l249.62 -160.66 259.44 202.63c29.27,23.35 58.04,45.53 87.11,68.24l171.83 134.88c48.67,36.26 132.35,107.62 174.71,135.99 22.65,-5.28 58.57,-45.62 79.67,-59.75l0 1748.68 1107.36 0 0 -3931.54c-15.66,4.18 -426.09,321.43 -455.34,345.31l-153.54 117.33c-51.39,38.54 -99.97,76.96 -151.37,115.52l-1138.12 869.47c-26.39,20.61 -51.16,38.09 -76.45,58.99l-418.04 318.87c-9.38,6.97 -32.99,22.31 -32.99,34.72z"/>
   <path class="fil0" d="M-0 3931.54l2513.48 0 0 -892.26 -2182.86 0c-12.6,0 -11.97,8.59 -16.19,19.66l-223.9 616.58c-4.04,10.6 -5.35,19.23 -9.65,30.19 -7.39,18.83 -14.2,38.13 -20.55,55.13l-39.94 111.43c-6.62,20.14 -15.26,37.26 -20.39,59.27z"/>
   <path class="fil0" d="M330.62 892.26l2182.86 0 0 -892.26 -2513.48 0c8.66,37.16 72.69,198.65 88.55,250.03l154.44 423.14c3.59,12.13 4.07,14.79 9.34,26.51 5.68,12.63 6.21,18.15 10.05,29.78l40.85 110.51c8.47,23.5 12.4,52.29 27.38,52.29z"/>
  </g>
 </g>
</svg>
