<?xml version="1.0" encoding="UTF-8"?>
<!DOCTYPE svg PUBLIC "-//W3C//DTD SVG 1.1//EN" "http://www.w3.org/Graphics/SVG/1.1/DTD/svg11.dtd">
<!-- Creator: CorelDRAW -->
<svg xmlns="http://www.w3.org/2000/svg" xml:space="preserve" width="11.5026in" height="2.91427in" version="1.1" style="shape-rendering:geometricPrecision; text-rendering:geometricPrecision; image-rendering:optimizeQuality; fill-rule:evenodd; clip-rule:evenodd"
viewBox="0 0 1478.09 374.49"
 xmlns:xlink="http://www.w3.org/1999/xlink"
 xmlns:xodm="http://www.corel.com/coreldraw/odm/2003">
 <defs>
  <style type="text/css">
   <![CDATA[
    .fil0 {fill:#fff}
   ]]>
  </style>
 </defs>
 <g id="Layer_x0020_1">
  <metadata id="CorelCorpID_0Corel-Layer"/>
  <path class="fil0" d="M574.4 259.68l1.29 0 0 2.14 15.42 0 -0.42 -78.82c0.01,-2.84 -0.45,-3.69 -0.45,-6.4 -0.01,-4.88 -0.41,-8.29 -0.41,-12.86 0.57,0.66 0.44,0.47 0.81,1.34l8.98 23.14c4.57,11.44 24.9,64.7 29.62,73.61l14.56 0c0.11,-1.38 3.89,-10.09 4.72,-11.98 9.78,-22.11 20.67,-49.35 29.79,-72.16l4.9 -12.24c0,4.2 -0.43,6.81 -0.43,11.14l0 83.1 1.29 0 0 2.14 16.28 0 0 -113.94 -1.29 0 0 -2.14 -23.99 0c-0.61,2.61 -18.57,44.66 -19.4,46.57 -3.39,7.86 -6.35,15.52 -9.74,23.24l-9.84 23.14c-0.5,-2.16 -1.39,-4.11 -2.09,-6.05 -4.15,-11.51 -16.5,-41.59 -21.32,-52.35 -0.91,-2.02 -1.54,-3.72 -2.41,-5.73l-12.3 -28.82 -23.56 0 0 113.94z"/>
  <path class="fil0" d="M432.19 198.85l0 8.57c0,16.43 8.51,32.77 16.81,41.01 9.64,9.58 23.26,15.95 42.3,15.95 8.77,0 17.98,-1.37 24.13,-4.14 3.76,-1.69 5.94,-2.82 8.91,-5.22l6.79 -7.35 0.84 9.87c0.05,0.52 -0.02,0.29 0.08,0.78l0.52 1.2c0.05,0.08 0.13,0.18 0.17,0.25l0.48 0.81c0.55,0.85 -0.18,1.22 1.35,1.22l11.57 0 0 -62.54 -1.29 0 0 -2.14 -52.69 0 0 14.14 1.29 0 0 2.14 35.55 0c0,6.59 -0.52,11.58 -3,17.13 -10.45,23.48 -49.24,22.6 -64.58,5.9 -16.84,-18.34 -15.2,-59.73 12.17,-72.87 12.72,-6.1 32.39,-5.73 44.36,1.77 2.36,1.48 5.31,4.08 7.01,6.26 1.42,1.82 4.41,6.34 4.89,8.39l17.13 0c-1.41,-6.03 -3.87,-10.43 -6.77,-15.08 -8.79,-14.05 -26.08,-21.33 -44.63,-21.33 -15.8,0 -25.51,1.75 -38.37,9.6 -14.44,8.81 -25.02,28.46 -25.02,45.65z"/>
  <path class="fil0" d="M731.6 259.68l1.29 0 0 2.14 15.42 0 -0.43 -89.1c0.02,-3.14 -0.43,-4.46 -0.43,-7.28l16.89 24.23c3,4.14 5.57,7.85 8.57,11.99l17.45 24.1c3.77,5.13 25.75,34.89 26.06,36.05l18.85 0 0 -113.94 -1.29 0 0 -2.14 -15.42 0 0 69.39c-0,3.16 0.29,5.2 0.43,7.71 0.14,2.53 0.01,5.56 -0.01,8.15 -0.02,3.25 0.43,4.77 0.43,8.13l-8.14 -11.99c-2.75,-3.9 -5.6,-7.76 -8.5,-11.63l-47.61 -64.19c-0.74,-1.05 -3.65,-5.57 -4.71,-5.57l-18.85 0 0 113.94z"/>
  <path class="fil0" d="M1435.79 189.43c28.07,0 26.17,19.65 27.84,23.13l-53.97 0c1.41,-2.95 0.8,-8.7 8.24,-16.17 3.83,-3.85 10.37,-6.96 17.89,-6.96zm-40.69 29.98c0,15.89 8.03,32.98 22.42,40.12 9.61,4.77 13.53,4.43 23.85,4.43 8.72,0 17.5,-3.61 22.59,-7.4 8.2,-6.12 9.35,-9.9 12.97,-17.45l-2.14 0c0.36,-0.76 0.49,-1.39 0.86,-2.14l-12.85 0c-0.97,3.61 -6.26,8.45 -9.33,10.37 -15.91,9.96 -44.21,2.04 -44.21,-22.79l68.53 0c1.07,-4.59 -0.72,-14.53 -1.89,-18.67 -2.14,-7.6 -5.63,-12.03 -9.68,-17.31 -5.38,-7.02 -17.1,-11.27 -27,-11.56 -3.4,-0.1 -6.29,-0.35 -9.68,0.16 -21.55,3.22 -34.43,20.88 -34.43,42.24z"/>
  <path class="fil0" d="M1001.88 198.42c0,7.46 1.63,13 7.4,17.87 10.92,9.21 30.16,7.52 42.77,12.06 6.77,2.44 9.98,4.86 8.41,12.37 -0.61,2.9 -2.18,5.05 -4.41,6.73 -3.16,2.37 -8.23,3.85 -12.63,4.08 -2.28,0.12 -3.2,0.44 -5.13,0.47 -4.67,0.08 -13.75,-1.6 -17.82,-4.05 -3.84,-2.32 -6.38,-4.71 -7.92,-8.78 -1.1,-2.89 -1.48,-1.67 -1.67,-3.9l-12.85 0c0,3.94 2.49,9.1 4.1,11.75 4.63,7.66 9.36,11.7 18.01,14.54 8.61,2.84 14.03,2.4 22.87,2.4 8.81,0 16.35,-2.44 21.94,-5.9 12.85,-7.95 14.32,-31.16 -2.88,-39.71 -12.89,-6.41 -26.78,-5.31 -38.39,-9.16 -4.41,-1.46 -7.89,-3.14 -8.02,-7.8 -0.4,-14.55 26.62,-14.37 35.74,-9.22 1.61,0.91 4.2,2.8 5.14,4.28 0.93,1.47 0.43,1.75 2.15,4.7 0.54,0.92 0.54,-0.46 0.59,1.98l12.85 0c0,-6.79 -5.29,-15.05 -10.45,-19.1 -5.11,-4.01 -13.62,-7.05 -22.54,-7.02 -3.95,0.01 -0.89,-0.52 -6.43,-0.04 -6.35,0.55 -11.61,0.39 -18.38,3.91l-6.47 4.67c-0.47,0.47 -1.24,1.43 -1.79,2.06 -1.91,2.18 -4.18,6.88 -4.18,10.81z"/>
  <path class="fil0" d="M920.5 191.57c0,-2.29 0.03,-4.59 0.03,-6.88 -0,-1.82 0.16,-1.7 -0.5,-2.93 -0.04,-0.08 -0.13,-0.18 -0.17,-0.25l-1.07 -2.36 -11.99 0 0 80.53 1.29 0 0 2.14 12.85 0 0 -41.98c0,-7.55 3.57,-17.06 7.17,-21.1 2.36,-2.65 4.68,-4.72 7.89,-6.24 8.68,-4.12 21.86,-3.43 27.36,3.77 3.48,4.55 4.27,10.41 4.27,18.44 -0,14.99 0,29.98 0,44.98l1.29 0 0 2.14 12.42 0 0 -52.69c0,-8.11 -3.44,-15.26 -6.76,-20.22 -8.41,-12.56 -25.8,-14.62 -39.13,-9.82 -10.24,3.69 -13.27,11.26 -14.93,12.48z"/>
  <path class="fil0" d="M1245.61 230.98c0,17.28 10.7,32.98 28.7,32.98 9.99,0 18.98,0.09 26.67,-7.6 1.01,-1.01 1.37,-1.26 2.21,-2.5l1.96 -2.75 0.43 8.57 1.29 0 0 2.14 11.99 0 0 -80.53 -1.29 0 0 -2.14 -12.42 0 0 38.55c0,16.44 -5.74,32.98 -24.42,32.98 -7.13,0 -14.14,-0.76 -18.18,-7.09 -2.91,-4.55 -3.24,-11.28 -3.24,-18.61 0,-14.56 0,-29.13 0,-43.69l-1.29 0 0 -2.14 -12.42 0 0 51.83z"/>
  <path class="fil0" d="M1351.83 179.15l-16.71 0 0 10.28 1.29 0 0 2.14 15.42 0 0 50.12c0,6.7 2.35,11.27 5.31,15.25 5.34,7.18 19.7,6.41 28.1,4.45l0 -9.85c-1.86,0.39 -1.29,0.79 -1.29,-2.14 -3.14,0.73 -5.06,0.86 -8.57,0.86 -7.03,0 -9.85,-2.79 -9.85,-9.85l0 -48.83 21.42 0 0 -10.28 -1.29 0 0 -2.14 -20.13 0 0 -24.42 -1.29 0 0 -2.14 -12.42 0 0 26.56z"/>
  <path class="fil0" d="M1196.78 179.15l-16.71 0 0 10.28 1.29 0 0 2.14 15.42 0 0 49.69c0,6.08 1.81,10.74 5.13,15.43 5.26,7.45 19.76,6.69 28.28,4.7l0 -9.85c-1.86,0.39 -1.29,0.79 -1.29,-2.14 -4.28,1 -12.58,1.76 -16.18,-1.38 -1.56,-1.36 -2.24,-4.76 -2.24,-7.61l0 -48.83 21.42 0 0 -10.28 -1.29 0 0 -2.14 -20.13 0 0 -24.42 -1.29 0 0 -2.14 -12.42 0 0 26.56z"/>
  <path class="fil0" d="M1098.26 179.15l-16.71 0 0 10.28 1.29 0 0 2.14 15.42 0 0 49.69c0,6.08 1.81,10.74 5.13,15.43 5.26,7.45 19.76,6.69 28.28,4.7l0 -9.85c-1.86,0.39 -1.29,0.79 -1.29,-2.14 -4.28,1 -12.58,1.76 -16.18,-1.38 -1.56,-1.36 -2.24,-4.76 -2.24,-7.61l0 -48.83 21.42 0 0 -10.28 -1.29 0 0 -2.14 -20.13 0 0 -24.42 -1.29 0 0 -2.14 -12.42 0 0 26.56z"/>
  <polygon class="fil0" points="866.1,259.68 867.38,259.68 867.38,261.82 880.66,261.82 880.66,147.88 879.38,147.88 879.38,145.74 866.1,145.74 "/>
  <polygon class="fil0" points="1150.09,259.68 1151.37,259.68 1151.37,261.82 1164.22,261.82 1164.22,181.29 1162.94,181.29 1162.94,179.15 1150.09,179.15 "/>
  <polygon class="fil0" points="1150.09,156.88 1151.37,156.88 1151.37,159.02 1164.22,159.02 1164.22,141.03 1162.94,141.03 1162.94,138.89 1150.09,138.89 "/>
  <path class="fil0" d="M197.41 101.62c0,3.9 1.18,1.96 2.66,4.33 0.74,1.18 0.63,3.01 -0.04,3.73 -0.08,0.09 -3.67,1.54 -2.62,5.49 0.58,2.17 0.67,-0.76 0.97,2.37 -3.1,2.19 -1.98,0.44 -4.95,2.79 -2.3,1.81 -1.56,-0.62 -2.86,0.59 -0.64,0.6 -0.27,0.95 -0.82,1.73 -0.84,1.2 -1.01,0.22 -2.29,0.13 -1.45,-0.1 -0.61,-0.22 -1.42,0.26 1.61,2.19 3.01,1.95 5.9,0.2 2.33,2.42 1.29,2.8 4.7,0.32 4.7,-3.42 4.56,-0.77 5.95,-0.34l1.94 -1.76c0.58,-0.38 -0.07,0.3 0.89,-0.56 -0.54,-2.93 -1.44,-4.51 0.79,-6.81 2.98,-0.02 0.92,0.72 3.99,1.57 -0.03,-5.86 -2.5,-3.01 -4.26,-2.95 0.02,-2.29 1.22,-1.86 2.12,-2.8 0.76,-0.8 -0.38,-0.07 0.86,-1.08 2.19,-1.78 4.09,-0.63 6.71,-0.59l1.59 -1.65c0.06,-0.06 0.18,-0.16 0.27,-0.25 -0.1,-0.08 -0.26,-0.32 -0.31,-0.23 -0.05,0.09 -0.23,-0.18 -0.3,-0.22 -0.08,-0.05 -0.47,-0.31 -0.58,-0.37 -1.45,-0.75 -3.39,-0.37 -4.94,0.14 -4.14,1.37 -1.86,1.77 -5.22,0.17 -3.84,-1.82 -1.35,-1.15 -2.68,-5.47 -0.86,-2.81 -0.89,-3.08 -0.01,-6.44 0.65,-0.43 0.44,-0.12 1.39,-0.44 1.59,-0.53 2.65,-1.93 3.14,-3.75 0.71,-2.65 -4.51,-2.83 -5.08,-0.12 -0.91,4.27 1.13,2.65 -2.28,6.18 -1.81,1.87 -3.22,2.17 -3.22,5.84zm39.51 46.26c-0.3,1.02 0.45,0.41 -2.13,1.34 -0.84,0.3 -1.53,0.81 -2.62,1.22 -0.78,-0.44 -0.33,-0.21 -0.91,-0.79 -1.42,-1.41 -1.17,-1.18 -1.44,-2.42l-0.14 -0.67c-0.02,-0.08 -0.02,-0.25 -0.08,-0.35 -1.5,-0.24 -1.52,-0.82 -3.67,-1.13 -0.44,1.22 -0.96,1.84 -1.61,3.2l-1.68 3.43c-1.02,4.14 -2.05,3.15 0.63,6.72 5.02,0.63 4.13,0.44 5.56,-0.59 1.63,-1.17 4.04,-1.59 6.01,-1.17 2.37,0.5 2.97,1.37 5.24,2.11 1.24,0.4 5.46,0.4 6.62,0.08 2.94,-2.23 -4.14,-6.88 -5.9,-8.05 -2.03,-1.34 -1.85,-0.18 -3.21,-2.06 0.21,-1.96 0.4,-0.36 1.1,-2.63 0.37,-1.2 0.19,-1.58 0.68,-2.74 -2.41,-0.06 -1.33,0.08 -2.75,0.83 -6.57,3.45 -2.59,2.56 0.3,3.69zm-79.7 26.72l0.81 -1.19c0,0 4.58,1.88 7.31,1.42 1.7,-0.29 3.79,-4.1 11.56,-4.33 2.22,-0.07 5.14,-0.09 7.29,-0.33 3.79,-0.42 2.09,-1.49 5.93,0.48 -1.4,3.44 -0.4,1.12 0.03,3.48 0.55,3.04 -0.88,0.16 -1.68,4.16 1.66,0.32 1.26,0.08 2.61,0.81 3.55,1.93 6.06,0.14 7.79,2.52 0.85,1.17 0.1,1.28 1.41,1.95 0.52,0.27 1.72,0.36 2.66,0.75 2.23,0.91 2.08,2.23 4.57,1.8 1.23,-2.22 -1.94,-5.01 2.53,-6.05 2.06,-0.48 2.93,-0.03 4.19,0.71 1.97,1.16 10.06,3.48 11.88,3.3 1.64,-0.16 1.6,-1.14 4.33,-0.88 7.26,0.67 3.89,1.82 7.01,-4.74 1.57,-3.29 0.87,-3.77 0.87,-7.45 -3.83,-0.39 -1.79,0.3 -4.46,1.3 -2.51,0.93 -2.56,-0.98 -3.84,-1.3 -2.81,-0.28 -1.34,0.53 -3.38,1.16 -0.57,0.18 -4.29,-0.86 -5.93,-3.39 -0.05,-0.08 -0.11,-0.19 -0.16,-0.27l-1.66 -1.78 1.25 -0.54 -1.52 -1.61c0.44,-1.96 0.5,-2.55 -0.27,-4.17 -4.57,-1.17 -2.13,1.01 -5.83,1.94 -0.07,0.02 -0.24,0.03 -0.34,0.09 2.66,5.15 2.71,1.42 3.84,5.14l-2.26 0.86 -0.33 2.72c-3.76,-0.22 -1.65,-0.71 -3.95,-2.75l-1.29 -0.96c0.21,-1.51 1.98,0.64 -0.06,-2.26 -1.06,-1.51 -1.07,-0.41 -2,-2.82 -1.1,-2.87 -0.26,-5.07 -2.72,-6.72 -2.09,-1.4 -4.27,-1.76 -5.65,-3.32 -3.31,-3.77 0.47,0.35 -3.65,-3.22 -1.06,-0.92 -0.07,-0.98 -1.93,-0.8 -1.64,2.62 1.27,4.6 3.08,6.18 1.59,1.38 0.26,0.6 1.59,2.07 0.07,0.07 0.15,0.16 0.23,0.23l5.96 3.56c0.04,0.04 0.71,1 0.71,1.02l-0.02 0.61c-0.01,0.08 -0.09,0.25 -0.11,0.32 -0.02,0.07 -0.08,0.23 -0.15,0.32 -1.43,-0.53 -0.45,-0.48 -2.57,-1.01 0.1,2.87 1.38,3.3 -0.54,5.46 -2.8,3.15 -1.05,-0.03 -2.63,4.06 -1.15,-0.18 -4.61,-2.27 -5.34,-3.04 1.52,-1.05 2.48,-0.49 5.06,-0.99 4.99,-0.95 -0.07,-5.65 -1.94,-6.98 -2.31,-1.65 -2.29,-0.05 -4.34,-2.92 -0.72,-1 -0.74,-1 -1.69,-1.76 -1.7,-1.35 -1.99,-3.69 -3.57,-4.07 -2.45,0.26 -3.56,1.95 -5.1,2.99 -1.55,1.05 -2.06,-1.64 -5.51,-0.38 -1.05,1.98 -0.3,2.51 -1.06,4.13 -0.84,1.79 -1.37,0.8 -3,2.05 -3.42,2.63 -1.63,4.73 -2.67,6.82 -1.55,3.1 -2.45,3.56 -6.24,3.87 -4.03,0.33 -3.85,3.99 -6.05,-0.89 -2.27,0.1 -2.07,0.43 -4.14,-0.36l-0.32 -3.03c-0.81,-2.09 -0.64,-1.93 0.2,-4.17 1.19,-3.16 0.14,-5.48 0.06,-8.09 2.24,-1.83 3.77,-1.61 6.4,-1.38 5.42,0.47 7.87,2.61 8.51,-3.76 0.25,-2.46 0.2,-1.96 -0.95,-3.7 -0.93,-1.41 -0.65,-1.77 -1.82,-2.48 -1.23,-0.74 -2.11,-0.29 -3.21,-1.54 0.4,-2.48 2.49,-1.72 4.77,-1.76l0.43 -2.21c1.37,0.13 2.99,0.85 5.29,-1.46 0.7,-0.7 1.04,-1.71 1.57,-2.32 0.55,-0.64 1.34,-1.11 1.94,-1.86 1.44,-1.78 0.57,-3.05 2.9,-4.4 2.34,-1.36 3.71,-1.14 6.07,-1.45 0.27,-4.53 -2.97,-7.09 0.31,-9.71 0.88,-0.71 1.69,-1.51 2.57,-1.35 0.45,1.41 -0.11,1.32 0.09,2.4l0.13 1.43c-0.22,0.97 -0.13,-0.97 -0.25,0.84 -0.12,1.71 -0.04,0.46 0.54,2.04l1.12 -2.46c-0.31,0.43 -1.18,0.25 0.42,0.32 0.66,0.03 1.21,-0.18 1.72,-0.32 0.27,-2.57 -0.73,-2.5 -1.69,-4.69 -0.69,-1.56 -0.93,-3.47 -1.35,-4.94 -3.64,0.8 -2.84,2.23 -4.5,3.36 -1.98,1.34 -3.46,-0.49 -4.75,-1.01l-0.15 -2.8c-0.01,-0.07 -0.04,-0.19 -0.04,-0.26 -0.01,-0.08 -0.01,-0.2 -0.01,-0.28 -0.08,-5.66 -1.48,-0.81 -0.8,-8.35 0.52,-0.23 0.87,-0.27 1.38,-0.65l2.59 -2.14c0.66,-0.36 0.26,-0.02 0.82,-0.47l1.4 -1.47c1.36,-0.89 -0.13,0.92 1.22,-1 1.12,-1.6 3.49,-4.11 3.85,-6.1 0.69,-3.75 2.18,-3.87 3.12,-6.68 0.74,-2.21 0.98,-1.45 1.95,-3.08l-2.83 0.29c0.91,-1.88 -0.66,-2.54 1.93,-3.32l-0.1 1.33 2.04 -0.09c-0.18,-1.17 -0.5,-0.37 -0.66,-2.32 2.32,-0.94 1.86,-0.48 3.02,-2.24 1.2,1.28 -0.1,0.88 1.71,0.58 0.85,-1.74 -0.43,-0.19 1.82,-1.95l0.61 -0.61c0.06,-0.05 0.14,-0.16 0.2,-0.21l1.15 -0.6c0.46,-0.18 0.5,-0.09 1.29,-0.47 1.21,-0.58 0.95,-0.76 2.34,-1.26 0.32,0.56 0.82,1.22 1.18,1.71 0.97,-1.13 0.23,-1 1.69,-1.71 1.4,0.78 0.21,1.12 2.04,1.24 1.4,0.09 2.59,0.84 3.33,1.55l-2.15 2.15c2.4,0.16 2.14,-0.22 4.06,-0.41 2,1.62 -0.11,1.64 3.02,1.71 3.19,0.08 4.86,2.02 7.17,3.25 1.95,1.04 5.67,2.14 5.23,5.43 -0.77,5.85 -8.79,1.48 -11.59,1.17 1.13,2.29 0.79,0.93 2.12,2.36 1.51,1.62 0.45,3.81 2.99,5.68 1.47,1.08 1.8,1.56 3.49,1.16 -0.7,-2.2 -3.19,-1.36 -2.15,-4.01 1.08,0.14 1.23,0.42 2.29,0.94l2.42 0.54c0.12,0 0.29,-0.01 0.43,-0.04 0.13,-3.1 -0.3,-0.25 -1.1,-3.16l2.22 -3.42 3.58 0.63c-0.17,-2.8 -2.58,-7.35 -2.96,-8.65 3.23,0.49 3.03,-0.57 4.92,2.14 -0.5,2.57 -0.2,-0.44 -0.96,1.61 -0.09,0.24 -1.09,0.98 0.64,1.97 2.09,1.2 2.51,-0.63 3.27,-2.16 0.97,-1.96 4.58,-4.9 6.44,-5.24l1.29 2.11c1.07,-0.81 1.03,-0.89 2.3,-1.34 1.26,-0.45 1.78,-0.64 3.07,-1.25 0.87,0.32 0.72,1.03 1.92,1.11 1.13,-1.39 1.04,-0.33 0.47,-2.05 -0.35,-1.05 -0.79,-1.38 -1.65,-1.93 -2.19,-1.38 -1.85,-0.91 -3.44,-2.57 1.2,-1.75 1.69,0.07 3.32,0.98 1.55,0.87 2.87,0.1 7.22,2.29l4 1.96c1.96,1.14 0.25,0.84 2.69,1.15 -0.13,-0.66 -0.01,-0.31 -0.25,-0.85 -0.04,-0.1 -0.09,-0.27 -0.15,-0.38 -1.58,-3.21 -3.8,-1.27 -4.98,-5.3 -0.73,-2.5 -0.21,-0.86 -1.43,-2.5 -1.26,-1.7 0.17,-3.19 -0.48,-6.21l-0.39 -3.23c-0.2,-1.3 -1.04,-1.14 -0.53,-2.67 1.36,-0.41 1.4,-0.08 2.04,1.07 -0.31,1.09 -0.25,0.52 -1.17,1.51 -0.09,0.09 -0.23,0.22 -0.33,0.33 6.26,-1.53 4.46,4.62 7.31,7.46 1.66,1.66 2.81,4.54 3.87,6.76 1.83,3.84 4.27,1.87 3.43,8.97 -0.15,1.28 -0.31,1.58 0.38,2.43 1.09,-0.35 1.6,-0.98 1.84,-2.28 0.79,-4.3 -0.66,-4.07 -1.44,-6.29 -0.4,-1.15 0.55,-1.45 1.31,-2.94 -1.48,0.11 -1.52,0.72 -3.42,0.69 -0.59,-1.29 -1.45,-2.3 -1.91,-3.61 -0.88,-2.47 -0.07,-1.85 -1.9,-3.79 -3.67,-3.89 -0.45,-2.44 -2.72,-7.64 2.27,0.92 1.14,1.61 2.45,3.86 0.08,0.02 0.21,-0.12 0.23,-0.05l0.65 -0.23c0.81,-0.29 1.94,-0.31 2.57,-0.97 -2.24,-0.97 -2.31,0 -2.48,-2.28 3.37,-0.24 4.68,3.01 8.73,3 -1.7,-3.12 -2.04,-1.39 -4.35,-2.91 -0.91,-0.6 -2.61,-3.73 -2.79,-4.7 1.73,-1.05 4.09,-1.65 6.09,-2.49 0.1,-0.04 0.25,-0.09 0.37,-0.15l-3.48 -2.24c-1.52,-1.52 -0.9,-2.83 0.11,-4.62 1.11,-1.98 0.44,-1.19 2.52,-2.07l0.11 -2.14c0.77,-0.41 1.62,-0.94 2.21,-1.34l1.71 1.35 1.1 -2.52c0.04,-0.09 0.1,-0.2 0.15,-0.29 0.38,-0.71 -0.22,0.94 0.55,-0.87 -2.09,-2.19 -2.58,-3.37 -2.84,-6.77 1.98,0.23 2.56,0.4 3.53,1.55 1.97,2.32 0.44,0.94 3.37,1.75l1.26 2.81c0.43,-0.28 0.24,-0.83 0.38,-1.28 0.02,-0.06 0.04,-0.19 0.07,-0.26l0.73 -0.97c-1.79,-1.82 -14.36,-8.82 -16.72,-9.99 -20.35,-10.14 -36.12,-16.11 -60.94,-19.59 -24.7,-3.46 -49.07,-1.82 -73.02,4.14 -3.88,0.97 -6.66,1.96 -10.29,2.99l-10.06 3.61 0.64 2.34c1.33,-0.21 2.5,-0.84 3.31,-0.95 1.93,-0.26 0.24,-0.43 1.68,0.5l-0.28 3.42c2.1,-0.14 2.02,-2.26 2.54,-4.25 1.54,0.19 1.33,0.33 2.78,0.22 -0.4,1.11 -1.45,0.86 0.08,4.97 0.57,-0.99 0.35,-2.75 0.5,-4.13 0.22,-2.09 0.17,-1.9 2.32,-1.82 0.33,-2.72 -0.81,-1.15 1.16,-2.64 2.04,-1.54 2.75,-0.72 3.5,-0.7 2.19,0.06 0.06,0.11 1.23,-0.47l1.26 -0.62c1.93,-1.41 2.07,-2.17 5.65,-1.3 2.03,0.5 3.75,0.75 4.47,2.41 -1.2,1.68 -0.25,0.55 -2.27,1.21l3 -0.26c0.85,2.28 -0.7,0.81 1.39,2.05 1.12,0.67 1.56,0.74 1.94,2.06 -0.22,3.14 -7.07,1.62 -11.44,3.42 2.54,-0.57 2.68,-0.71 5.48,-0.18l-0.6 1.26c-0.05,0.07 -0.16,0.18 -0.21,0.24 -0.06,0.07 -0.18,0.19 -0.23,0.25 -0.05,0.06 -0.17,0.16 -0.25,0.25 4.91,0.4 0.52,-1.62 5,-1.86 -0.35,4.11 -2.01,2.95 -3.56,5.27 2.35,-0.66 3.8,-1.7 5.75,-2.85 2.35,-1.38 5.27,-2.83 6.27,1.56 -0.21,0.31 -3.53,3.59 -5.79,4.11l-0.63 0.14c1.4,0.18 0.99,-0.16 1,1.31 -5.08,4.99 -4.63,8.27 -5.85,10.53l-1.43 1.73c1.75,1.48 -0.11,1.03 0.92,2.59 0.6,0.92 0.11,-0.23 0.95,1 -0.14,0.42 -1.6,4.53 -1.61,4.53 -0.06,-1.91 0.23,-1.91 -0.6,-3.35 -5.02,0.61 1.39,3.6 -1.49,7.47l0.17 3.77 -3.32 0.92c1.44,1 1.16,-0.09 1.05,1.65 -1.09,0.82 -1.1,1.13 -2.92,1.73l0.15 1.16c0.14,1.72 -0.6,2.41 -1.95,3.52 -0.09,0.08 -0.24,0.17 -0.35,0.27 4.11,3.48 -1.04,11.08 -2.76,3.5 -1.7,1.38 0.72,-0.57 -2.5,3.48 1.39,-0.18 3.7,0.33 4.68,0.91l-4.69 3.9c-4.59,2.92 -8.68,1.68 -12.6,5.41 -2.06,1.96 -2.58,4.14 -7.8,5.81 -2.96,0.95 -4.38,0.18 -5.72,3.42 -0.43,1.04 -0.7,2.57 -1.25,3.43 -0.64,1 -3.39,3.29 -5.47,8.32 -0.47,1.13 -0.86,1.97 -1.48,2.96 -1.57,0.22 -2.03,-0.07 -2.95,-0.94l-0.91 -1.78 -2.46 0.65c-1.44,-2.43 -1.5,-0.88 -1.73,-4.18 -0.15,-2.22 -0.4,-2.71 -0.74,-4.46 -0.34,-1.71 -0.08,-1.12 0.02,-2.53 0.01,-0.11 0.02,-0.22 0.03,-0.33l-0.1 -7.17c0.12,-0.57 0.28,-0.69 0.46,-1.12 0.33,-0.76 0.15,-0.14 0.29,-0.71 0.19,-0.81 -0.22,-0.71 0.38,-2.08 1.89,-4.29 4.9,-4.58 6.06,-5.95 1.07,-1.27 0.33,-0.31 1.01,-1.98l0.87 -1.18 -1.96 -0.36c0.96,3.61 -4.34,4.01 -3.53,0.09 0.22,-1.08 0.54,-1.15 0.98,-1.77 2.06,-2.89 0.33,-1.9 4.19,-1.71 -0.3,-2.03 -0.21,-1.17 -0.08,-3.19 -0.77,0.97 -1,1.28 -2.75,0.99 -0.46,-2.27 -0.27,-0.93 0.44,-2.39 0.27,-0.55 0.65,-1.36 0.98,-2.05 0.04,-0.09 0.45,-0.84 0.61,-1.09l0.54 -0.76c1.47,-2.58 0.96,-10.7 2.24,-12.27 -1.88,-2.86 -4.1,-3 -7.32,-2.45 -0.07,0.01 -0.19,0.05 -0.26,0.07 -0.87,0.17 -0.85,0.4 -1.69,0.13 -1.34,-3.39 0.31,-1.9 0.32,-3.59 -2.69,-0.13 -1.34,-0.17 -3.01,1.53 -0.78,0.8 -1.75,1.36 -2.41,1.86 -0.44,1.44 0.68,2.04 -1.48,3.24 -4.24,2.37 -0.71,1.14 -3.17,2.39 -2.01,-3.07 0.55,-1.42 -2.93,-2.63 1.28,5.49 2.48,5.2 -2.68,8.53 -0.71,0.46 -0.17,-0.08 -0.69,0.52 3.44,9.4 -0.52,4.85 1.42,9.15 1.88,4.2 4.7,7.31 2.92,12.35 -0.62,1.76 -0.19,0.44 -1.83,1.2 0.35,1.16 4.01,5.77 4.16,8.21 0.14,2.31 -3.26,3.57 -4.44,4.81 -1.56,1.64 0.36,1.07 -2.11,1.61l-1.75 -3.28c-0.98,-1.09 0.18,-0.62 -0.69,-0.27 -2.95,1.31 3.11,4.11 -0.71,9.58 -0.57,0.82 -0.21,0.26 -0.63,1.22l-0.93 1.32c-0.56,-1.69 -1.49,-3.11 -3.05,-3.86 0.64,1.6 2.95,5.61 1.58,7.04l-0.84 -1.21c-1.58,-2.02 -1.06,-0.4 -3.12,-2 -3.52,-2.72 -1.99,-0.01 -3.88,-3.86 -0.41,-0.83 -1.34,-2.92 -1.64,-3.39 -2.11,-0.12 -1.39,0.52 -3.8,0.28 -1.36,-2.04 -3.46,-4.9 -2.94,-7.84 0.7,-1.14 3.13,-1.7 3.91,-3.1 1.58,-2.82 -1.15,-3.23 3.48,-4.65l1.12 2.89c0,-0 7.39,-4.61 4.04,-7.14l-0.88 -0.5c-0.07,-0.04 -0.23,-0.09 -0.32,-0.16l0.38 -0.92c-1.92,0.9 -1.2,-0.34 -1.24,-0.36 1.22,-2.37 1.1,0.07 0.83,-2.53 -0.13,-1.29 0.27,-2.35 0.12,-3.02 -1.22,1.28 -0.14,1.77 -2.89,2.22 -0.87,0.14 -2.26,-0.59 -3.97,-0.96l0.76 2.58c-0,0.55 -0.53,1.89 -0.98,2.34 -0.07,0.07 -0.16,0.15 -0.24,0.21l-0.55 0.33c-1.2,0.72 -0.45,-0.25 -1.28,0.79 -0.92,1.16 -0.28,1.36 -0.65,2.67 -0.19,0.67 -4.54,6.4 -8.62,3.67 -1.52,2.61 -0.41,1.27 -0.11,1.98 0.02,0.04 0.09,0.15 0.1,0.19l0.07 0.65c0.03,1.15 -0.53,-0.27 0.11,1.16 0.5,1.13 1.98,3.82 2.08,5.72 -2.4,2.49 -2.75,0.15 -4,-0.77 -1.03,1.3 -1.94,2.12 -3.81,2.8 -0.08,-0.11 -0.18,-0.42 -0.21,-0.35l-0.55 -0.99c-0.25,-0.48 -0.44,-0.95 -0.53,-1.12 0.92,-1.47 0.87,-0.43 2.63,-3.91 -1.23,0.92 -1.81,1.42 -2.94,2.31 -0.57,0.45 -0.7,0.71 -1.56,0.97 -0.85,0.26 -0.52,0.06 -1.07,0.18 -2.79,0.64 -2.6,1.6 -3.71,2.79 -1.62,1.74 -1.23,-0.06 -3.35,2.18 -1.32,1.39 -1.83,1.23 -3,2.15 -1.78,1.4 -5.55,5.98 -6.87,9.17 1.78,1.33 2.04,-0.6 0.41,5.75 0.74,-0.42 1.13,-0.47 2.25,-0.23l2.09 1.3c1.76,1.53 2.59,4.11 4.86,4.73 1.53,0.42 3.34,-0.62 5.51,4.25l0.43 -0.9c0.59,-1.49 0.08,-1.83 3.12,-2.81 -0.7,-1.55 -1.74,-1.99 -0.92,-3.59 1.99,-0.83 2.22,0.44 2.82,1.99 4.59,-2.45 2.69,-5.6 2.37,-9.19 4.21,-4.74 3.38,-2.04 4.2,-7.23 1.53,-2.1 2.18,-2.72 0.73,-4.34l0.69 -0.22c0.05,-0.02 0.18,-0.07 0.24,-0.09 4.19,-1.7 3,-0.07 4.89,-0.37 1.56,1.26 0.41,0.11 0.71,-0.18 -0.76,-1.4 -1.27,-2.07 -1.22,-3.42l0.57 0.26c0.05,0.04 0.2,0.11 0.26,0.16 1.02,0.84 1.21,1.97 1.81,2.94l2.51 3.95c1.45,2.21 3.34,2.46 5.68,6.28l2.36 -2.8c4,3.67 3.95,15.72 3.51,17.05 1.82,1.32 1.42,0.66 2.67,2.95 7.09,12.94 -1.26,7.36 3.51,15.76 0.95,1.67 0.78,2.6 0.88,4.22 0.11,1.7 0.96,2.09 -0.09,3.73 -1.1,1.72 -2,0.75 -3.12,-0.52 -1.07,0.54 -0.72,0.62 -2.08,0.79 -0.94,-1.41 -0.39,-1.62 -2.42,-1.91 -1.84,-0.26 -2.28,0.44 -3.33,-0.46 -0.28,-0.24 -1.79,-2.67 -1.91,-2.91 -0.84,-1.71 -0.08,-1.98 0.47,-3.41l-2.78 -0.18c0.47,1.13 0.99,1.35 1.05,2.25 0.06,0.94 0.15,0.25 -0.19,0.86 -1.5,0.13 -2.4,-0.49 -3.06,-1.36 -1.39,-1.83 -0.34,-2.17 -3.36,-1.89 1.73,3.78 3.47,2.96 1.01,6.06 0.64,0.8 0.15,0.26 1.05,1.09 0.37,-0.71 1.6,-2.01 2.28,-2.48 1.87,0.87 3.8,4.44 3.68,6.78 -1.22,1 -3.54,2.08 -5.46,2.72 -3.53,1.17 -2.55,1.87 -5.49,3.1 -1.36,-0.67 -1.55,-1 -2.08,-2.27 -2.72,0.15 -5.6,1.22 -6.73,3.22 -1.48,2.63 -0.05,2.18 -0.11,3.31 -0.1,1.64 -1.15,0.26 -4.53,2.33 -0.95,0.58 -1.03,0.42 -1.79,0.83 -1.71,0.94 -0.9,1.62 -2.07,3.04 -0.72,0.86 -0.81,0.58 -1.37,1.27 -0.42,0.52 -0.52,1.01 -0.85,1.67 -0.69,1.37 -1.45,1.64 -1.58,1.7 -2.15,1 1.21,-0.96 -0.56,0.2 0.18,1.39 0.25,3.22 -0.03,4.25 -0.69,2.54 -3.42,2.46 -6.2,5.62 -1.7,1.93 -7.05,2.82 -4.51,10.14 0.48,1.39 -0.08,0.37 0.63,1.12 2.17,2.27 0.2,-1.13 3.09,1.13 1.22,0.95 2.35,1.87 2.61,3.7l-1.65 -0.65c-0.08,-0.02 -0.2,-0.06 -0.28,-0.08 -3.96,-1.06 -0.68,-0.23 -3.46,-1.66 -0.16,4.47 3.28,2.27 3.71,6.31l-0.11 1.22c-0.94,-0.54 -1.43,-1.01 -2.32,-1.72 -1.9,-1.53 -0.74,-0.63 -1.72,-2.58 -1.26,2.42 -3.07,0.78 -5.6,-2.09 -2.08,-2.36 -2.15,-4.82 -3.15,-7.55 -1.86,-0.56 -2.32,-0.96 -4.8,-0.76 -2.55,0.2 -2.09,1.16 -1.87,2.78 -1.91,-0.23 -3.33,0.21 -6.25,-3.25 0,6.34 0.42,11.18 0.86,16.77 2.35,-0.11 3.26,-1.13 5.39,0.13 1.08,0.64 2.84,1.95 3.59,3.24 -0.55,2.08 -0.95,1.3 -1.35,3.86 -0.25,1.59 0.03,0.72 -0.54,1.96 -0.49,1.07 -0.64,-0.95 -0.59,1.89 1.41,0.86 2.74,0.53 4.89,1.9 1.35,0.87 2.84,1.74 3.92,2.82 0.49,5.19 -1.78,6.05 0.95,9.79 4.84,-1.74 3.62,-1.08 7.3,0.83 2.05,-2.1 1.43,-0.97 2.46,-4.3 1.09,-0.27 2.18,-0.45 3.43,-0.88 2.04,-0.7 1.04,-0.77 2.67,-1.65 0.08,-0.02 3.88,0.7 5.53,1.79 4.25,2.79 1.89,1.43 6.07,2.56 3.73,1.01 -0.12,-1.68 6.35,-0.34l1.46 0.13c2.18,0.24 1.23,1.01 3.71,2.27 -0.13,1.4 -0.2,1.16 -0.52,2.21 2.84,1.2 3.96,3.71 5.71,4.69 1.72,0.96 4.98,0.38 8.09,2.18 1.14,0.66 4.88,3.9 5.46,4.85 0.82,1.35 0.89,2.04 1.82,3.31 1.51,2.06 0.86,1.43 1.52,3.94 3.04,0.95 5.97,1.73 8.55,3.56 2.84,2.01 6.65,0.8 9.71,2.68 1.99,1.23 3.04,2.73 4.62,3.56 2.72,1.42 3.1,0.53 4.86,3.26 3.92,6.1 -0.91,9.27 -1.93,11.17 -2.65,4.93 -2.53,3.18 -2.16,5.68 0.65,4.44 0.71,5.62 0.38,9.76 -0.1,1.27 -0.69,1.95 -0.92,3.25 -0.35,1.95 0.47,1.14 -0.72,2.28 -2.71,2.6 -2.46,-0.61 -5.76,1.97 -1.03,0.8 -1.59,0.96 -2.52,1.75 -1.99,1.7 -2.21,2.63 -1.16,5.55 1.06,2.95 -2.87,9.03 -3.09,10.07 -1.07,5.15 -0.61,4.36 -5.69,3.93 1.02,1.48 -0.16,0.57 1.67,2.94 0.32,0.42 0.47,-0.07 0.69,1.38 0.06,0.41 -0.08,1.7 -0.09,2.28 -2.25,1.51 -2.95,0.88 -5.69,1.11 0.91,4.02 1.65,3.22 0.13,4.45l-1.93 -0.25c-1.57,0.29 -1.72,-0.2 -2.84,-0.73 2.03,3.93 2.18,0.28 3.43,3.31 0.65,2.2 -0.08,-0.08 -0.63,1.57 -0.67,1.99 0.44,0.24 -0.19,2.74 1.75,0.87 2.57,1.71 4.26,2.83l12.6 7.97c2.92,1.76 5.79,3.19 8.94,4.77 8.56,4.28 20.11,9.34 29.27,11.85 8.88,2.43 12.51,3.59 22.09,5.32 3.57,0.65 14.43,2.3 18.17,2.39 2.78,0.07 3.82,0.44 6.41,0.44 20.16,0.03 31.44,-0.31 50.38,-4.48 7.61,-1.68 14.47,-3.95 21.23,-6.19 7.38,-2.44 17.05,-6.7 23.79,-10.47 7.97,-4.46 13.57,-7.36 21.31,-12.96 3.54,-2.56 12.26,-8.92 15.35,-12.07 1.38,-1.4 2.32,-1.89 3.65,-3.21l16.69 -17.57c6.78,-7.6 14.35,-19.42 19.63,-28.34 0.96,-1.61 1.45,-2.88 2.4,-4.45 1.38,-2.27 8.19,-16.55 8.33,-18.93 -1.29,-1.82 -1.85,-1.58 -2.44,-4.42 -0.5,-2.4 -2.75,-7.81 -4.36,-9.63 -1.15,-1.29 -3.49,-1.87 -2.2,-4.53 5.77,-0.55 7.05,5.2 12.82,7.93 -0.9,-0.93 -3.92,-2.41 -4.12,-6.24 -0.37,-6.85 -3.65,-5.25 -3,-9.11 0.11,-0.64 0.38,-1.16 0.53,-2 0.25,-1.31 0.62,-3.12 0.49,-4.36 -0.12,-1.13 -1.79,-7.96 -2.1,-8.51 -2.02,0.14 -1.26,1.76 -5.45,1.6 -0.37,-9.25 0.47,-2.41 -1.69,-7.37 -0.46,-1.06 -0,-0.57 -0.75,-1.32 -1.04,-1.04 -2.4,-0.98 -2.51,-4.73 -0.55,-1.15 0.48,-0.69 -3.15,0.67 -1.43,0.53 -3.38,0.63 -4.75,1.03 -1.05,1.87 -0.02,2.44 -2.33,3.95 -2.22,1.45 -1.53,1.59 -3.11,3.33 -1.45,1.6 -2.86,3.52 -4.77,4.64 -0.61,0.35 -1.36,0.74 -2.22,1.09 -0.09,1.76 0.11,3.84 0.01,5.39 -0.08,1.31 -0.67,2.44 -0.99,4.35 -0.41,2.42 -1.26,2.4 -3.19,4.69 -1.12,1.33 0.43,0.43 -1.34,1.49 -2.35,-0.28 -2.13,-1.89 -2.57,-3.92 -0.56,-2.58 -1.36,-3.1 -2.09,-4.79l-3.64 -10.78 -1.02 -8.56c-2.99,0.63 0.18,0.08 -2.25,1.16 -1.03,0.46 -0.9,0.54 -1.98,0.02l-2.67 -4.06c-0.89,-1.77 -1.68,-0.85 -4.35,-4.69l-0.77 -1.26c-11.37,0 -1.22,1.83 -17.63,-0.52 -0.45,-0.9 -1.03,-2.16 -2.06,-3.07 -4.05,0.94 -2.91,2.58 -7.06,-0.7 -1.4,-1.1 -0.89,-0.32 -2.36,-1.09 -1.41,-0.75 -1.84,-2.94 -2.66,-4.12 -0.5,-0.72 -0.95,-1.33 -2.49,-1.13 -4.22,0.55 -0.02,4.53 1.21,6.58 1.6,2.64 5.8,5.58 9.09,5.08 1.89,-0.29 2.64,-1.19 3.66,-1.8 0.93,-0.55 -0.25,-0.6 0.77,-0.26 0.12,2.43 0.27,2.15 0.71,4.21 3.09,0.47 4.52,0.56 5.92,3.17 1.44,2.7 -1.81,4.29 -2.87,5.49 -0.07,0.4 -0.06,1.96 -0.26,2.41 -0.61,1.34 -0.25,-0.3 -3.13,2.37 -0.99,0.92 1.34,-1.2 -0.68,0.55l-0.9 0.87c-1.85,2.07 -0.11,0.67 -3.57,1.87 -2.58,0.89 -1.53,1.36 -3.04,2.64 -0.99,0.84 -2.71,1.14 -3.84,1.6 -3.12,1.28 -1.06,1.44 -7.96,3.33 -1.99,0.54 -1.79,1.77 -4.41,1.2 -0.49,-1.12 -1.15,-2.88 -1.49,-4.65 -1.75,-9.2 -0.81,-2.67 -3.79,-9.51 -1.06,-2.45 -2.16,-1.9 -3.39,-3.45 -0.81,-1.02 -0.64,-3.23 -1.29,-5.13 -1.46,-4.25 -1.81,-1.05 -3.11,-3.78 -0.8,-1.69 -3.76,-9.05 -6.32,-7.04l-0.34 0.84c-0.47,2.64 2.58,4.27 4.84,9.02 1.07,2.23 -0.12,0.77 1.58,2.15 0.83,0.67 1.13,0.98 1.5,2.03 0.83,2.37 0.3,4.34 1.94,6 2.29,2.33 1.56,0.13 3.22,3.89 0.47,1.06 0.83,1.53 1.53,2.44 1.55,2 1.14,1.69 1.56,3.74 0.2,0.95 -0.3,-0.65 0.16,0.77 0.48,1.51 1.11,1.51 2.01,2.92 0.5,0.78 0.23,0.17 0.54,1.11l0.24 1.05c0.04,0.11 0.06,0.23 0.11,0.34 0.04,0.1 0.09,0.21 0.14,0.31 0.21,0.37 1.68,1.63 1.96,1.88l13.15 -3.23c0.67,3.2 -0.65,5.68 -1.89,7.7 -1.23,2.01 -2.24,4.86 -3.56,6.59 -1.43,2.99 -3.75,4.78 -6.07,6.46 -2.77,2 -4.7,3.48 -6.54,5.89 -1.84,2.41 -7.59,8.12 -7.33,10.85 0.25,2.72 0.35,-1.86 0.43,5.18 0.2,2.82 0.93,2.2 1.43,3.66 0.14,0.41 0.54,9.3 -2.81,12.3 -1.95,1.74 -5.4,3.19 -8.89,6.55 -1.47,1.42 -1.01,2 -0.61,4.03 0.67,5.78 -1.32,6.57 -5.47,8.29 -0.4,2.18 -0.2,2.53 -1.02,4.53 -1.05,2.58 -0.97,1.65 -2.45,3.14 -2.66,2.69 -4.43,8.07 -12.64,10.52 -1.79,0.53 -2.31,-0.05 -4.41,0.3 -1.33,0.22 -3.79,1.15 -4.83,1.07 -4.5,-0.33 -1.47,-6.2 -4.58,-11.68 -0.84,-1.48 -1.52,-1.69 -2.18,-3.81 -0.86,-2.78 -1.2,-13.57 -5.67,-17.37l-0.01 -1.79c-0.29,-9.66 4.32,-10.3 4.11,-13.26 -0.1,-1.37 -0.39,-1.21 -0.72,-2.21 -0.39,-1.2 -0.32,-7.75 -3.8,-11.11 -1.36,-1.32 -4.68,-4.23 -4.37,-7.28 0.06,-1.37 0.54,-1.76 0.8,-3.1 0.37,-1.92 0.05,-1.65 0.72,-3.61 0.94,-2.74 0.35,-3.6 -1.57,-5.14 -1.5,-0.14 -4.21,0.92 -5.57,0.41 -1.81,-0.66 -1.29,-2.67 -2.91,-3.92 -3.28,-2.52 -7.97,1.58 -10.85,2.35 -2.72,0.73 -3.05,-0.58 -6.25,-0.43 -5.26,0.25 -5.12,3.51 -10.42,-0.97 -3.92,-3.32 -5.55,-3.02 -7,-7.05 -0.84,-2.34 -1.59,-2.06 -2.96,-3.96 -2.33,-3.23 -2.06,-1.71 -3.59,-3.29 -0.71,-0.73 -0.74,-1.28 -0.88,-2.52 -0.27,-2.26 -0.67,-1.98 -0.77,-3.09 -0.16,-1.81 2.66,-5.63 1.48,-11.47 -0.4,-1.96 -2.37,-1.8 -0.71,-5.18 0.66,-1.35 1.74,-3.88 2.74,-4.62 2.71,-5.13 1.09,-2.92 3.61,-5.31l0.73 -1.02c2.13,-3.91 3.34,-1.43 5.96,-5.15 1.7,-2.41 0.04,-5.42 2.63,-8.51 2.32,-2.77 4.21,-0.93 5.36,-5.63zm-100.04 147.18c0.27,-1.27 -0.35,-4.64 -0.69,-6.37 -0.4,-2.08 -1.53,-3.81 -2.4,-5.76 -1.17,-2.63 -2.74,-9.65 -3.34,-12.77 -3.98,-10.32 -0.54,-10.84 -10.94,-17.09 -6.34,-3.81 -4.87,-4.56 -8.89,-9.49 -4.7,-5.76 -2.42,-5.48 -8.36,-10.09 -1,-0.78 -1.42,-2.04 -1.54,-3.21 -0.21,-2.05 0.28,-1.55 1.26,-2.9 -2.26,-2.57 -2.71,-5.62 -0.4,-8.53 0.06,-0.07 0.15,-0.16 0.21,-0.23 2.83,-3.71 3.43,-3.84 1.98,-8.91 -0.39,-1.36 -0.51,-1.02 -1.13,-2.28 -0.45,1.26 -0.06,0.85 -0.69,1.84 -1.34,-0.23 -1.68,-0.71 -2.8,-1.34 -1.61,-0.9 -1.65,-0.51 -3.16,-1.13l-7.51 -5.34c-0.89,-1.08 -0.71,-4.02 -5.78,-6.54 2.99,11.51 3.3,17.15 8.32,30.14 2.9,7.5 5.08,12.83 8.67,20.03l14.53 24.02c1.46,2.12 2.69,3.61 4.21,5.64 1.48,1.96 2.69,3.43 4.15,5.27 0.9,1.14 1.24,1.46 2.19,2.53 0.99,1.12 1.21,1.65 2.36,2.78 2.6,2.57 6.81,8.25 9.75,9.74zm205.77 -45.26c0.96,1.39 1.15,2.24 1.1,4.59 -0.06,2.95 -0.49,2.37 -1.52,4.25 -0.72,1.33 -0.99,2.67 -1.52,4.04l-5.68 11.84c-1.04,1.78 -5.42,4.36 -7.33,2.59 -1.28,-1.18 -1.56,-5.43 0.37,-8.23 3.74,-5.4 0.09,-4.76 2.29,-8.41 2.67,-4.43 3.93,-0.82 8.02,-6.13 1.62,-2.1 2.42,-3.87 4.27,-4.54zm-112.07 -145.41c0.12,-1.91 1.19,-1.79 1.45,-3.07 0.28,-1.38 -0.49,-0.96 -0.49,-3.51 1.2,-1.2 0.13,-0.1 1.12,-0.61 1.38,-0.71 0.3,0.25 1.28,-0.85 0.98,-1.09 -0.06,-1.5 2.15,-1.76 4.46,-0.54 2.42,3.79 2.4,3.88 -0.81,2.93 0.61,3.79 -2.17,5.25 -2.43,1.27 -3.48,2.34 -5.74,0.67zm12.19 -16.9c1.65,0.24 1.33,-0.27 2.65,0.68 -0.31,1.99 -0.98,2.07 -1.47,3.86l1.12 1.33c1.24,1.24 0.06,-0.35 1.02,1.08l3.11 5.44c1.19,1.87 1.68,-0.12 2.7,2.21 0.7,1.6 -0.86,0.85 -0.85,3.24 0,0.9 -0.04,0.06 0.1,0.5 0.64,2.05 0.17,0.32 0.31,0.33 -2.5,1.89 -2.29,1.36 -6.02,1.86 -2.22,0.3 -4.7,1.97 -6.51,1.56 0.65,-1.18 0.53,-0.84 1.42,-1.68 1.23,-1.17 0.17,-0.6 1.93,-1.34 -0.86,-1.26 -0.53,-0.95 -2.4,-1.69 1.34,-2.99 0.85,0.61 1.27,-4.28 2.27,-0.58 1.62,0.72 2.14,-1.32 0.22,-0.88 -0.4,-1.39 -0.58,-2.94l-2.31 -0.17c-0.12,-2.45 -1.25,-2.46 -2.26,-3.01 1.53,-1.08 0.92,-2.54 0.03,-4.56 3.32,-2.04 -0.19,-3.41 5.08,-3.43l-0.49 2.32zm-29.88 -25.02c0.31,-2.04 1.45,-3.05 3.98,-3.1l1.18 2.86c1.87,-3.32 0.93,-0.91 5.83,-2.45 4.6,-1.45 2.51,0.47 4.84,2.69 -1.87,3.15 0.7,2.22 -5.79,5.65 -5.05,2.66 -3.4,0.15 -8.67,0.13 0.05,-1.12 0.09,-0.3 0.36,-1.04 0.39,-1.12 0.16,1.01 0.5,-1.53 -0.77,-0.53 -1.23,-0.5 -2.19,-1.06 0.07,-0.07 0.21,-0.23 0.24,-0.15 0.04,0.08 0.2,-0.12 0.25,-0.15 2.3,-1.33 0.6,0.88 1.89,-1.41 -1.47,-0.63 -0.96,-0.26 -2.41,-0.43zm65.57 -48.53l0.45 3.14c-0.04,1.16 -0.25,3.37 -1.21,3.91l-2.79 -0.38c-0.27,-0.94 -0.05,-1.51 -0.41,-2.96l-1.19 -2.34c-1.02,1.64 -1.71,7.84 -2.14,9.91 -2.03,-0.21 -0.5,0.21 -2.2,-1.66 -0.06,-0.06 -0.15,-0.15 -0.21,-0.21 -0.99,-0.98 -1.24,-0.27 -1.91,-2.39 -0.24,-0.77 -0.49,-2.73 -0.9,-3.38 -1.23,-1.97 -0.8,-0.38 -2.61,-0.83 -0.68,-2.23 -0.75,-4.81 -0.75,-7.52 1.08,1.96 -0.09,1.05 2.15,1.57l-0.25 -1.43c-0.86,-1.27 -0.43,-1.06 -1.05,-2.54 -0.05,-0.11 -0.1,-0.21 -0.15,-0.32 -2.3,-5.18 3.17,-3.35 4.02,-3.25l1.29 -1.61c2.28,1.09 2.65,1.5 3.05,4.23 1.41,0.23 1.35,-0.04 2.39,1.02 3.37,3.42 1.4,3.11 5.03,5.46l-0.61 1.58zm62.53 -13.25c-1.27,-1.07 -3.28,-4.77 -3.48,-5.42 -0.39,-1.32 0.47,-4.51 1.03,-5.98l2 1.72c0.45,0.65 0.06,-0.09 0.32,0.67 0.46,1.36 -0.22,0.62 1.83,2.41 1.74,-0.19 0.74,0.89 1.57,-1.14 0.24,1.69 0.46,1.65 1.37,2.37 1.89,1.49 5.11,2.27 6.76,1.91 0.5,-0.92 0.31,-1.92 0.58,-2.5 1.14,2.41 1.53,4.77 3.85,6.57 0.55,-0.29 2.31,-1.79 2.43,-1.93 -0.55,3.24 -1.08,5.18 -2.86,6.57 0.29,0.85 0.14,0.39 0.61,0.95l0.18 0.12c0,-0.02 0.07,0.02 0.07,0l-1.39 5.22c-0.57,0.98 -0.03,0.64 -1.48,0.94l1.42 -5.52c-0.36,-0.18 -0.67,0.25 -1.46,-0.46 -0.54,-0.48 -0.62,-0.83 -1.01,-1.65 -0.56,-1.17 -1.09,-2.39 -1.54,-3.45l-1.82 1.93c-2.6,-0.96 -3.54,-0.37 -6.42,-2.77l-1.14 -1.44c-0.03,-0.15 -0.09,-0.2 -0.15,-0.29 -0.29,1.43 0.22,1.04 -1.28,1.18zm-31.44 -7.88c0.49,-1.59 -0.21,-3.36 1.02,-4.85 0.44,0.68 0.35,0.15 0.34,1.28 0,0 -2.82,7.39 1.91,6.26 0.37,-0.94 0.01,-2.09 -0.01,-2.85 1.64,-0.32 1.15,0.44 1.43,-1.14 -0.1,2.23 -0.62,4.92 -1.26,7 -1.31,4.3 -0.11,5.88 -1.99,6.63 -0.72,-1.37 -0.18,-1.03 -0.37,-2.87 -0.99,0.76 -1.85,4.41 -3.72,1.29 -1.29,0.93 -0.66,0.9 -2.49,1.16l-0.27 -3.5c0.85,0.78 -0.36,4.34 -0.86,5.09 -1.28,-0.41 -1.61,-1.06 -1.9,-2.45 -0.25,0.8 -0.31,1.38 -0.96,1.73 -1.13,0.61 -1.48,-0.4 -1.69,-0.66 -1.64,-2 0.6,-0.26 -3.19,-1.63l0.65 -6.52c0.37,0.11 1.43,0.27 1.71,0.37 2.28,0.86 0.91,3.25 3.91,1.3l1.6 0.93c0.44,0.37 0.11,0.24 0.68,0.23 0.67,-1.46 -0.5,-4.78 0.92,-6.54 0.72,1.57 -0.86,1.08 2.57,1.91l1.98 -2.19z"/>
 </g>
</svg>
