<?xml version="1.0" encoding="UTF-8"?>
<!DOCTYPE svg PUBLIC "-//W3C//DTD SVG 1.1//EN" "http://www.w3.org/Graphics/SVG/1.1/DTD/svg11.dtd">
<!-- Creator: CorelDRAW -->
<svg xmlns="http://www.w3.org/2000/svg" xml:space="preserve" width="11.7897in" height="9.65185in" version="1.1" style="shape-rendering:geometricPrecision; text-rendering:geometricPrecision; image-rendering:optimizeQuality; fill-rule:evenodd; clip-rule:evenodd"
viewBox="0 0 1413.67 1157.33"
 xmlns:xlink="http://www.w3.org/1999/xlink"
 xmlns:xodm="http://www.corel.com/coreldraw/odm/2003">
 <defs>
  <style type="text/css">
   <![CDATA[
    .fil0 {fill:#8900AB}
   ]]>
  </style>
 </defs>
 <g id="Layer_x0020_1">
  <metadata id="CorelCorpID_0Corel-Layer"/>
  <path class="fil0" d="M309.71 1154l203.14 0c1.67,-93.25 0,-188.16 0,-281.4 0,-46.62 0,-94.91 0,-141.53 0,-44.96 -1.67,-93.25 48.29,-93.25 51.62,0 49.95,46.62 49.95,91.58l0 283.07c0,46.62 -1.67,94.91 0,141.53l201.48 0c-1.67,-136.54 0,-284.73 0,-422.93 0,-44.96 -1.67,-93.25 48.29,-93.25 51.62,-1.67 49.95,46.62 49.95,91.58l0 424.6 203.14 0c-1.67,-49.95 1.67,-103.24 0,-153.19 -1.67,-49.95 0,-101.57 -1.67,-151.52 0,-38.3 1.67,-198.15 -3.33,-226.45 -8.33,-44.96 -18.32,-74.93 -44.96,-109.9 -9.99,-14.99 -21.65,-31.64 -33.3,-43.29 -26.64,-26.64 -54.95,-49.95 -89.92,-64.94 -59.94,-23.31 -161.51,-14.99 -208.14,36.63 -5,6.66 -11.66,14.99 -18.32,21.65l-26.64 -29.97c-46.62,-43.29 -146.53,-49.95 -203.14,-31.64 -69.93,21.65 -124.88,91.58 -153.19,156.52 -19.98,46.62 -21.65,76.59 -21.65,131.54 0,154.85 -1.67,311.37 0,464.56z"/>
  <path class="fil0" d="M-0 1065.75l0 91.58 241.44 0c3.33,-74.93 0,-154.85 0,-231.45 0,-78.26 0,-154.85 0,-233.11 0,-121.55 43.29,-208.14 99.91,-308.04 3.33,-5 6.66,-11.66 9.99,-18.32 5,-6.66 9.99,-11.66 11.66,-18.32l-158.18 -173.17c-5,3.33 -5,5 -8.33,8.33 -34.97,49.95 -69.93,103.24 -99.91,156.52 -41.63,74.93 -94.91,221.46 -96.58,314.7l0 411.28z"/>
  <path class="fil0" d="M1050.68 348.09l21.65 34.97c54.95,94.91 99.91,186.49 99.91,303.05l0 469.56 241.44 1.67 0 -459.57c-1.67,-66.6 -1.67,-94.91 -19.98,-161.51 -28.31,-103.24 -53.28,-164.84 -109.9,-253.09 -24.98,-41.63 -46.62,-71.6 -73.26,-109.9l-119.89 129.88c-3.33,5 -6.66,6.66 -9.99,9.99l-29.97 34.97z"/>
  <path class="fil0" d="M361.33 3.42c-63.27,9.99 -118.22,76.59 -104.9,158.18 11.66,64.94 68.27,126.55 148.19,111.56 61.61,-11.66 116.56,-78.26 103.24,-156.52 -9.99,-66.6 -66.6,-128.21 -146.53,-113.23z"/>
  <path class="fil0" d="M1014.04 1.75c-64.94,9.99 -118.22,73.26 -108.23,151.52 8.33,68.27 64.94,131.54 144.86,119.89 64.94,-9.99 116.56,-74.93 106.57,-153.19 -6.66,-66.6 -64.94,-131.54 -143.2,-118.22z"/>
 </g>
</svg>
