<?xml version="1.0" encoding="UTF-8"?>
<!DOCTYPE svg PUBLIC "-//W3C//DTD SVG 1.1//EN" "http://www.w3.org/Graphics/SVG/1.1/DTD/svg11.dtd">
<!-- Creator: CorelDRAW -->
<svg xmlns="http://www.w3.org/2000/svg" xml:space="preserve" width="11.8309in" height="6.54769in" version="1.1" style="shape-rendering:geometricPrecision; text-rendering:geometricPrecision; image-rendering:optimizeQuality; fill-rule:evenodd; clip-rule:evenodd"
viewBox="0 0 1057.63 585.33"
 xmlns:xlink="http://www.w3.org/1999/xlink"
 xmlns:xodm="http://www.corel.com/coreldraw/odm/2003">
 <defs>
  <style type="text/css">
   <![CDATA[
    .fil0 {fill:#8900AB}
   ]]>
  </style>
 </defs>
 <g id="Layer_x0020_1">
  <metadata id="CorelCorpID_0Corel-Layer"/>
  <path class="fil0" d="M533.27 263.86c-0,-6.47 -1.72,-39.7 0.62,-43.17 0.01,0 14.45,14.36 29.65,17.24 1.78,0.23 4.63,0.57 5.91,1.06 0.84,9.69 -22.72,25.86 -33.01,29.88 -4.24,1.65 -3.16,-1.43 -3.17,-5zm-48.09 -25.17c4.65,-3.44 22.4,-2.35 32.29,-15.71 0.81,-1.09 2.74,-1.51 3.29,-3.55 5.06,-0.1 2.1,46.33 2.09,50.69 -5.14,4.14 -28.03,-15.67 -30.58,-19.73 -2.46,-3.92 -7.12,-6.85 -7.08,-11.7zm116.98 9.38c-1.88,2.75 -10.77,8.03 -14.06,8.64 -1.79,3.1 -20.94,10 -25.46,9.95 0.09,-1.55 14.24,-17.84 16.34,-21.15 4.39,-6.92 1.85,-7.4 11.19,-9.91 20.67,-5.54 9.66,-16.16 25.15,-1.98 4.6,4.2 -4.05,8.2 -6.96,10.57 -1.59,1.26 -4.42,3.52 -6.19,3.88zm-147.1 1.3c-22.54,-14.86 -17.11,-10.66 -9.35,-20.27 5.13,-6.35 9.85,3.79 17.81,5.14 2.95,0.5 8.74,2.39 10.05,3.22 2.92,1.85 1.88,8.55 5.76,9.71 1.73,7.14 9.4,14.39 14.49,18.79 0.13,5.03 -37.65,-11.49 -38.78,-16.59zm133.25 -48.46c3.86,-0.47 20.55,-2.1 23.48,0.38 -0.07,8.08 -16.64,24.93 -24.62,24.46 -0.93,-2.23 0.49,-21.38 1.14,-24.84zm-129.84 0.64c13.91,0.02 8.37,2.08 9.57,15.23 0.31,3.35 1.97,10.9 -3.45,7.58 -6.26,-3.83 -24.24,-19.53 -19.81,-23.95 1.69,-1.69 10.98,1.13 13.69,1.14zm111.22 -22.71c8.21,11.35 13.74,50.61 1.7,49.5 -30.08,-2.76 -41.47,-27.64 -38.04,-55.87 13.09,-6.89 2.46,2.8 19.64,-12.22 2.96,-2.59 16.79,15.26 16.69,18.59zm-91.61 29.6c-0.03,-17.45 8.22,-34.76 21.07,-46.62 4.3,-3.96 8.6,8.4 20.58,10.36 7.08,1.16 4.28,40.91 -18.62,50.9 -15.21,6.63 -21.13,8.55 -22.17,-5.1 -0.34,-4.42 -0.85,-1.45 -0.86,-9.54zm143.57 16.21c-12.42,-13.46 -1.62,-6.66 1.53,-25.51 0.53,-3.17 19.68,-11.8 26.02,-19.3 0.79,-0.94 2.1,-2.41 3.26,-2.77 4.04,5.83 -21.68,46.98 -27.41,50.42l-3.39 -2.84zm-188.21 -24.27c-0.98,5.56 9.82,16.36 5.97,19.7 -10.54,9.15 -9.31,10.49 -19.41,-5.07 -0.97,-1.5 -8.14,-11.51 -8.21,-13.48 -6.01,-3.03 -6.1,-17.48 -10.07,-21.1 -0.09,-6.81 -1.75,-2.82 -0.53,-6.62 0.43,-0.03 21.2,17.25 26.27,19.53 3.21,1.44 6.14,2.06 5.98,7.04zm176.26 -29.35c-0.29,3.8 3.82,11.03 3.61,17.06 -6.5,2.72 -24.64,6.88 -28.19,-0.22 -12.7,-25.35 -5.54,-15.34 -25.23,-37.54 7.92,-7.87 37.09,-1.87 47.41,15.72 0.68,1.15 2.45,2.65 2.4,4.97zm-148.55 20.06c-22.65,0.12 -21.33,-3.42 -14.26,-20.7 6,-14.66 32.86,-29.79 47.89,-20.06 -0.79,3.39 -10.36,10.23 -12.51,13.36 -14.51,21.16 -7.77,27.32 -21.13,27.39zm-29.54 -7.71c-6.98,4.79 -41.61,-37.29 -28.87,-37.26 2.72,0.01 49.53,-1.25 48.68,1.28 -0.21,0.62 -14.09,14.02 -17.78,27.03 -0.31,1.44 -1.34,8.38 -2.03,8.95zm192.84 -0.23l0.27 0.08c-0.16,-0.12 -4.18,-21.51 -19.44,-34.32 -0.81,-0.63 -1.81,-1.87 -1.22,-2.45 1.54,-0.66 50.05,-0.59 52.49,0.08 0.94,8.55 -26.24,41.67 -32.1,36.61zm-101.22 -62.85c17.62,-6.23 32.91,17.9 21.96,33.02 -14.95,20.63 -46.45,1.9 -36.9,-20.54 3.01,-7.06 8.46,-10.19 14.94,-12.48zm-117.26 1.95c4.3,-5.65 4.03,-8.67 12.98,-15.92 2.77,-2.25 7.96,-7.88 11.69,-7.14 9.52,37 28.5,37.4 15.32,37.43l-45.99 -0.2c-1.19,-3.53 3.04,-13.13 6,-14.17zm204.47 14.03c-16,0.03 7.55,-4.61 13.48,-36.6 1.53,-8.22 37.89,30.34 32.14,35.77 -2.56,2.42 -40.39,0.83 -45.62,0.84zm-169.95 -41.79c5.52,-3.44 21.69,-4.62 29.97,-2.94 9.14,15.43 -1.42,9.95 21.22,35.36 2.18,2.45 10.42,7.98 -9.96,8.28 -20.91,0.31 -43.19,-18.24 -41.23,-40.7zm120.76 37.68c0.18,-0.31 14.36,-16.32 18.1,-21.88 8.39,-12.5 2.58,-18.9 15.9,-18.9 18.83,-0 23.29,3.03 13.16,21.09 -7.61,13.58 -12.67,15.11 -25.81,20.73 -4.11,1.76 -16.88,1.4 -21.34,-1.03zm-53.26 -15.45c-5.87,-0.08 -2.97,13.79 -18.28,-7.75 -10.36,-14.58 -12.17,-24.42 -12.22,-41.8 -0.01,-2.7 1.5,-5.68 2.09,-11.31l0.44 0.48c0.66,-8.58 49.95,3.42 40.3,50.07 -0.81,3.93 -8.38,10.75 -12.34,10.31zm50.85 2.28c-2.7,10.43 -11.95,-4.21 -20.43,-7.19 -1.89,-0.45 -4.28,-1.09 -5.89,-2.15 -1.36,-25.47 6,-49.89 33.36,-55.36 10.17,-2.03 11.56,1.07 12.73,10.08 2.01,15.38 -2.95,20.67 -3.6,33.49 -2.06,0.68 -2.33,2.88 -2.4,4.77 -5.86,3.62 -7.54,16.12 -13.78,16.35zm83.89 -21.51c-14.49,-13.38 -16.24,-4.03 -21.22,-19.3 -4.75,-14.57 -12.5,-10.5 -1.12,-22.51 0.83,-0.93 2.34,-2.46 3.46,-2.76 6.5,4.08 33.47,47.05 30.02,54.72 -2.76,-0.23 -9.03,-8.25 -11.13,-10.15zm-237.07 6.89c-0.08,2.11 -3.14,3.93 -4.42,4.26 0.49,-9.98 23.52,-56.98 31.3,-55.75 3.23,0.51 5.84,6.14 8.46,7.6 0.4,2.64 -6.64,15.06 -8.27,18.8 -4.05,9.32 0.28,6.53 -16.74,16.61 -2.88,1.71 -6.71,8.41 -10.33,8.47zm195.66 -37.83c2.89,-0.14 11.34,13.22 9.26,15.11l-21.41 -0.95c-0.9,-6.69 -0.59,-13.36 -1.3,-20.09 -0.74,-6.95 13.42,2.92 13.45,5.93zm-154.63 7.63c0.33,-2.06 6.43,-9.4 8.48,-9.97l0.13 -1.09c10.91,-5.95 14.78,-13.34 13.08,2.03 -2.54,22.87 4.45,13.65 -19.22,16.77 -10.9,1.44 -4.76,-6.43 -2.47,-7.75zm66.01 -57.41c1.08,-0.57 2.77,-1.96 3.91,-1.93 10.21,-11.84 6.2,27.08 6.16,36.57 -0.02,2.42 0.65,10.51 -0.83,11.92 -3.07,-0.69 -14.12,-15.95 -33.28,-18.85 -1.77,-0.27 -1.21,-0.24 -2.38,-0.88 -0.52,-7.32 20.72,-26.65 26.42,-26.82zm20.55 3.35c-0.04,-11.89 3.08,-8.19 18.83,1.5 3.43,2.11 19.25,17.68 17.51,21.73 -12.76,5.06 -19.96,0.89 -34.08,17.47 -4.71,5.53 -2.26,-37.59 -2.26,-40.7zm39.64 6.86c-2.52,-3.14 -10.28,-7.74 -10.17,-11.95 19.02,6.88 27.53,9.9 44.32,21.61 11.17,7.79 11.12,9.32 0.85,17.27 -3.72,2.88 -13,-4.78 -15.04,-5.78 -18.4,-9.03 -6.54,-0.46 -19.09,-19.31 -0.73,-0.97 -0.74,-0.39 -0.88,-1.83zm-114.95 3.94c7.63,-4.55 25.95,-15.36 35.08,-14.94 -0.01,0.29 -16.01,19.7 -17.88,24.05 -2.44,5.66 -12.01,5.75 -20.82,11.09 -5.99,3.63 -9.73,-0.15 -13.5,-5.86 -0.27,-0.63 -0.16,-0.54 -0.1,-1.3l17.23 -13.04zm-50.12 35.27c-0.72,4.34 -4.5,7.35 -6.38,11.83 -13.01,30.92 -14.25,43.05 -13.75,79.17 0.29,20.84 12.42,45.43 23.94,62.59 16.55,24.63 42.43,47.07 73,55.34 32.35,8.76 64.69,10.71 95.99,-2.99 39.47,-17.27 68.36,-45.36 82.61,-86.48 10.8,-31.15 7.56,-61.18 -1.66,-92.8 -8.68,-29.77 -38.7,-63.6 -66.44,-76.5 -38.07,-17.7 -64.42,-20.33 -105.96,-11.26 -1.33,0.29 -8.15,2.02 -8.65,3.45 -12.68,0.55 -50.06,26.83 -62.98,43.66 -2.85,3.71 -8.74,9.32 -9.73,13.99z"/>
  <g id="_2723746259440">
   <path class="fil0" d="M105.59 402.32c-0.57,-10.22 -0.07,-21.65 -0.07,-32 -0,-9.28 -0.95,-9.09 2.99,-9.18 35.86,-0.83 30.09,42.21 3.14,41.4l-6.07 -0.22zm-39.46 -46.43l0.02 1.9c2.48,0.55 10.35,2.42 11.58,4.15l0 83.45 -11.52 3.18 -0.08 9.23 50.65 -0.02 -0.02 -9.2 -11.2 -2.98 -0.04 -31.14 11.48 -0.26c2.61,4.3 19.72,43.1 21.97,43.61l34.81 -0.16 -0.02 -8.88c-7.3,-3.51 -10.02,-1.33 -12.91,-6.06l-21.75 -33.2c0.75,-0.87 6.17,-3.4 9.76,-6.06 2.74,-2.02 5.7,-4.93 7.76,-8.35 11.46,-18.99 0.96,-46.65 -41.36,-46.65l3.09 0c-17.41,0 -34.82,0 -52.23,0l0 7.45z"/>
   <path class="fil0" d="M822.03 361.5c14.96,-3.36 26.1,3.74 31.93,10.2 6.66,7.38 10.01,19.07 10.09,31.2 0.16,25.2 -12.5,44.67 -42.01,41.72l-0 -83.11zm-39.23 -13.05l0.02 9.25c2.82,0.59 9.42,2.52 11.6,3.51l0.01 79.39c0.05,4.1 2.15,4.72 -11.62,7.77l0 9.44c14.26,0 28.52,-0.08 42.78,-0.02 15.63,0.07 23.41,-0.59 36.04,-6.06 40.19,-17.4 45.62,-78.07 0.48,-98.1 -11.59,-5.14 -22.28,-5.8 -36.54,-5.42 -14.2,0.38 -28.53,0.23 -42.76,0.23z"/>
   <path class="fil0" d="M659.74 357.62c2.42,0.94 9.09,2.55 10.2,4.33 0.7,2.4 -1.19,56.82 0.67,68.27 3.32,20.42 19.15,29.66 44.16,29.43 24.14,-0.22 40.21,-9.73 43.63,-29.45 1.53,-8.79 0.72,-56.22 0.72,-68.79l10.69 -3.75 0.04 -9.15c-11.8,-0.41 -31.37,-0.06 -43.98,-0.06l0.03 9.35 14.46 4.17c-0.06,12.2 -0.06,24.24 -0.06,36.28 0,9.5 1.12,26.88 -1.8,34.93 -3.31,9.13 -13.43,14.2 -26.64,11.42 -11.68,-2.46 -14.13,-11.9 -14.13,-24.01 0,-18.08 -0.46,-41.62 0.05,-59.04l13.15 -3.89 -0.01 -9 -51.2 -0.2 0.01 9.17z"/>
   <path class="fil0" d="M905.48 355.9l0.02 1.85c14.46,3.5 11.59,2.57 11.59,13.51 0,8.22 0,16.44 0,24.66 0,15.79 0.84,33.51 -0.06,49.06l-11.49 3.62 -0.06 9.21c26.46,0 60.48,0.54 86.02,-0.05l-0.01 -30.55 -12.3 -0.04 -4.22 17.24 -30.26 0.01 0 -34.96 33.42 -0.05 -0.03 -12.84 -33.39 -0.02 0 -35.15 26.31 -0.07 4.09 16.96 12.52 0.03 0 -29.85 -82.15 0 0 7.45z"/>
   <path class="fil0" d="M181.76 355.9l0.02 1.85c2.45,0.59 7.77,2.12 10.05,3.03 2.25,0.9 1.59,1.78 1.55,4.41 -0.38,24.67 1.21,57.56 -0.07,79.79l-11.49 3.62 -0.06 9.21c26.46,0 60.48,0.54 86.02,-0.05l-0.01 -30.55 -12.3 -0.04 -4.22 17.24 -30.26 0.01 0 -34.96 33.42 -0.05 -0.03 -12.84 -33.39 -0.02 0 -35.15 26.31 -0.07 4.09 16.96 12.56 0.03 -0.03 -29.85 -82.15 0 0 7.45z"/>
   <path class="fil0" d="M553.68 382.12l11.59 0c1.46,-0.33 0.94,0.1 1.9,-4.54l3.5 -15.88 17.02 -0.06 0.12 83.43 -12.23 3.53 -0.08 9.2c8.48,0 47.14,0.3 52.42,-0.16l-0.02 -8.89 -12.21 -3.63 -0.09 -83.5 17.35 0c0.46,3.47 1.36,6.94 2.05,10.44l1.57 7.89c0.75,3.09 0.64,2.16 12.98,2.16l0 -33.67 -95.86 0 0 33.67z"/>
   <path class="fil0" d="M382.03 382.12l11.59 0c1.58,-0.75 0.44,0.96 1.36,-1.8l1.68 -8.18c0.68,-3.3 1.33,-7.2 2.36,-10.44l17.02 -0.06 0.12 83.43 -12.23 3.53 -0.08 9.2c8.48,0 47.14,0.3 52.42,-0.16l-0.02 -8.89 -12.21 -3.63 -0.09 -83.5 17.36 0 3.61 18.33c0.75,3.09 0.65,2.16 12.98,2.16l-0 -33.67 -95.86 0 0 33.67z"/>
   <path class="fil0" d="M375.28 449.17l-3.11 -10.29c-6.93,2.1 -11.02,3.87 -19.26,5.01 -23.51,3.26 -38.11,-5.98 -41.72,-29.38 -2.49,-16.11 -1.38,-42.73 16.87,-50.31 4.55,-1.89 16.62,-3.54 21.17,-0.8 1.39,1.88 5.03,15.91 5.63,19.05l12.74 -0.05 -0 -29.11c-18.15,-10.62 -47.89,-7.79 -63.87,2.44 -25.23,16.16 -29.85,57.87 -14.33,81.67 11.62,17.83 33.03,24.27 56.2,21.7 7.61,-0.85 16.48,-3.39 23,-6.66 2.13,-1.07 4.79,-2.69 6.67,-3.27z"/>
   <path class="fil0" d="M488.79 355.9l0.03 1.88c1.92,0.39 12.73,2.86 13.16,4.17l-0.04 83.29 -13.08 3.33 -0.07 9.25c12.8,0 43.38,0.46 54.17,-0.1l-0.02 -9.03 -13.13 -3.54 -0.05 -82.26c0,-1.87 1.08,-1.42 5.94,-2.96 2.52,-0.8 4.78,-1.49 7.22,-2.33l0.04 -9.01c-5.99,-0.49 -45,-0.14 -54.17,-0.13l0 7.45z"/>
  </g>
  <g id="_2723746212688">
   <path class="fil0" d="M689.61 520.84l3.09 0c5.38,0 8.71,2.69 9.34,7.56 0.75,5.75 -2.35,8.97 -8.03,8.97l-4.4 0 0 -16.52zm28.16 38.37c-1.05,-1 -9.14,-16.16 -9.78,-17.82 1.47,-1.33 2.64,-1.65 4.18,-3.1 8.81,-8.33 5.81,-24.1 -16.85,-24.1l-25.68 0.08 0 4.11c2.01,1.37 5.09,2.23 5.7,3.81 0.72,2.82 0.16,18.68 0.16,22.97 0,17.61 1.09,12.6 -5.86,17.16l-0 4.12c4.44,0.18 24.02,0.35 27.23,-0.12l0 -3.84c-4.27,-3.1 -7.25,-1.68 -7.26,-5.6l0.12 -12.86 3.85 0c4.34,6.1 9.85,22.49 15.71,22.49l14.72 -0.12 0 -4c-1.63,-1.05 -5.03,-2.03 -6.24,-3.17z"/>
   <path class="fil0" d="M390.4 520.84l4.83 0c9.69,0 13.29,9.12 13.93,18.44 0.68,9.77 -1.36,20.57 -11.75,20.57l-7.02 0 0 -39.01zm-14.22 37.87c-1.25,1.69 -4.04,2.46 -5.75,3.61l-0 4.12 25.25 0.07c36.52,0 38.84,-52.32 1.75,-52.32l-26.99 0.08 0 4.11c1.64,1.11 5.48,2.56 5.85,3.81l-0.1 36.52z"/>
   <path class="fil0" d="M510.23 539.23c8.65,-3.48 8.9,17.2 3.76,19.7 -2.07,1.01 -4.68,0.11 -5.82,-1.05 -1.43,-1.46 -0.98,-3.87 -0.98,-6.45 0,-2.52 0,-5.04 -0.02,-7.56 -0.03,-3.32 0.34,-3.55 3.06,-4.64zm-21.3 -7.25c-0.25,3.24 -0.71,3.95 1.84,5.34 2.1,1.15 3.36,1.5 3.43,4.06l-0.03 30.15c0,6.17 1.38,6.11 -5.46,9.45l0 4.36 25.98 0 -0.04 -4.31c-9.79,-3.09 -7.46,-3.32 -7.46,-14.02 4.26,-0.03 5.84,0.76 10.35,-0.5 5.33,-1.49 9.92,-5.52 11.8,-10.45 3.13,-8.16 1.97,-19.72 -5.34,-24.2 -7.41,-4.54 -13.78,0.39 -16.81,1.92 -0.04,-4.88 -3.49,-3.5 -7.76,-3.04 -3.27,0.35 -7.39,0.59 -10.5,1.24z"/>
   <path class="fil0" d="M25.58 528.25c0.09,0.09 0.18,0.21 0.23,0.28 1.38,1.89 7.1,16.42 7.4,17.52l-14.9 -0.12 7.27 -17.68zm-12.58 31.22c0.31,-2.26 1.72,-4.67 2.45,-6.79l20.69 0.05c0.73,2.23 2.28,4.26 2.25,6.65 -1.53,1.32 -3.6,1.9 -5.14,2.97l-0 4.06 26.29 0.08 0 -2.93c0,-2.76 -4.02,-2.52 -5.78,-4.7 -0.81,-1.01 -2.23,-4.93 -2.89,-6.44 -1.85,-4.29 -3.65,-8.5 -5.48,-12.74l-10.81 -25.51 -10.17 0.03c-1.39,4.1 -3.64,8.7 -5.41,12.8 -1.89,4.36 -3.62,8.54 -5.45,12.78 -1.86,4.3 -3.6,8.42 -5.48,12.74 -3.1,7.16 -1.61,6.1 -8.07,9.75l-0 4.16 18.33 0.06c0,-5.6 0.98,-3.55 -5.34,-7.02z"/>
   <path class="fil0" d="M191.98 535.53c3.38,3.65 4.78,2.39 5.26,4.67 0.31,1.49 0.04,7.22 0.04,9.14 0,13.38 0.66,8.13 -5.46,13.03l0 4.12 22.08 -0.05 -0.04 -4.06c-1.31,-0.74 -2.19,-1.7 -3.55,-2.38l0.05 -19.51c10.88,-4.29 8.82,-1.32 9.01,15.98 0.04,3.98 -0.71,4.4 -3.58,5.93l-0.02 4.1 21.54 0.01 -0.04 -4.31c-5.77,-1.94 -4.8,-4.39 -4.8,-10.76 0,-9.48 2.39,-20.92 -9.77,-21.3 -5.81,-0.18 -8.1,1.99 -12.39,3.43 -0.05,-4.71 -3.4,-3.3 -7.92,-2.8l-8.26 0.85c-2.28,0.33 -2.15,-0.39 -2.15,3.92z"/>
   <path class="fil0" d="M1012.29 535.53c1.01,1.09 -0.2,0.6 2.91,2.37 3.62,2.06 2.4,2.82 2.4,11.44 0,13.38 0.66,8.13 -5.46,13.03l0 4.12 22.08 -0.05 -0.04 -4.06c-1.31,-0.74 -2.19,-1.7 -3.55,-2.38l0.05 -19.51c8.6,-3.39 9,-2.45 9,6.76 -0,10.39 1.36,12.52 -3.57,15.15l-0.02 4.1 21.54 0.01 -0.04 -4.31c-5.77,-1.94 -4.8,-4.39 -4.8,-10.76 0,-3.64 0.41,-11.81 -0.43,-14.81 -1.11,-3.99 -4.3,-6.34 -9.34,-6.5 -5.81,-0.18 -8.1,1.99 -12.39,3.43 -0.05,-5.13 -4.57,-3.16 -13.38,-2.21 -5.55,0.59 -4.95,-0.43 -4.95,4.18z"/>
   <path class="fil0" d="M533.05 531.98c-0.34,4.12 -0.57,3.88 2.39,5.64 2.45,1.46 2.9,1.54 2.86,4.99 -0.05,4.76 -0.42,11.83 0.09,16.36 1.26,11.09 14.44,9.16 21.51,4.66 0.06,0.08 0.1,0.22 0.13,0.28 0.66,1.72 0.4,2.54 1.91,3.15 2.17,0.51 13.54,-1 16.53,-1.62 0.41,-5.76 -0.32,-4.03 -3.72,-6.49 -2.06,-1.49 -1.29,-4.8 -1.29,-9.2 0,-23.83 3.41,-20.42 -18.31,-17.86l0.1 4.32 5.1 3.31 -0.02 16.98c-1.82,0.76 -4.69,3.25 -7.43,1.7 -2.47,-1.23 -1.6,-6.21 -1.6,-10.96 0,-18.16 1.37,-17.51 -6.99,-16.59 -3.45,0.38 -7.93,0.63 -11.27,1.33z"/>
   <path class="fil0" d="M868.29 537.63c2.45,1.46 2.9,1.54 2.86,4.99 -0.05,4.76 -0.42,11.83 0.09,16.36 1.26,11.09 14.44,9.16 21.51,4.66 0.06,0.08 0.1,0.22 0.13,0.28 0.66,1.72 0.4,2.54 1.91,3.15 2.17,0.51 13.55,-1 16.53,-1.62 0.41,-5.76 -0.32,-4.03 -3.72,-6.49 -2.06,-1.49 -1.29,-4.8 -1.29,-9.2 0,-23.83 3.41,-20.42 -18.31,-17.86l0.1 4.32c1,0.67 1.82,1.06 2.7,1.61 0.95,0.59 1.42,1.1 2.4,1.7l-0.02 16.98c-1.82,0.76 -4.69,3.25 -7.43,1.7 -2.47,-1.23 -1.6,-6.21 -1.6,-10.96 0,-18.16 1.37,-17.51 -6.99,-16.59 -3.43,0.38 -7.96,0.64 -11.27,1.33 -0.34,4.12 -0.57,3.88 2.39,5.64z"/>
   <path class="fil0" d="M261 551.92c0,3.62 0.71,4.57 -1.75,6.07 -6.82,4.18 -11.89,-7.04 1.75,-6.07zm13.57 7.52c-3.24,-8.67 5.92,-26.73 -11.93,-29.1 -5.69,-0.76 -13.39,0.34 -18.05,2.32 -3.03,1.29 -4.15,2.27 -2.45,5.56 1.17,2.27 2.45,4.83 4.78,5.75 4.03,-6.31 14.39,-10.24 14.05,1.44 -5.45,1.02 -9.79,0.23 -14.78,2.57 -3.62,1.69 -6.96,5.06 -6.68,10.58 0.25,5.08 3.61,8.13 8.59,8.66 6.13,0.65 9.16,-1.71 13.04,-3.8 1.35,1.35 1.74,2.34 3.85,3.18 5.77,2.28 11.58,-0.85 15.42,-2.84 -0.22,-2.02 -0.55,-2.65 -1.47,-4.26l-4.36 -0.05z"/>
   <path class="fil0" d="M988.42 538.35c6.98,-3.18 9.43,18.56 3.6,20.76 -7.49,2.82 -9.99,-17.85 -3.6,-20.76zm20.09 14.34c6.1,-25.99 -31.88,-30.82 -36.96,-7.76 -5.64,25.61 31.57,30.7 36.96,7.76z"/>
   <path class="fil0" d="M817.63 538.35c6.98,-3.18 9.43,18.56 3.6,20.76 -7.49,2.82 -9.99,-17.84 -3.6,-20.76zm20.09 14.34c6.09,-25.96 -31.87,-30.85 -36.96,-7.76 -5.64,25.61 31.57,30.7 36.96,7.76z"/>
   <path class="fil0" d="M132.72 544.46c0.93,-9.04 9.68,-8.46 9.3,0.01l-9.3 -0.01zm20.61 6.14c2.45,-10.73 -1.37,-19.3 -11.93,-20.37 -10.98,-1.12 -18.73,4.83 -21.39,12.39 -5.3,15.06 6.82,27.91 22.93,24.05 5.4,-1.29 7.74,-3.49 10.72,-5.97 -0.15,-1.86 -1,-3.13 -1.56,-4.38 -4.19,0.66 -6.83,3.55 -12.76,2.18 -3.86,-0.89 -5.66,-3.69 -6.39,-7.9l20.38 0z"/>
   <path class="fil0" d="M626.74 544.46c0.93,-9.04 9.68,-8.46 9.3,0.01l-9.3 -0.01zm20.61 6.14c2.45,-10.73 -1.37,-19.3 -11.93,-20.37 -10.98,-1.12 -18.73,4.83 -21.39,12.39 -5.3,15.06 6.82,27.91 22.93,24.05 5.4,-1.29 7.74,-3.49 10.72,-5.97 -0.15,-1.86 -1,-3.13 -1.56,-4.38 -2.7,0.43 -16.76,8.05 -19.15,-5.73l20.38 0z"/>
   <path class="fil0" d="M327.53 544.46c0.93,-9.04 9.68,-8.46 9.3,0.01l-9.3 -0.01zm20.61 6.14c2.45,-10.73 -1.37,-19.3 -11.93,-20.37 -10.98,-1.12 -18.73,4.83 -21.39,12.39 -5.29,15.04 6.81,27.91 22.93,24.05 5.4,-1.29 7.74,-3.49 10.72,-5.97 -0.15,-1.86 -1,-3.13 -1.56,-4.38 -2.87,0.45 -16.6,8.05 -19.22,-5.73l20.46 0z"/>
   <path class="fil0" d="M747.43 544.47l-9.3 -0c0.93,-9.05 9.68,-8.47 9.3,0zm11.64 16.23c-0.15,-1.86 -1,-3.13 -1.56,-4.38 -2.7,0.43 -16.76,8.05 -19.15,-5.73l20.38 0c5.99,-26.2 -26.81,-25.71 -33.2,-8.29 -5.5,14.98 6.3,28.08 22.46,24.44 5.59,-1.26 7.99,-3.48 11.07,-6.05z"/>
   <path class="fil0" d="M784.71 558.13c-3.34,4.22 -12.1,0.57 -15.1,-4.99l-4 0c-1.41,3.05 -2,7.1 -2.11,10.92 5.62,2.69 10.25,3.63 17.86,3.19 18.42,-1.05 19.02,-15.29 7.95,-20.51 -2.68,-1.27 -4.89,-2.02 -7.75,-3.03 -2.81,-0.99 -5.95,-1.62 -6.18,-4.41 1.65,-2.13 4.7,-2.05 7.56,-0.68 1.61,0.77 4.36,3.8 5.25,5.33 4.4,0.01 4.02,0.73 4.9,-3.43 0.5,-2.36 1.09,-4.91 0.83,-7.39 -9.02,-4.61 -27.01,-4.91 -29.5,5.02 -4.01,15.95 19.31,13.79 20.28,19.98z"/>
   <path class="fil0" d="M475.02 558.13c-3.34,4.22 -12.1,0.57 -15.1,-4.99l-4 0c-1.41,3.05 -2,7.1 -2.11,10.92 9.72,4.64 28.21,5.36 32.2,-3.92 2.91,-6.77 -2.06,-11.36 -6.39,-13.4 -4.75,-2.24 -14.83,-4.46 -13.93,-7.44 1.67,-2.15 4.73,-2.02 7.56,-0.68 1.25,0.59 1.71,1.33 2.8,2.34 1.28,1.19 1.62,1.54 2.46,2.98 4.4,0.01 4.02,0.73 4.9,-3.43 0.5,-2.36 1.09,-4.91 0.83,-7.39 -9.02,-4.61 -27.01,-4.91 -29.5,5.02 -4.01,15.95 19.31,13.79 20.28,19.98z"/>
   <path class="fil0" d="M841.42 511.46c-0.29,3.6 -0.6,3.99 2.14,5.49 2.24,1.23 3.26,1.4 3.27,4.32l-0.03 31c0,9.55 0.3,5.64 -5.46,10.11l0 4.11 23.34 -0.11 -0.05 -3.92c-1.39,-1.08 -3.41,-2.13 -4.68,-2.98 -0.48,-5.15 -0.15,-35.22 -0.12,-43.63 0.01,-3.14 0.48,-5.93 -2.48,-6.17 -1.67,-0.13 -13.8,1.35 -15.93,1.77z"/>
   <path class="fil0" d="M60.85 511.46c-0.29,3.6 -0.6,3.99 2.14,5.49 2.24,1.23 3.26,1.4 3.27,4.32l-0.03 31c0,9.55 0.3,5.64 -5.46,10.11l0 4.11 23.34 -0.11 -0.05 -3.92c-1.39,-1.08 -3.41,-2.13 -4.68,-2.98 -0.48,-5.15 -0.15,-35.22 -0.12,-43.63 0.01,-3.09 0.47,-5.91 -2.42,-6.18 -1.43,-0.13 -14.02,1.39 -16,1.78z"/>
   <path class="fil0" d="M104.13 537.62c1.71,-0.85 8.51,-0.42 10.69,-0.42l0 -6.28 -10.69 0.01 0 -8.61c-6.92,-1.19 -6.51,0.65 -11.56,5.31 -6.75,6.22 -7.55,5.06 -6.78,9.75l5.32 0.12c-0,5.54 -0.02,11 -0.01,16.45 0.03,13.9 11.37,15.38 19.56,11.93 8.08,-3.41 6.5,-5.52 4.11,-8.49 -12.36,2.23 -10.56,3.8 -10.63,-19.77z"/>
   <path class="fil0" d="M931 537.62l1.47 -0.44c0.13,-0.01 1.13,0 1.33,0l7.89 0.02 0 -6.28 -10.69 0.01 0 -8.61c-3.04,-0.52 -5.52,-0.62 -7.22,1.1l-8.85 8.26c-2.25,1.75 -2.95,1.58 -2.27,5.7l5.32 0.12c-0,5.54 -0.02,11 -0.01,16.45 0.04,18.64 19.36,14.06 24.88,8.63 1.91,-1.88 0.03,-3.64 -1.22,-5.19 -12.36,2.23 -10.56,3.8 -10.63,-19.77z"/>
   <path class="fil0" d="M298.95 537.62c1.71,-0.85 8.51,-0.42 10.69,-0.42l0 -6.28 -10.69 0.01 0 -8.61c-8.45,-1.45 -6.6,1.98 -16.07,9.36 -2.25,1.75 -2.95,1.58 -2.27,5.7l5.32 0.12c-0,5.54 -0.02,11 -0.01,16.45 0.01,5.62 1.49,9.59 5.31,11.75 5.95,3.37 15.36,1.01 19.57,-3.13 1.91,-1.88 0.03,-3.64 -1.22,-5.19 -12.36,2.23 -10.56,3.8 -10.63,-19.77z"/>
   <path class="fil0" d="M598.16 537.62c1.71,-0.85 8.51,-0.42 10.69,-0.42l0 -6.28 -10.69 0.01 0 -8.61c-1.34,-0.23 -2.84,-0.27 -4.22,-0.21 -2.85,0.13 -3.52,2 -7.35,5.52 -6.75,6.22 -7.55,5.06 -6.78,9.75l5.32 0.12c-0,5.54 -0.02,11 -0.01,16.45 0.03,18.64 19.36,14.06 24.88,8.63 1.91,-1.88 0.03,-3.64 -1.22,-5.19 -12.36,2.23 -10.56,3.8 -10.63,-19.77z"/>
   <path class="fil0" d="M157.47 532.6c0,3.86 -0.38,3.33 2.39,4.97 4.73,2.79 2.89,4.6 2.91,15.96 0.02,8.13 -0.61,5.02 -5.46,8.85l0 4 25.98 0.13 -0.02 -4.07c-1.92,-1.17 -5.53,-2.32 -7.44,-3.27l-0.04 -17.78c3.32,-5.07 9.18,1.47 11.48,2.41 2.82,-3.93 3.41,-8.41 1.8,-13.69 -3.79,0.12 -10.51,1.6 -12.5,3.79 -2.76,-2.5 1.92,-4.32 -8.32,-3.19l-8.26 0.86c-2.03,0.23 -1.79,-0.17 -2.53,1.02z"/>
   <path class="fil0" d="M945.1 536.41c1.95,0.87 4.9,2.07 5.22,4.17 0.3,2 0.01,6.87 0.01,9.18 0,12.66 0.78,7.78 -5.46,12.62l0 4.11 23.34 -0.11 -0.05 -3.92c-1.39,-1.08 -3.41,-2.13 -4.68,-2.98 -0.65,-7.08 -0.19,-17.06 -0.11,-24.4 0.08,-7.02 -2.61,-4.66 -18.26,-3.17l-0.01 4.49z"/>
   <path class="fil0" d="M427.93 536.41c6.89,3.06 5.23,3.56 5.23,13.35 0,12.66 0.78,7.78 -5.46,12.62l0 4.11 23.33 -0.11 -0.05 -3.92c-1.39,-1.08 -3.41,-2.13 -4.68,-2.98 -3.03,-32.81 8.89,-30.18 -18.37,-27.57l-0.01 4.49z"/>
   <path class="fil0" d="M436.64 511.06c-9.79,2.33 -7.28,16.7 3.38,14.63 9.6,-1.86 7.28,-17.17 -3.38,-14.63z"/>
   <path class="fil0" d="M953.82 511.06c-9.79,2.33 -7.27,16.7 3.38,14.63 9.6,-1.86 7.28,-17.17 -3.38,-14.63z"/>
   <path class="fil0" d="M598.16 537.62l10.92 -0.04c0.28,-1.45 0.61,-5.38 -0.23,-6.66l0 6.28c-2.18,0 -8.98,-0.43 -10.69,0.42z"/>
   <path class="fil0" d="M104.13 537.62l10.92 -0.04c0.28,-1.45 0.61,-5.38 -0.23,-6.66l0 6.28c-2.18,0 -8.98,-0.43 -10.69,0.42z"/>
   <path class="fil0" d="M931 537.62l10.92 -0.04c0.27,-1.4 0.2,-2.03 0.21,-3.31l-0.04 -2.49c-0.16,-0.8 -0.14,-0.47 -0.4,-0.87l0 6.28 -7.89 -0.02c-0.2,-0 -1.19,-0.02 -1.33,-0l-1.47 0.44z"/>
   <path class="fil0" d="M298.95 537.62l10.92 -0.04 -0.23 -6.66 0 6.28c-2.18,0 -8.98,-0.43 -10.69,0.42z"/>
  </g>
 </g>
</svg>
