<?xml version="1.0" encoding="UTF-8"?>
<!DOCTYPE svg PUBLIC "-//W3C//DTD SVG 1.1//EN" "http://www.w3.org/Graphics/SVG/1.1/DTD/svg11.dtd">
<!-- Creator: CorelDRAW -->
<svg xmlns="http://www.w3.org/2000/svg" xml:space="preserve" width="3.47376in" height="0.683614in" version="1.1" style="shape-rendering:geometricPrecision; text-rendering:geometricPrecision; image-rendering:optimizeQuality; fill-rule:evenodd; clip-rule:evenodd"
viewBox="0 0 1568.63 308.7"
 xmlns:xlink="http://www.w3.org/1999/xlink"
 xmlns:xodm="http://www.corel.com/coreldraw/odm/2003">
 <defs>
  <style type="text/css">
   <![CDATA[
    .fil1 {fill:#8900AB}
    .fil0 {fill:#8900AB;fill-rule:nonzero}
   ]]>
  </style>
 </defs>
 <g id="Layer_x0020_1">
  <metadata id="CorelCorpID_0Corel-Layer"/>
  <path class="fil0" d="M592.61 185.31l-37.13 -0.05c-7.66,23.26 -29.26,37.46 -66.34,37.41 -46.21,-0.06 -76.94,-21.55 -76.88,-62.51 0.06,-40.68 30.84,-62.37 77.05,-62.31 37.17,0.05 58.78,14.55 66.34,37.92l37.13 0.05c-4.71,-44.25 -42.18,-70.38 -103.42,-70.46 -68.26,-0.09 -115.4,32.29 -115.48,94.74 -0.08,62.45 46.97,94.12 115.23,94.21 61.1,0.08 98.54,-24.96 103.51,-69.01l0 0zm248.6 0.34l-37.13 -0.05c-7.66,23.26 -29.26,37.46 -66.34,37.41 -46.21,-0.06 -76.94,-21.55 -76.88,-62.51 0.06,-40.68 30.84,-62.37 77.05,-62.3 37.17,0.05 58.78,14.55 66.34,37.92l37.13 0.05c-4.71,-44.25 -42.18,-70.38 -103.42,-70.46 -68.26,-0.09 -115.4,32.29 -115.48,94.74 -0.08,62.45 46.97,94.12 115.23,94.21 61.1,0.08 98.54,-24.96 103.51,-69.01l0 0zm248.6 0.34l-37.13 -0.05c-7.66,23.26 -29.26,37.46 -66.34,37.41 -46.21,-0.06 -76.94,-21.55 -76.88,-62.51 0.06,-40.68 30.84,-62.37 77.05,-62.3 37.17,0.05 58.78,14.55 66.34,37.92l37.13 0.05c-4.71,-44.25 -42.18,-70.38 -103.42,-70.46 -68.26,-0.09 -115.4,32.29 -115.48,94.74 -0.08,62.45 46.97,94.12 115.23,94.21 61.1,0.08 98.54,-24.96 103.51,-69.01l0 0zm264.77 -115.84l-95.71 149.31 -95.02 -149.38 -37.36 -0.05 -0.25 181.56 37.36 0.05 0.15 -115.17 74.29 115.27 41.81 0.06 74.64 -115.49 -0.15 115.59 37.36 0.05 0.25 -181.56 -37.36 -0.24zm85.68 0.12l-0.25 181.75 37.36 0.05 0.25 -181.75 -37.36 -0.05zm91.01 0.12l-0.25 181.75 37.36 0.05 0.25 -181.75 -37.36 -0.05z"/>
  <g id="_2526926228032">
   <path class="fil1" d="M193.49 257.56l72.41 -62.51c7.05,-6.08 17.78,-5.29 23.86,1.75l0 0c6.08,7.05 5.3,17.78 -1.75,23.86l-72.41 62.52c-7.04,6.08 -17.78,5.29 -23.86,-1.75l0 0c-6.08,-7.05 -5.29,-17.78 1.75,-23.87z"/>
   <g>
    <path class="fil1" d="M99.67 253.45l72.41 -62.52c7.04,-6.08 17.78,-5.29 23.86,1.75l0 0c6.08,7.04 5.3,17.78 -1.75,23.86l-72.41 62.52c-7.04,6.08 -17.78,5.29 -23.86,-1.75l0 0c-6.08,-7.05 -5.29,-17.78 1.75,-23.86z"/>
    <path class="fil1" d="M203.11 164.14l72.41 -62.51c7.05,-6.08 17.78,-5.29 23.86,1.75l0 0c6.08,7.05 5.3,17.78 -1.75,23.86l-72.41 62.51c-7.04,6.08 -17.78,5.3 -23.86,-1.75l0 0c-6.08,-7.05 -5.29,-17.78 1.75,-23.87z"/>
   </g>
   <g>
    <path class="fil1" d="M5.84 249.34l72.41 -62.52c7.05,-6.08 17.78,-5.29 23.86,1.75l0 0c6.08,7.04 5.3,17.78 -1.75,23.86l-72.41 62.52c-7.05,6.08 -17.78,5.29 -23.86,-1.75l0 0c-6.08,-7.05 -5.29,-17.78 1.75,-23.86z"/>
    <path class="fil1" d="M109.28 160.03l72.41 -62.52c7.05,-6.08 17.78,-5.29 23.86,1.75l0 0c6.08,7.04 5.29,17.78 -1.75,23.86l-72.41 62.51c-7.05,6.08 -17.78,5.3 -23.86,-1.75l0 0c-6.08,-7.04 -5.3,-17.78 1.75,-23.86z"/>
    <path class="fil1" d="M212.72 70.72l72.41 -62.51c7.05,-6.08 17.78,-5.29 23.86,1.75l0 0c6.08,7.04 5.29,17.78 -1.75,23.86l-72.41 62.52c-7.05,6.08 -17.78,5.29 -23.86,-1.75l0 0c-6.08,-7.05 -5.3,-17.78 1.75,-23.87z"/>
   </g>
   <g>
    <path class="fil1" d="M15.46 155.92l72.41 -62.51c7.05,-6.08 17.78,-5.29 23.86,1.75l0 0c6.08,7.05 5.3,17.78 -1.75,23.86l-72.41 62.52c-7.05,6.08 -17.78,5.29 -23.86,-1.75l0 0c-6.08,-7.05 -5.29,-17.78 1.75,-23.87z"/>
    <path class="fil1" d="M118.9 66.61l72.41 -62.52c7.05,-6.08 17.78,-5.29 23.86,1.75l0 0c6.08,7.04 5.29,17.78 -1.75,23.86l-72.41 62.52c-7.05,6.08 -17.78,5.29 -23.86,-1.75l0 0c-6.08,-7.05 -5.3,-17.78 1.75,-23.86z"/>
   </g>
   <path class="fil1" d="M61.39 31.37c9.72,-8.39 24.41,-7.32 32.81,2.41 8.4,9.72 7.32,24.41 -2.41,32.81 -9.72,8.39 -24.41,7.32 -32.81,-2.41 -8.4,-9.72 -7.32,-24.41 2.41,-32.81z"/>
   <path class="fil1" d="M265.54 267.83c9.72,-8.39 24.41,-7.32 32.81,2.41 8.39,9.72 7.32,24.41 -2.41,32.81 -9.72,8.39 -24.41,7.32 -32.81,-2.41 -8.39,-9.72 -7.32,-24.41 2.41,-32.81z"/>
  </g>
 </g>
</svg>
