<?xml version="1.0" encoding="UTF-8"?>
<!DOCTYPE svg PUBLIC "-//W3C//DTD SVG 1.1//EN" "http://www.w3.org/Graphics/SVG/1.1/DTD/svg11.dtd">
<!-- Creator: CorelDRAW -->
<svg xmlns="http://www.w3.org/2000/svg" xml:space="preserve" width="6.90098in" height="0.683614in" version="1.1" style="shape-rendering:geometricPrecision; text-rendering:geometricPrecision; image-rendering:optimizeQuality; fill-rule:evenodd; clip-rule:evenodd"
viewBox="0 0 6190.72 613.26"
 xmlns:xlink="http://www.w3.org/1999/xlink"
 xmlns:xodm="http://www.corel.com/coreldraw/odm/2003">
 <defs>
  <style type="text/css">
   <![CDATA[
    .fil2 {fill:#1E1B1D}
    .fil1 {fill:#8900AB}
    .fil0 {fill:#8900AB;fill-rule:nonzero}
   ]]>
  </style>
 </defs>
 <g id="Layer_x0020_1">
  <metadata id="CorelCorpID_0Corel-Layer"/>
  <path class="fil0" d="M1177.27 368.13l-73.75 -0.1c-15.22,46.21 -58.14,74.42 -131.8,74.32 -91.8,-0.12 -152.85,-42.8 -152.74,-124.19 0.11,-80.82 61.27,-123.9 153.07,-123.78 73.85,0.1 116.78,28.9 131.79,75.33l73.75 0.1c-9.37,-87.91 -83.8,-139.81 -205.46,-139.98 -135.6,-0.18 -229.25,64.14 -229.42,188.22 -0.17,124.07 93.31,186.98 228.92,187.16 121.38,0.16 195.76,-49.59 205.64,-137.09l0 0zm493.87 0.67l-73.75 -0.1c-15.22,46.21 -58.14,74.42 -131.8,74.32 -91.8,-0.12 -152.85,-42.81 -152.74,-124.19 0.11,-80.82 61.27,-123.9 153.07,-123.77 73.85,0.1 116.78,28.9 131.79,75.33l73.75 0.1c-9.37,-87.91 -83.8,-139.81 -205.46,-139.98 -135.6,-0.18 -229.25,64.14 -229.42,188.22 -0.17,124.07 93.31,186.98 228.92,187.16 121.38,0.16 195.76,-49.59 205.64,-137.09l0 0zm493.87 0.67l-73.75 -0.1c-15.22,46.2 -58.14,74.42 -131.8,74.32 -91.8,-0.12 -152.85,-42.81 -152.74,-124.19 0.11,-80.82 61.27,-123.9 153.07,-123.77 73.85,0.1 116.78,28.9 131.79,75.33l73.75 0.1c-9.37,-87.91 -83.8,-139.82 -205.46,-139.98 -135.6,-0.18 -229.25,64.14 -229.42,188.22 -0.17,124.07 93.31,186.98 228.92,187.16 121.38,0.16 195.76,-49.59 205.64,-137.09l0 0zm525.99 -230.14l-190.14 296.62 -188.77 -296.76 -74.22 -0.1 -0.49 360.69 74.22 0.1 0.31 -228.8 147.58 229 83.05 0.11 148.28 -229.43 -0.31 229.63 74.22 0.1 0.49 -360.69 -74.22 -0.47zm170.21 0.23l-0.49 361.06 74.22 0.1 0.49 -361.06 -74.22 -0.1zm180.81 0.24l-0.49 361.06 74.22 0.1 0.49 -361.06 -74.22 -0.1z"/>
  <g id="_2562198743680">
   <path class="fil1" d="M384.38 511.67l143.85 -124.19c14,-12.08 35.33,-10.52 47.41,3.48l0 0c12.08,14 10.52,35.33 -3.48,47.41l-143.85 124.2c-13.99,12.08 -35.33,10.52 -47.41,-3.48l0 0c-12.08,-14 -10.52,-35.33 3.48,-47.41z"/>
   <g>
    <path class="fil1" d="M198 503.5l143.85 -124.2c13.99,-12.08 35.32,-10.52 47.4,3.48l0 0c12.08,13.99 10.52,35.32 -3.48,47.4l-143.85 124.2c-13.99,12.08 -35.33,10.52 -47.41,-3.48l0 0c-12.08,-14 -10.52,-35.33 3.48,-47.41z"/>
    <path class="fil1" d="M403.49 326.08l143.85 -124.19c14,-12.08 35.33,-10.52 47.41,3.48l0 0c12.08,14 10.52,35.33 -3.48,47.41l-143.85 124.19c-13.99,12.09 -35.33,10.52 -47.41,-3.47l0 0c-12.08,-14 -10.52,-35.33 3.48,-47.41z"/>
   </g>
   <g>
    <path class="fil1" d="M11.61 495.34l143.85 -124.2c14,-12.08 35.33,-10.52 47.41,3.48l0 0c12.08,13.99 10.52,35.32 -3.48,47.4l-143.85 124.2c-14,12.08 -35.33,10.52 -47.41,-3.48l0 0c-12.08,-14 -10.52,-35.33 3.48,-47.41z"/>
    <path class="fil1" d="M217.1 317.92l143.85 -124.2c14,-12.08 35.33,-10.52 47.41,3.48l0 0c12.08,13.99 10.52,35.32 -3.48,47.41l-143.85 124.19c-14,12.08 -35.33,10.52 -47.41,-3.48l0 0c-12.08,-13.99 -10.52,-35.33 3.48,-47.41z"/>
    <path class="fil1" d="M422.6 140.5l143.85 -124.19c14,-12.08 35.33,-10.52 47.41,3.48l0 0c12.08,13.99 10.52,35.32 -3.48,47.4l-143.85 124.2c-14,12.08 -35.33,10.52 -47.41,-3.48l0 0c-12.09,-14 -10.52,-35.33 3.48,-47.41z"/>
   </g>
   <g>
    <path class="fil1" d="M30.72 309.75l143.85 -124.19c14,-12.08 35.33,-10.52 47.41,3.48l0 0c12.08,14 10.52,35.33 -3.48,47.41l-143.85 124.2c-14,12.08 -35.33,10.52 -47.41,-3.48l0 0c-12.08,-14 -10.52,-35.33 3.48,-47.41z"/>
    <path class="fil1" d="M236.21 132.33l143.85 -124.2c14,-12.08 35.33,-10.52 47.41,3.48l0 0c12.08,13.99 10.52,35.32 -3.48,47.4l-143.85 124.2c-14,12.08 -35.33,10.52 -47.41,-3.48l0 0c-12.08,-14 -10.52,-35.33 3.48,-47.41z"/>
   </g>
   <path class="fil1" d="M121.96 62.32c19.32,-16.68 48.5,-14.54 65.17,4.78 16.68,19.32 14.54,48.5 -4.78,65.18 -19.32,16.68 -48.5,14.54 -65.17,-4.78 -16.68,-19.32 -14.54,-48.5 4.78,-65.18z"/>
   <path class="fil1" d="M527.53 532.07c19.32,-16.68 48.5,-14.54 65.18,4.78 16.68,19.32 14.54,48.5 -4.78,65.18 -19.32,16.68 -48.5,14.54 -65.18,-4.78 -16.68,-19.32 -14.54,-48.5 4.78,-65.18z"/>
  </g>
  <path class="fil2" d="M3266.09 141.54l81.64 0.11 -0.02 14.66 -32.61 -0.04 -0.09 63.41 -17.08 -0.02 0.08 -63.41 -32.61 -0.04 0.02 -14.66 0.64 0zm167.85 31.91l0.04 -31.7 17.08 0.02 -0.11 78.1 -17.08 -0.02 0.04 -31.93 -55.1 -0.07 -0.04 31.93 -17.08 -0.02 0.11 -78.1 17.08 0.02 -0.04 31.69 55.1 0.08zm114.93 7.02c-2.72,2.48 -6.23,4.13 -10.23,5.18 4.15,0.63 7.37,1.71 9.72,3.55 3.09,2.43 4.6,6.14 4.59,11.8l-0.02 19 -17.03 -0.02 -0.04 -17.88c-0,-4.12 -1.59,-6.73 -4.61,-8.3 -3.15,-1.64 -7.87,-2.21 -13.99,-2.22l-28.4 -0.04 -0.04 28.37 -17.08 -0.02 0.11 -78.1 52.76 0.07c9.32,0.01 17.02,1.97 22.3,6.13 4.96,3.92 7.77,9.77 7.76,17.76 -0.01,6.7 -2.19,11.42 -5.79,14.71zm-59.96 -23.71l-0.03 21.03 35.68 0.05c3.9,0 7.2,-1.08 9.49,-3.06 2.21,-1.91 3.5,-4.67 3.54,-8.11l-0 -0.11c0.01,-3.21 -1.27,-5.62 -3.47,-7.23 -2.25,-1.65 -5.48,-2.48 -9.31,-2.52l-35.89 -0.05zm101.81 29.91l-0.02 18.91 59.28 0.08 -0.02 14.46 -76.35 -0.1 0.11 -78.1 76.2 0.11 -0.02 14.46 -59.12 -0.08 -0.02 19.15 48.37 0.06 -0.01 11.1 -48.38 -0.06zm95.09 0.13l-0.02 18.91 59.27 0.08 -0.02 14.47 -76.35 -0.11 0.11 -78.09 76.2 0.1 -0.02 14.46 -59.12 -0.08 -0.03 19.15 48.38 0.06 -0.01 11.1 -48.38 -0.07zm181.19 4.64l16.41 0.02 -0.08 0.71c-1.08,9.51 -5.66,16.97 -13.28,22.05 -7.55,5.04 -18.08,7.71 -31.11,7.69 -14.98,-0.02 -27.59,-3.62 -36.31,-10.75 -8.27,-6.76 -13.04,-16.68 -13.03,-29.71 0.02,-13.05 4.84,-23.06 13.16,-29.89 8.74,-7.17 21.34,-10.81 36.29,-10.8 13.02,0.02 23.55,2.81 31.09,7.95 7.65,5.21 12.24,12.83 13.26,22.41l0.07 0.71 -16.87 -0.02 -0.14 -0.45c-1.59,-4.92 -4.7,-8.88 -9.41,-11.57 -4.5,-2.57 -10.49,-4 -18.02,-4.01 -9.81,-0.01 -17.95,2.32 -23.54,6.84 -5.33,4.31 -8.37,10.64 -8.38,18.85 -0.01,8.25 3,14.58 8.3,18.89 5.58,4.53 13.71,6.87 23.55,6.88 7.52,0.01 13.5,-1.38 18.01,-3.92 4.69,-2.65 7.81,-6.56 9.42,-11.45l0.14 -0.45 0.47 0zm49.12 -38.66l-5.16 15.11 -9.03 -0.01 -5.08 -15.13 -0.04 -0.2 0.01 -10.89 19.33 0.02 -0.01 10.9 -0.04 0.2zm12 42.44c0,-0.43 0.02,-0.87 0.07,-1.3l0.06 -0.58 17.1 0.02 0.06 0.57c0.43,3.95 3.01,7.31 6.99,9.71 4.11,2.48 9.72,3.95 16.02,3.99l0.34 0c5.62,0 9.79,-0.96 12.55,-2.71 2.66,-1.68 3.99,-4.1 4.02,-7.08l-0 -0.07c0.01,-3.27 -1.88,-5.33 -5.63,-6.84 -3.96,-1.59 -9.95,-2.59 -17.92,-3.71 -9.08,-1.49 -17.19,-3.49 -23.06,-6.95 -5.98,-3.52 -9.63,-8.53 -9.62,-15.99 0.01,-7.2 3.22,-13.18 9.45,-17.29 5.89,-3.88 14.49,-6.09 25.65,-6.08l0.87 0.01c10.86,0.15 19.34,2.75 25.11,7.35 5.82,4.63 8.88,11.27 8.87,19.44l-0.01 1.03 -16.68 -0.02 -0.04 -0.61c-0.23,-4.2 -2.07,-7.25 -5.07,-9.29 -3.34,-2.27 -8.14,-3.32 -13.76,-3.33 -5.4,-0.01 -9.93,0.73 -12.99,2.41 -2.66,1.46 -4.2,3.67 -4.2,6.76 -0,3.54 1.82,5.63 5.65,7.19 4.05,1.65 10.31,2.73 18.93,4.22 8.71,1.34 16.47,3.07 22.08,6.35 5.73,3.34 9.21,8.26 9.2,15.92 -0.01,7.65 -2.85,13.76 -8.83,17.9 -5.62,3.88 -14,6 -25.4,5.99 -2.3,-0 -4.5,-0.12 -6.61,-0.35 -11.4,-1.21 -19.68,-5.46 -25.12,-10.58 -5.48,-5.17 -8.08,-11.26 -8.08,-16.07zm175.71 10.04l40.1 -62.56c5.59,0.06 11.19,0.08 16.78,0.11l-0.11 78.01 -17.08 -0.02 0.06 -47.31 -30.55 47.27 -18.37 -0.02 -30.4 -47.17 -0.06 47.14 -17.08 -0.02 0.11 -78.01 16.78 0.02 39.81 62.58zm94.69 -17.76l-0.03 18.92 59.28 0.08 -0.02 14.47 -76.35 -0.11 0.11 -78.09 76.19 0.1 -0.02 14.46 -59.12 -0.08 -0.02 19.15 48.38 0.07 -0.02 11.1 -48.37 -0.07zm71.87 -44.6l81.64 0.11 -0.02 14.66 -32.61 -0.04 -0.09 63.41 -17.08 -0.02 0.08 -63.41 -32.61 -0.04 0.02 -14.66 0.64 0zm126.35 77.6l0.11 -77.45 17.08 0.02 -0.11 78.09 -17.08 -0.02 0 -0.64zm113.04 -22.23l0.07 -55.06 17.08 0.02 -0.11 78.1 -16.43 -0.02 -0.45 -0.18 -55.93 -54.69 -0.07 54.8 -17.08 -0.02 0.11 -78.09 16.43 0.02 0.45 0.19 55.93 54.95zm31.74 -55l81.64 0.11 -0.02 14.66 -32.61 -0.04 -0.09 63.41 -17.08 -0.02 0.08 -63.41 -32.61 -0.04 0.02 -14.66 0.64 0zm112.73 44.85l-0.02 18.91 59.27 0.08 -0.02 14.46 -76.35 -0.1 0.11 -78.1 76.19 0.1 -0.02 14.47 -59.12 -0.08 -0.02 19.15 48.38 0.07 -0.01 11.1 -48.38 -0.06zm155.09 -5.94c-2.72,2.48 -6.23,4.13 -10.23,5.18 4.15,0.63 7.37,1.71 9.72,3.55 3.09,2.44 4.6,6.14 4.59,11.8l-0.02 19 -17.03 -0.02 -0.04 -17.88c-0,-4.11 -1.59,-6.73 -4.61,-8.3 -3.15,-1.64 -7.87,-2.21 -13.99,-2.22l-28.4 -0.04 -0.04 28.37 -17.08 -0.02 0.11 -78.09 52.76 0.07c9.32,0.01 17.02,1.97 22.3,6.14 4.96,3.92 7.77,9.77 7.76,17.75 -0.01,6.7 -2.19,11.42 -5.79,14.71zm-59.96 -23.71l-0.03 21.03 35.68 0.05c3.9,0.01 7.2,-1.08 9.49,-3.06 2.21,-1.91 3.5,-4.67 3.54,-8.11l-0 -0.11c0.01,-3.21 -1.27,-5.62 -3.47,-7.23 -2.25,-1.65 -5.48,-2.48 -9.31,-2.52l-35.89 -0.05zm157.61 40.34l0.07 -55.06 17.08 0.02 -0.11 78.1 -16.43 -0.02 -0.45 -0.18 -55.94 -54.69 -0.07 54.8 -17.08 -0.02 0.11 -78.09 16.43 0.02 0.45 0.19 55.93 54.95zm120.99 23.19l-17.64 -0.02 -7.93 -17.46 -38.63 -0.05 -7.96 17.44 -18.48 -0.02c12.27,-25.99 24.56,-51.97 36.78,-77.99l17.99 0.02c12.31,26.02 24.61,52.05 36.89,78.08l-1.01 -0zm-44.87 -59.97l-13.39 29.4 26.75 0.04 -13.36 -29.44zm43.35 -18.1l81.64 0.11 -0.02 14.66 -32.61 -0.05 -0.08 63.41 -17.08 -0.02 0.08 -63.41 -32.61 -0.05 0.02 -14.66 0.64 0zm97.74 77.56l0.11 -77.45 17.08 0.02 -0.11 78.1 -17.08 -0.02 0 -0.64zm122.62 -8.33c-8.42,6.9 -20.68,10.65 -36.15,10.63 -15.47,-0.02 -27.72,-3.81 -36.12,-10.73 -8.49,-7 -13.04,-17.18 -13.02,-29.9 0.02,-12.72 4.6,-22.9 13.11,-29.89 8.42,-6.91 20.68,-10.67 36.14,-10.65 15.47,0.02 27.71,3.81 36.11,10.75 8.49,7.01 13.04,17.2 13.03,29.93 -0.01,12.73 -4.59,22.9 -13.1,29.87zm-59.48 -11.37c5.83,4.73 14.18,7.05 23.35,7.06 9.16,0.01 17.39,-2.26 23.13,-6.95 5.15,-4.21 8.3,-10.39 8.31,-18.63 0.01,-8.13 -3.14,-14.28 -8.29,-18.48 -5.73,-4.67 -13.94,-6.99 -23.08,-7 -9.16,-0.01 -17.5,2.29 -23.34,6.98 -5.22,4.19 -8.45,10.31 -8.46,18.41 -0.01,8.21 3.19,14.39 8.38,18.61zm163.39 -2.38l0.07 -55.07 17.08 0.02 -0.1 78.09 -16.43 -0.02 -0.45 -0.18 -55.93 -54.69 -0.07 54.79 -17.08 -0.02 0.11 -78.1 16.43 0.02 0.45 0.18 55.93 54.96zm120.99 23.19l-17.64 -0.02 -7.93 -17.46 -38.63 -0.05 -7.96 17.44 -18.48 -0.03c12.27,-25.99 24.56,-51.97 36.78,-77.98l17.99 0.02c12.31,26.02 24.61,52.05 36.89,78.08l-1.02 -0zm-44.87 -59.97l-13.39 29.4 26.75 0.04 -13.36 -29.44zm76.36 -17.48l-0.08 63.03 50.99 0.07 -0.02 14.47 -58.45 -0.08 0 -0.06 -9.61 -0.01 0.1 -78.07 17.08 0.02 -0 0.64zm-2229.05 214.05l0.11 -77.45 17.08 0.02 -0.11 78.1 -17.08 -0.02 0 -0.64zm113.04 -22.23l0.07 -55.07 17.08 0.02 -0.11 78.09 -16.43 -0.02 -0.45 -0.18 -55.93 -54.69 -0.07 54.79 -17.08 -0.02 0.11 -78.1 16.43 0.02 0.45 0.19 55.93 54.96zm33.62 -2.21c0,-0.43 0.02,-0.87 0.07,-1.3l0.06 -0.58 17.1 0.02 0.06 0.57c0.43,3.95 3.01,7.31 6.98,9.71 4.11,2.48 9.72,3.95 16.03,3.99l0.34 0c5.62,0.01 9.79,-0.96 12.54,-2.7 2.66,-1.68 3.99,-4.1 4.02,-7.08l-0 -0.07c0,-3.27 -1.88,-5.33 -5.63,-6.84 -3.96,-1.59 -9.95,-2.59 -17.92,-3.72 -9.08,-1.49 -17.19,-3.49 -23.06,-6.95 -5.98,-3.52 -9.63,-8.54 -9.62,-15.99 0.01,-7.2 3.22,-13.18 9.45,-17.29 5.89,-3.88 14.49,-6.09 25.65,-6.08l0.87 0.01c10.86,0.15 19.34,2.75 25.11,7.35 5.81,4.63 8.88,11.27 8.87,19.44l-0.01 1.03 -16.68 -0.02 -0.04 -0.61c-0.23,-4.2 -2.07,-7.25 -5.07,-9.29 -3.34,-2.27 -8.14,-3.32 -13.76,-3.33 -5.4,-0.01 -9.93,0.73 -12.99,2.41 -2.66,1.46 -4.2,3.67 -4.2,6.76 -0,3.53 1.81,5.63 5.65,7.19 4.05,1.65 10.31,2.73 18.93,4.22 8.71,1.34 16.47,3.07 22.08,6.35 5.73,3.34 9.21,8.26 9.2,15.92 -0.01,7.65 -2.85,13.76 -8.83,17.9 -5.61,3.88 -13.99,6 -25.4,5.99 -2.3,-0 -4.5,-0.12 -6.61,-0.35 -11.4,-1.21 -19.68,-5.46 -25.12,-10.58 -5.48,-5.17 -8.08,-11.26 -8.08,-16.07zm84.31 -52.67l81.64 0.11 -0.02 14.66 -32.61 -0.04 -0.08 63.41 -17.08 -0.02 0.08 -63.41 -32.61 -0.04 0.02 -14.66 0.64 0zm97.74 77.56l0.1 -77.45 17.08 0.02 -0.11 78.1 -17.08 -0.02 0 -0.64zm34.03 -77.39l81.64 0.11 -0.02 14.66 -32.61 -0.05 -0.08 63.41 -17.08 -0.02 0.08 -63.41 -32.61 -0.05 0.02 -14.66 0.64 0zm166.16 43.7l0.06 -43.48 17.08 0.02 -0.06 45.16c-0.02,11.96 -4.29,20.2 -11.22,25.63 -8.09,6.35 -19.79,8.79 -32.49,8.77 -13.09,-0.02 -24.75,-2.46 -32.76,-8.74 -6.95,-5.44 -11.14,-13.74 -11.13,-25.78l0.06 -45.16 17.08 0.02 -0.06 43.48c-0.01,8.72 2.77,13.99 7.47,17.06 4.75,3.12 11.52,4.04 19.36,4.05 7.61,0.01 14.31,-0.9 19.06,-4 4.7,-3.06 7.54,-8.32 7.55,-17.04zm31.73 -43.43l81.64 0.11 -0.02 14.66 -32.61 -0.05 -0.08 63.41 -17.08 -0.02 0.08 -63.41 -32.61 -0.05 0.02 -14.66 0.64 0zm112.72 44.85l-0.02 18.92 59.28 0.08 -0.02 14.47 -76.35 -0.11 0.11 -78.09 76.2 0.1 -0.02 14.46 -59.12 -0.08 -0.02 19.15 48.37 0.07 -0.01 11.1 -48.38 -0.07zm189.08 24.5c-8.42,6.9 -20.68,10.65 -36.16,10.63 -15.47,-0.02 -27.72,-3.8 -36.12,-10.73 -8.48,-6.99 -13.04,-17.18 -13.02,-29.9 0.02,-12.72 4.6,-22.9 13.11,-29.89 8.42,-6.92 20.68,-10.68 36.14,-10.66 15.47,0.02 27.71,3.82 36.12,10.75 8.49,7.01 13.04,17.2 13.03,29.93 -0.02,12.73 -4.59,22.9 -13.1,29.87zm-59.48 -11.37c5.82,4.74 14.17,7.05 23.35,7.06 9.16,0.01 17.39,-2.26 23.13,-6.95 5.15,-4.21 8.3,-10.39 8.31,-18.63 0.01,-8.13 -3.14,-14.27 -8.29,-18.48 -5.72,-4.67 -13.94,-6.99 -23.08,-7 -9.16,-0.01 -17.5,2.29 -23.33,6.98 -5.23,4.19 -8.45,10.32 -8.47,18.41 -0.01,8.21 3.19,14.39 8.38,18.61zm166.77 -56.8l-0.02 13.94 -59.12 -0.08 -0.03 19.13 48.38 0.07 -0.02 13.87 -48.38 -0.07 -0.04 30.51 -17.08 -0.02 0.11 -78.09 76.2 0.1 0 0.64zm100.77 62.1l40.1 -62.56c5.59,0.06 11.19,0.08 16.78,0.11l-0.11 78.01 -17.08 -0.02 0.06 -47.31 -30.55 47.27 -18.37 -0.02 -30.4 -47.17 -0.06 47.14 -17.08 -0.02 0.11 -78.01 16.78 0.02 39.81 62.58zm94.69 -17.76l-0.02 18.92 59.27 0.08 -0.02 14.47 -76.35 -0.1 0.11 -78.1 76.2 0.1 -0.02 14.47 -59.12 -0.08 -0.02 19.15 48.38 0.07 -0.01 11.1 -48.38 -0.07zm78.71 -44.61l43.88 0.06c15.94,0.02 26.82,3.79 33.95,9.86 8.53,7.25 11.66,17.74 11.65,29.01 -0.01,11.19 -3.6,21.75 -12.18,29.1 -7.29,6.24 -18.17,10.15 -33.53,10.13l-44.53 -0.06 0.11 -78.1 0.64 0zm16.35 63.18l27.09 0.04c10.1,0.01 16.94,-2.36 21.38,-6.15 5.34,-4.55 7.26,-11.19 7.27,-18.16 0.01,-6.94 -1.87,-13.42 -7.15,-17.85 -4.43,-3.72 -11.28,-6.05 -21.43,-6.06l-27.1 -0.04 -0.06 48.22zm93.18 14.42l0.1 -77.45 17.08 0.02 -0.11 78.1 -17.08 -0.02 0 -0.64zm123.27 0.81l-17.64 -0.02 -7.93 -17.46 -38.63 -0.05 -7.96 17.44 -18.48 -0.02c12.27,-25.99 24.56,-51.97 36.78,-77.99l17.99 0.02c12.31,26.02 24.61,52.05 36.89,78.08l-1.02 -0zm-44.87 -59.97l-13.39 29.4 26.75 0.04 -13.36 -29.44zm43.35 -18.1l81.64 0.11 -0.02 14.66 -32.61 -0.04 -0.08 63.41 -17.08 -0.02 0.08 -63.41 -32.61 -0.04 0.02 -14.66 0.64 0zm97.74 77.56l0.1 -77.45 17.08 0.02 -0.11 78.1 -17.08 -0.02 0 -0.64zm122.62 -8.33c-8.42,6.9 -20.68,10.65 -36.15,10.63 -15.47,-0.02 -27.72,-3.81 -36.12,-10.73 -8.48,-7 -13.04,-17.18 -13.02,-29.9 0.01,-12.72 4.6,-22.9 13.11,-29.89 8.42,-6.91 20.68,-10.67 36.14,-10.65 15.47,0.02 27.71,3.81 36.11,10.75 8.49,7.01 13.05,17.2 13.03,29.93 -0.02,12.73 -4.59,22.9 -13.1,29.87zm-59.48 -11.37c5.82,4.73 14.17,7.05 23.35,7.06 9.15,0.01 17.39,-2.27 23.13,-6.95 5.15,-4.21 8.3,-10.39 8.31,-18.63 0.01,-8.13 -3.14,-14.28 -8.29,-18.48 -5.73,-4.67 -13.94,-6.99 -23.08,-7 -9.16,-0.01 -17.5,2.29 -23.34,6.98 -5.22,4.19 -8.45,10.31 -8.46,18.41 -0.01,8.21 3.19,14.39 8.38,18.61zm163.39 -2.38l0.07 -55.07 17.08 0.02 -0.11 78.09 -16.43 -0.02 -0.45 -0.18 -55.93 -54.69 -0.07 54.79 -17.08 -0.02 0.11 -78.1 16.43 0.02 0.45 0.18 55.93 54.96zm48.62 30.75c-2.72,3.11 -6.74,5.07 -11.96,6.12l-0.55 0.11 -1.72 -5.05 0.43 -0.27c0.01,-0.01 4.38,-2.45 4.98,-7.4l-6.48 -1.3 0.02 -14.71 19.45 0.03 -0.01 9.53c-0.01,5.59 -1.43,9.83 -4.16,12.95zm121.96 -30.52l0.07 -55.07 17.08 0.02 -0.11 78.1 -16.43 -0.02 -0.45 -0.18 -55.93 -54.69 -0.07 54.8 -17.08 -0.02 0.11 -78.09 16.43 0.02 0.45 0.19 55.93 54.95zm54.96 -10.28l-0.03 18.92 59.28 0.08 -0.02 14.47 -76.35 -0.1 0.1 -78.1 76.2 0.1 -0.02 14.47 -59.12 -0.08 -0.02 19.15 48.38 0.07 -0.02 11.1 -48.37 -0.07zm170.51 -3.6l0.33 37.21 -15.24 -0.02 0 -0.65c0,-2.62 0.22,-5.76 0.54,-9.07 0.23,-2.33 0.52,-4.74 0.84,-7.1 -2.61,5.17 -6.4,9.37 -11.32,12.44 -6.15,3.83 -14.05,5.89 -23.59,5.88 -14.26,-0.02 -26.41,-3.76 -34.86,-10.94 -8.05,-6.84 -12.75,-16.77 -12.74,-29.56 0.02,-12.89 4.85,-22.94 13.25,-29.83 8.71,-7.14 21.25,-10.87 36.23,-10.85 12.96,0.02 23.45,2.86 30.92,7.95 7.66,5.21 12.15,12.77 12.91,22.05l0.06 0.7 -16.31 -0.02 -0.15 -0.44c-1.56,-4.62 -4.65,-8.5 -9.47,-11.16 -4.45,-2.45 -10.38,-3.88 -17.98,-3.89 -10.11,-0.01 -18.05,2.43 -23.48,6.79 -5.52,4.43 -8.46,10.86 -8.47,18.74 -0.01,7.93 2.91,14.4 8.5,18.84 5.48,4.35 13.55,6.8 23.96,6.81 7.26,0.01 13.16,-1.31 17.78,-3.68 4.58,-2.34 7.94,-5.72 10.13,-9.84l-19.8 0.22 0.01 -11.26 37.92 0.05 0 0.64zm102.02 28.21c-8.42,6.9 -20.68,10.65 -36.15,10.63 -15.47,-0.02 -27.72,-3.8 -36.12,-10.73 -8.49,-7 -13.04,-17.18 -13.02,-29.91 0.02,-12.72 4.6,-22.9 13.11,-29.89 8.42,-6.92 20.68,-10.68 36.14,-10.66 15.47,0.02 27.71,3.82 36.11,10.75 8.49,7.01 13.04,17.2 13.03,29.93 -0.02,12.73 -4.59,22.9 -13.1,29.87zm-59.48 -11.37c5.83,4.74 14.18,7.05 23.35,7.06 9.16,0.01 17.39,-2.26 23.13,-6.95 5.15,-4.21 8.3,-10.39 8.31,-18.63 0.01,-8.13 -3.14,-14.27 -8.29,-18.48 -5.73,-4.67 -13.94,-6.99 -23.08,-7 -9.16,-0.01 -17.5,2.29 -23.34,6.98 -5.22,4.19 -8.45,10.32 -8.46,18.41 -0.01,8.21 3.19,14.39 8.38,18.61zm82 -57.54l81.64 0.11 -0.02 14.66 -32.61 -0.05 -0.08 63.41 -17.08 -0.02 0.08 -63.41 -32.61 -0.05 0.02 -14.66 0.64 0zm97.74 77.56l0.1 -77.45 17.08 0.02 -0.11 78.1 -17.08 -0.02 0 -0.64zm123.27 0.81l-17.64 -0.02 -7.93 -17.46 -38.63 -0.05 -7.96 17.44 -18.48 -0.02c12.27,-25.99 24.56,-51.97 36.78,-77.99l17.99 0.02c12.31,26.02 24.61,52.05 36.89,78.08l-1.02 -0zm-44.87 -59.97l-13.39 29.4 26.75 0.04 -13.36 -29.44zm43.35 -18.1l81.64 0.11 -0.02 14.66 -32.61 -0.05 -0.08 63.41 -17.08 -0.02 0.08 -63.41 -32.61 -0.05 0.02 -14.66 0.64 0zm97.74 77.56l0.1 -77.45 17.08 0.02 -0.1 78.1 -17.08 -0.02 0 -0.64zm122.62 -8.33c-8.42,6.9 -20.68,10.65 -36.15,10.63 -15.47,-0.02 -27.72,-3.8 -36.12,-10.73 -8.48,-6.99 -13.04,-17.18 -13.02,-29.9 0.02,-12.72 4.6,-22.9 13.11,-29.89 8.42,-6.91 20.68,-10.67 36.14,-10.65 15.47,0.02 27.71,3.81 36.11,10.75 8.49,7.01 13.04,17.2 13.03,29.93 -0.02,12.73 -4.59,22.9 -13.1,29.87zm-59.48 -11.37c5.83,4.74 14.18,7.05 23.35,7.06 9.16,0.01 17.39,-2.26 23.13,-6.95 5.15,-4.21 8.3,-10.39 8.31,-18.63 0.01,-8.13 -3.14,-14.27 -8.29,-18.48 -5.73,-4.67 -13.94,-6.99 -23.08,-7 -9.16,-0.01 -17.5,2.29 -23.34,6.98 -5.22,4.19 -8.45,10.32 -8.46,18.41 -0.01,8.21 3.19,14.39 8.38,18.61zm163.39 -2.38l0.08 -55.07 17.08 0.02 -0.11 78.09 -16.43 -0.02 -0.45 -0.18 -55.93 -54.69 -0.07 54.8 -17.08 -0.02 0.11 -78.09 16.43 0.02 0.45 0.19 55.93 54.95zm48.63 30.75c-2.72,3.1 -6.74,5.07 -11.96,6.12l-0.55 0.11 -1.72 -5.05 0.43 -0.27c0.01,-0.01 4.38,-2.45 4.98,-7.4l-6.48 -1.31 0.02 -14.71 19.45 0.03 -0.01 9.53c-0.01,5.59 -1.43,9.83 -4.16,12.95zm-2840.11 99.73l16.41 0.02 -0.08 0.71c-1.07,9.51 -5.66,16.97 -13.27,22.05 -7.55,5.04 -18.08,7.71 -31.11,7.69 -14.98,-0.02 -27.59,-3.62 -36.31,-10.75 -8.27,-6.76 -13.04,-16.68 -13.03,-29.71 0.02,-13.05 4.84,-23.06 13.16,-29.89 8.74,-7.17 21.34,-10.82 36.29,-10.8 13.02,0.02 23.55,2.81 31.09,7.95 7.65,5.21 12.24,12.83 13.26,22.41l0.07 0.71 -16.87 -0.02 -0.14 -0.45c-1.59,-4.92 -4.7,-8.88 -9.41,-11.57 -4.5,-2.57 -10.49,-4 -18.02,-4.01 -9.81,-0.01 -17.95,2.32 -23.54,6.84 -5.33,4.31 -8.37,10.64 -8.38,18.85 -0.01,8.25 3,14.58 8.3,18.89 5.58,4.53 13.71,6.87 23.55,6.88 7.52,0.01 13.5,-1.38 18.01,-3.92 4.7,-2.65 7.81,-6.56 9.42,-11.45l0.14 -0.45 0.47 0zm116.74 20.01c-8.42,6.9 -20.68,10.66 -36.15,10.63 -15.47,-0.02 -27.72,-3.81 -36.12,-10.73 -8.48,-7 -13.04,-17.18 -13.02,-29.9 0.02,-12.73 4.6,-22.9 13.11,-29.89 8.42,-6.91 20.68,-10.68 36.14,-10.66 15.47,0.02 27.71,3.82 36.11,10.75 8.49,7.01 13.04,17.2 13.03,29.92 -0.02,12.73 -4.59,22.9 -13.1,29.87zm-59.48 -11.37c5.83,4.74 14.18,7.05 23.35,7.06 9.16,0.01 17.39,-2.27 23.13,-6.95 5.15,-4.21 8.3,-10.39 8.31,-18.63 0.01,-8.13 -3.14,-14.28 -8.29,-18.48 -5.73,-4.67 -13.94,-6.98 -23.08,-7 -9.16,-0.01 -17.5,2.29 -23.34,6.98 -5.22,4.19 -8.45,10.31 -8.46,18.41 -0.01,8.21 3.19,14.39 8.38,18.61zm161.03 -13.95l0.06 -43.48 17.08 0.02 -0.06 45.16c-0.01,11.96 -4.29,20.2 -11.21,25.63 -8.09,6.35 -19.79,8.79 -32.49,8.77 -13.09,-0.02 -24.75,-2.46 -32.76,-8.74 -6.95,-5.44 -11.14,-13.74 -11.13,-25.78l0.06 -45.16 17.08 0.02 -0.06 43.48c-0.01,8.72 2.77,13.99 7.47,17.06 4.75,3.11 11.52,4.04 19.36,4.05 7.61,0.01 14.31,-0.9 19.06,-4 4.7,-3.06 7.54,-8.32 7.55,-17.04zm110.74 11.72l0.07 -55.07 17.08 0.02 -0.11 78.09 -16.43 -0.02 -0.45 -0.18 -55.93 -54.69 -0.07 54.79 -17.08 -0.02 0.11 -78.1 16.43 0.02 0.45 0.19 55.93 54.95zm33.62 -2.21c0,-0.43 0.02,-0.87 0.07,-1.31l0.06 -0.58 17.1 0.02 0.06 0.57c0.43,3.95 3.01,7.31 6.98,9.71 4.11,2.49 9.72,3.95 16.03,3.99l0.33 0c5.62,0 9.79,-0.96 12.55,-2.7 2.66,-1.68 3.99,-4.11 4.02,-7.09l-0 -0.07c0,-3.27 -1.88,-5.33 -5.63,-6.84 -3.96,-1.59 -9.95,-2.59 -17.92,-3.72 -9.08,-1.49 -17.19,-3.49 -23.06,-6.95 -5.98,-3.52 -9.63,-8.53 -9.62,-15.99 0.01,-7.21 3.22,-13.18 9.45,-17.29 5.89,-3.88 14.49,-6.09 25.65,-6.08l0.87 0.01c10.86,0.15 19.34,2.75 25.11,7.35 5.81,4.63 8.88,11.27 8.87,19.44l-0.01 1.03 -16.68 -0.02 -0.04 -0.61c-0.23,-4.2 -2.07,-7.25 -5.07,-9.29 -3.34,-2.27 -8.14,-3.32 -13.76,-3.33 -5.4,-0.01 -9.93,0.73 -12.99,2.41 -2.66,1.46 -4.2,3.67 -4.2,6.76 -0,3.54 1.81,5.63 5.65,7.19 4.05,1.65 10.31,2.73 18.93,4.22 8.71,1.34 16.47,3.07 22.08,6.35 5.73,3.34 9.21,8.26 9.2,15.92 -0.01,7.65 -2.85,13.76 -8.83,17.9 -5.61,3.88 -13.99,6 -25.4,5.98 -2.3,-0 -4.5,-0.12 -6.61,-0.35 -11.39,-1.21 -19.68,-5.45 -25.11,-10.58 -5.48,-5.17 -8.08,-11.26 -8.08,-16.07zm107.53 -7.95l-0.02 18.91 59.28 0.08 -0.02 14.47 -76.35 -0.11 0.11 -78.09 76.2 0.1 -0.02 14.46 -59.12 -0.08 -0.03 19.15 48.38 0.06 -0.01 11.1 -48.38 -0.07zm95.15 -43.99l-0.08 63.03 50.99 0.07 -0.02 14.47 -58.44 -0.08 0 -0.06 -9.62 -0.01 0.11 -78.07 17.08 0.02 0 0.64zm70.31 76.94l0.1 -77.45 17.08 0.02 -0.11 78.1 -17.08 -0.02 0 -0.64zm113.04 -22.23l0.07 -55.06 17.08 0.02 -0.11 78.1 -16.43 -0.02 -0.45 -0.19 -55.93 -54.69 -0.07 54.8 -17.08 -0.02 0.11 -78.1 16.43 0.02 0.45 0.19 55.93 54.95zm131.1 -14.01l0.33 37.21 -15.24 -0.02 0 -0.64c0,-2.62 0.22,-5.76 0.54,-9.08 0.23,-2.33 0.52,-4.73 0.84,-7.1 -2.61,5.17 -6.4,9.37 -11.32,12.44 -6.15,3.83 -14.05,5.9 -23.59,5.88 -14.26,-0.02 -26.4,-3.76 -34.86,-10.94 -8.06,-6.84 -12.76,-16.77 -12.74,-29.56 0.02,-12.89 4.85,-22.95 13.25,-29.83 8.71,-7.14 21.25,-10.87 36.24,-10.85 12.96,0.02 23.45,2.86 30.92,7.95 7.66,5.21 12.15,12.77 12.91,22.05l0.06 0.7 -16.31 -0.02 -0.15 -0.44c-1.56,-4.62 -4.65,-8.5 -9.47,-11.16 -4.45,-2.45 -10.38,-3.88 -17.98,-3.89 -10.11,-0.01 -18.05,2.43 -23.49,6.79 -5.52,4.43 -8.46,10.87 -8.47,18.74 -0.01,7.93 2.91,14.4 8.5,18.84 5.48,4.35 13.55,6.8 23.96,6.81 7.26,0.01 13.16,-1.31 17.79,-3.68 4.58,-2.34 7.93,-5.72 10.13,-9.84l-19.8 0.22 0.02 -11.26 37.92 0.05 0.01 0.64zm131.27 37.39l-17.64 -0.02 -7.93 -17.46 -38.62 -0.05 -7.96 17.44 -18.48 -0.02c12.27,-25.99 24.56,-51.97 36.78,-77.99l17.99 0.02c12.32,26.02 24.61,52.05 36.89,78.08l-1.01 0zm-44.87 -59.97l-13.39 29.4 26.75 0.04 -13.36 -29.44zm132.1 37.06l0.08 -55.06 17.08 0.02 -0.11 78.1 -16.43 -0.02 -0.45 -0.18 -55.93 -54.69 -0.07 54.8 -17.08 -0.02 0.11 -78.09 16.43 0.02 0.45 0.19 55.93 54.95zm38.59 -55.01l43.88 0.06c15.94,0.02 26.82,3.79 33.95,9.85 8.53,7.25 11.66,17.74 11.65,29.02 -0.01,11.19 -3.6,21.75 -12.18,29.1 -7.29,6.24 -18.17,10.15 -33.53,10.13l-44.53 -0.06 0.11 -78.1 0.64 0zm16.35 63.18l27.09 0.04c10.1,0.01 16.94,-2.36 21.38,-6.15 5.34,-4.55 7.26,-11.19 7.27,-18.16 0.01,-6.94 -1.87,-13.42 -7.15,-17.85 -4.43,-3.72 -11.28,-6.04 -21.43,-6.06l-27.1 -0.04 -0.06 48.22zm194.27 -13.78l16.41 0.02 -0.08 0.72c-1.07,9.51 -5.66,16.97 -13.27,22.05 -7.55,5.03 -18.08,7.71 -31.11,7.69 -14.98,-0.02 -27.59,-3.62 -36.31,-10.75 -8.27,-6.76 -13.04,-16.68 -13.03,-29.71 0.02,-13.05 4.84,-23.06 13.16,-29.89 8.74,-7.17 21.34,-10.82 36.29,-10.8 13.02,0.02 23.55,2.81 31.09,7.95 7.65,5.21 12.24,12.83 13.25,22.41l0.08 0.71 -16.87 -0.02 -0.14 -0.45c-1.59,-4.92 -4.7,-8.88 -9.41,-11.57 -4.5,-2.57 -10.49,-4 -18.02,-4.01 -9.81,-0.01 -17.95,2.32 -23.54,6.84 -5.33,4.31 -8.37,10.63 -8.38,18.85 -0.01,8.25 3,14.58 8.3,18.89 5.58,4.54 13.72,6.87 23.55,6.88 7.52,0.01 13.5,-1.38 18.01,-3.92 4.7,-2.65 7.81,-6.56 9.42,-11.44l0.14 -0.45 0.47 0zm116.74 20.01c-8.42,6.9 -20.68,10.65 -36.15,10.63 -15.47,-0.02 -27.72,-3.8 -36.12,-10.73 -8.48,-7 -13.04,-17.18 -13.02,-29.9 0.02,-12.72 4.6,-22.9 13.11,-29.89 8.42,-6.91 20.68,-10.67 36.14,-10.65 15.47,0.02 27.71,3.81 36.11,10.75 8.49,7.01 13.04,17.2 13.03,29.93 -0.02,12.73 -4.59,22.9 -13.1,29.87zm-59.48 -11.37c5.83,4.73 14.18,7.05 23.35,7.06 9.16,0.01 17.39,-2.26 23.13,-6.95 5.15,-4.21 8.3,-10.39 8.31,-18.63 0.01,-8.13 -3.14,-14.28 -8.29,-18.48 -5.73,-4.67 -13.94,-6.99 -23.08,-7 -9.16,-0.01 -17.5,2.29 -23.34,6.98 -5.22,4.19 -8.45,10.31 -8.46,18.41 -0.01,8.21 3.19,14.39 8.38,18.61zm163.39 -2.38l0.07 -55.07 17.08 0.02 -0.11 78.09 -16.43 -0.02 -0.45 -0.18 -55.93 -54.69 -0.07 54.8 -17.08 -0.02 0.11 -78.1 16.43 0.02 0.45 0.19 55.93 54.95zm112.46 -5.81l16.41 0.02 -0.08 0.71c-1.07,9.51 -5.66,16.97 -13.27,22.05 -7.55,5.04 -18.08,7.71 -31.12,7.69 -14.98,-0.02 -27.59,-3.62 -36.31,-10.75 -8.27,-6.76 -13.04,-16.68 -13.02,-29.71 0.01,-13.05 4.83,-23.06 13.16,-29.89 8.74,-7.17 21.34,-10.82 36.29,-10.8 13.02,0.02 23.55,2.81 31.09,7.95 7.65,5.21 12.23,12.83 13.25,22.41l0.07 0.71 -16.87 -0.02 -0.14 -0.44c-1.59,-4.92 -4.7,-8.88 -9.4,-11.57 -4.5,-2.57 -10.49,-4 -18.02,-4.01 -9.81,-0.01 -17.95,2.32 -23.54,6.84 -5.33,4.31 -8.37,10.64 -8.38,18.85 -0.01,8.25 3,14.58 8.3,18.89 5.58,4.53 13.71,6.87 23.55,6.88 7.52,0.01 13.5,-1.38 18.01,-3.92 4.69,-2.65 7.81,-6.56 9.42,-11.45l0.14 -0.45 0.47 0zm36.38 28.4l0.1 -77.45 17.08 0.02 -0.1 78.09 -17.08 -0.02 0 -0.64zm57.3 -76.77l-0.08 63.03 50.99 0.07 -0.02 14.46 -58.45 -0.08 0 -0.06 -9.62 -0.01 0.11 -78.07 17.08 0.02 0 0.64zm70.31 76.94l0.11 -77.45 17.08 0.02 -0.11 78.09 -17.08 -0.02 0 -0.65zm123.27 0.81l-17.64 -0.02 -7.93 -17.46 -38.63 -0.05 -7.96 17.44 -18.48 -0.02c12.27,-25.99 24.56,-51.97 36.78,-77.99l17.99 0.02c12.31,26.02 24.61,52.05 36.89,78.08l-1.02 0zm-44.87 -59.97l-13.39 29.4 26.75 0.04 -13.36 -29.44zm43.35 -18.1l81.64 0.11 -0.02 14.66 -32.61 -0.04 -0.09 63.41 -17.08 -0.02 0.08 -63.41 -32.61 -0.04 0.02 -14.66 0.64 0zm97.74 77.56l0.11 -77.45 17.08 0.02 -0.11 78.09 -17.08 -0.02 0 -0.65zm122.62 -8.33c-8.42,6.9 -20.68,10.66 -36.16,10.63 -15.47,-0.02 -27.72,-3.81 -36.12,-10.73 -8.48,-7 -13.04,-17.18 -13.02,-29.9 0.02,-12.73 4.6,-22.91 13.11,-29.89 8.42,-6.91 20.68,-10.68 36.14,-10.66 15.47,0.02 27.71,3.82 36.12,10.75 8.49,7.01 13.04,17.21 13.03,29.93 -0.02,12.73 -4.59,22.9 -13.1,29.87zm-59.48 -11.37c5.82,4.74 14.17,7.05 23.35,7.06 9.16,0.01 17.39,-2.27 23.13,-6.96 5.15,-4.21 8.3,-10.39 8.31,-18.63 0.01,-8.13 -3.14,-14.27 -8.29,-18.48 -5.73,-4.67 -13.94,-6.98 -23.08,-7 -9.16,-0.01 -17.5,2.29 -23.34,6.98 -5.22,4.19 -8.45,10.31 -8.46,18.41 -0.01,8.21 3.19,14.39 8.38,18.61zm163.39 -2.38l0.07 -55.06 17.08 0.02 -0.11 78.1 -16.43 -0.02 -0.45 -0.19 -55.93 -54.69 -0.07 54.8 -17.08 -0.02 0.11 -78.09 16.43 0.02 0.45 0.19 55.93 54.95z"/>
 </g>
</svg>
